<svg id="レイヤー_1" data-name="レイヤー 1" xmlns="http://www.w3.org/2000/svg" xmlns:xlink="http://www.w3.org/1999/xlink" viewBox="0 0 272.59 159.39"><defs><style>.cls-1{fill:url(#新規グラデーションスウォッチ_3);}.cls-11,.cls-12,.cls-13,.cls-14,.cls-15,.cls-16,.cls-17,.cls-18,.cls-19,.cls-2,.cls-3,.cls-36,.cls-37,.cls-38,.cls-39,.cls-4,.cls-40,.cls-41,.cls-42,.cls-43,.cls-44,.cls-45,.cls-46,.cls-47,.cls-49,.cls-5,.cls-50,.cls-51,.cls-52,.cls-6,.cls-7,.cls-8,.cls-9{stroke-miterlimit:10;}.cls-2{stroke-width:0.38px;fill:url(#名称未設定グラデーション_409);stroke:url(#新規グラデーションスウォッチ_3-2);}.cls-3,.cls-39,.cls-45,.cls-46{stroke-width:0.75px;}.cls-3{fill:url(#名称未設定グラデーション_408);stroke:url(#新規グラデーションスウォッチ_3-3);}.cls-4{stroke-width:1.13px;fill:url(#名称未設定グラデーション_407);stroke:url(#新規グラデーションスウォッチ_3-4);}.cls-13,.cls-5{stroke-width:1.5px;}.cls-5{fill:url(#名称未設定グラデーション_406);stroke:url(#新規グラデーションスウォッチ_3-5);}.cls-6{stroke-width:1.88px;fill:url(#名称未設定グラデーション_405);stroke:url(#新規グラデーションスウォッチ_3-6);}.cls-7{stroke-width:2.25px;fill:url(#名称未設定グラデーション_404);stroke:url(#新規グラデーションスウォッチ_3-7);}.cls-8{stroke-width:2.63px;fill:url(#名称未設定グラデーション_403);stroke:url(#新規グラデーションスウォッチ_3-8);}.cls-16,.cls-51,.cls-9{fill:#e41d12;}.cls-16,.cls-17,.cls-18,.cls-36,.cls-37,.cls-38,.cls-50,.cls-51,.cls-9{stroke-width:3px;}.cls-9{stroke:url(#新規グラデーションスウォッチ_3-9);}.cls-10{fill:url(#新規グラデーションスウォッチ_3-10);}.cls-11{stroke-width:0.5px;fill:url(#名称未設定グラデーション_423);stroke:url(#新規グラデーションスウォッチ_3-11);}.cls-12{fill:url(#名称未設定グラデーション_422);stroke:url(#新規グラデーションスウォッチ_3-12);}.cls-13{fill:url(#名称未設定グラデーション_406-2);stroke:url(#新規グラデーションスウォッチ_3-13);}.cls-14{stroke-width:2px;fill:url(#名称未設定グラデーション_421);stroke:url(#新規グラデーションスウォッチ_3-14);}.cls-15{stroke-width:2.5px;fill:url(#名称未設定グラデーション_420);stroke:url(#新規グラデーションスウォッチ_3-15);}.cls-16{stroke:url(#新規グラデーションスウォッチ_3-16);}.cls-17,.cls-19,.cls-52{fill:#fff;}.cls-17{stroke:url(#新規グラデーションスウォッチ_3-17);}.cls-18,.cls-37,.cls-39,.cls-40,.cls-41,.cls-42,.cls-43,.cls-44,.cls-45,.cls-46,.cls-47,.cls-48,.cls-49{fill:#231815;}.cls-18,.cls-19,.cls-20{stroke:#231815;}.cls-19{stroke-width:4px;}.cls-20,.cls-36,.cls-38,.cls-50{fill:none;}.cls-20{stroke-linecap:round;stroke-linejoin:round;stroke-width:2px;}.cls-21{fill:url(#新規グラデーションスウォッチ_3-18);}.cls-22{fill:url(#新規グラデーションスウォッチ_3-19);}.cls-23{fill:url(#新規グラデーションスウォッチ_3-20);}.cls-24{fill:url(#新規グラデーションスウォッチ_3-21);}.cls-25{fill:url(#新規グラデーションスウォッチ_3-22);}.cls-26{fill:url(#新規グラデーションスウォッチ_3-23);}.cls-27{fill:url(#新規グラデーションスウォッチ_3-24);}.cls-28{fill:url(#新規グラデーションスウォッチ_3-25);}.cls-29{fill:url(#新規グラデーションスウォッチ_3-26);}.cls-30{fill:url(#新規グラデーションスウォッチ_3-27);}.cls-31{fill:url(#新規グラデーションスウォッチ_3-28);}.cls-32{fill:url(#新規グラデーションスウォッチ_3-29);}.cls-33{fill:url(#新規グラデーションスウォッチ_3-30);}.cls-34{fill:url(#新規グラデーションスウォッチ_3-31);}.cls-35{fill:url(#新規グラデーションスウォッチ_3-32);}.cls-36{stroke:url(#新規グラデーションスウォッチ_3-33);}.cls-37{stroke:url(#新規グラデーションスウォッチ_3-34);}.cls-38{stroke:url(#新規グラデーションスウォッチ_3-35);}.cls-39{stroke:url(#新規グラデーションスウォッチ_3-36);}.cls-40{stroke:url(#新規グラデーションスウォッチ_3-37);}.cls-41{stroke:url(#新規グラデーションスウォッチ_3-38);}.cls-42,.cls-43,.cls-44,.cls-47{stroke-width:0.5px;}.cls-42{stroke:url(#新規グラデーションスウォッチ_3-39);}.cls-43{stroke:url(#新規グラデーションスウォッチ_3-40);}.cls-44{stroke:url(#新規グラデーションスウォッチ_3-41);}.cls-45{stroke:url(#新規グラデーションスウォッチ_3-42);}.cls-46{stroke:url(#新規グラデーションスウォッチ_3-43);}.cls-47{stroke:url(#新規グラデーションスウォッチ_3-44);}.cls-49{stroke-width:0.25px;stroke:url(#新規グラデーションスウォッチ_3-45);}.cls-50{stroke:url(#新規グラデーションスウォッチ_3-46);}.cls-51{stroke:url(#新規グラデーションスウォッチ_3-47);}.cls-52{stroke:url(#新規グラデーションスウォッチ_3-48);}</style><linearGradient id="新規グラデーションスウォッチ_3" x1="235.05" y1="10.94" x2="266.15" y2="42.04" gradientUnits="userSpaceOnUse"><stop offset="0" stop-color="#89844b"/><stop offset="0.1" stop-color="#d3cc72"/><stop offset="0.21" stop-color="#757236"/><stop offset="0.29" stop-color="#f4ef72"/><stop offset="0.38" stop-color="#5b5300"/><stop offset="0.57" stop-color="#f1e8d2"/><stop offset="0.58" stop-color="#ddd5bb"/><stop offset="0.63" stop-color="#958d67"/><stop offset="0.65" stop-color="#797146"/><stop offset="0.72" stop-color="#a99c3a"/><stop offset="0.75" stop-color="#c3b333"/><stop offset="0.77" stop-color="#aa9b22"/><stop offset="0.8" stop-color="#867a09"/><stop offset="0.82" stop-color="#796d00"/><stop offset="0.94" stop-color="#cec653"/><stop offset="1" stop-color="#78773e"/></linearGradient><linearGradient id="名称未設定グラデーション_409" x1="234.43" y1="10.56" x2="265.53" y2="41.67" gradientUnits="userSpaceOnUse"><stop offset="0" stop-color="#988848"/><stop offset="0.1" stop-color="#d7c164"/><stop offset="0.21" stop-color="#877936"/><stop offset="0.29" stop-color="#f3dc61"/><stop offset="0.38" stop-color="#726200"/><stop offset="0.57" stop-color="#f0d4b5"/><stop offset="0.63" stop-color="#a89266"/><stop offset="0.65" stop-color="#897645"/><stop offset="0.71" stop-color="#af9537"/><stop offset="0.75" stop-color="#c9aa2d"/><stop offset="0.77" stop-color="#bb9e23"/><stop offset="0.8" stop-color="#977f0a"/><stop offset="0.82" stop-color="#8a7300"/><stop offset="0.94" stop-color="#d2ba48"/><stop offset="1" stop-color="#897e3d"/></linearGradient><linearGradient id="新規グラデーションスウォッチ_3-2" x1="234.29" y1="10.43" x2="265.66" y2="41.8" xlink:href="#新規グラデーションスウォッチ_3"/><linearGradient id="名称未設定グラデーション_408" x1="233.8" y1="10.19" x2="264.9" y2="41.29" gradientUnits="userSpaceOnUse"><stop offset="0" stop-color="#a68843"/><stop offset="0.1" stop-color="#dab356"/><stop offset="0.21" stop-color="#987d34"/><stop offset="0.29" stop-color="#f1c852"/><stop offset="0.38" stop-color="#866b00"/><stop offset="0.57" stop-color="#efbf98"/><stop offset="0.62" stop-color="#ba9362"/><stop offset="0.65" stop-color="#997841"/><stop offset="0.7" stop-color="#b38c34"/><stop offset="0.75" stop-color="#cd9f27"/><stop offset="0.76" stop-color="#cb9d25"/><stop offset="0.8" stop-color="#a7800a"/><stop offset="0.82" stop-color="#9a7500"/><stop offset="0.94" stop-color="#d5ad3e"/><stop offset="1" stop-color="#99803a"/></linearGradient><linearGradient id="新規グラデーションスウォッチ_3-3" x1="233.54" y1="9.92" x2="265.17" y2="41.56" xlink:href="#新規グラデーションスウォッチ_3"/><linearGradient id="名称未設定グラデーション_407" x1="233.18" y1="9.81" x2="264.28" y2="40.92" gradientUnits="userSpaceOnUse"><stop offset="0" stop-color="#b3833b"/><stop offset="0.1" stop-color="#dca247"/><stop offset="0.21" stop-color="#a77b2f"/><stop offset="0.29" stop-color="#eeb243"/><stop offset="0.38" stop-color="#9a6f00"/><stop offset="0.57" stop-color="#eda97c"/><stop offset="0.61" stop-color="#c98e5a"/><stop offset="0.65" stop-color="#a8763b"/><stop offset="0.69" stop-color="#b88131"/><stop offset="0.75" stop-color="#d29221"/><stop offset="0.79" stop-color="#b57d0b"/><stop offset="0.82" stop-color="#a87300"/><stop offset="0.94" stop-color="#d89d34"/><stop offset="1" stop-color="#a87e34"/></linearGradient><linearGradient id="新規グラデーションスウォッチ_3-4" x1="232.78" y1="9.42" x2="264.68" y2="41.31" xlink:href="#新規グラデーションスウォッチ_3"/><linearGradient id="名称未設定グラデーション_406" x1="232.55" y1="9.44" x2="263.65" y2="40.54" gradientUnits="userSpaceOnUse"><stop offset="0" stop-color="#bf7b32"/><stop offset="0.1" stop-color="#de903a"/><stop offset="0.21" stop-color="#b57529"/><stop offset="0.29" stop-color="#ec9a35"/><stop offset="0.38" stop-color="#ac6d00"/><stop offset="0.57" stop-color="#eb9262"/><stop offset="0.6" stop-color="#d78550"/><stop offset="0.65" stop-color="#b66f33"/><stop offset="0.67" stop-color="#bc732e"/><stop offset="0.75" stop-color="#d6821b"/><stop offset="0.79" stop-color="#c3760b"/><stop offset="0.82" stop-color="#b66e00"/><stop offset="0.94" stop-color="#db8b2a"/><stop offset="1" stop-color="#b6772d"/></linearGradient><linearGradient id="新規グラデーションスウォッチ_3-5" x1="232.02" y1="8.91" x2="264.18" y2="41.07" xlink:href="#新規グラデーションスウォッチ_3"/><linearGradient id="名称未設定グラデーション_405" x1="231.93" y1="9.06" x2="263.03" y2="40.17" gradientUnits="userSpaceOnUse"><stop offset="0" stop-color="#c96e28"/><stop offset="0.1" stop-color="#df7b2c"/><stop offset="0.21" stop-color="#c26a22"/><stop offset="0.29" stop-color="#e98129"/><stop offset="0.38" stop-color="#bc6500"/><stop offset="0.57" stop-color="#e97b49"/><stop offset="0.58" stop-color="#e37844"/><stop offset="0.65" stop-color="#c2652a"/><stop offset="0.75" stop-color="#d97016"/><stop offset="0.77" stop-color="#d06b0d"/><stop offset="0.82" stop-color="#c36400"/><stop offset="0.94" stop-color="#dd7721"/><stop offset="1" stop-color="#c36b25"/></linearGradient><linearGradient id="新規グラデーションスウォッチ_3-6" x1="231.26" y1="8.4" x2="263.69" y2="40.83" xlink:href="#新規グラデーションスウォッチ_3"/><linearGradient id="名称未設定グラデーション_404" x1="231.3" y1="8.69" x2="262.4" y2="39.79" gradientUnits="userSpaceOnUse"><stop offset="0" stop-color="#d35c1f"/><stop offset="0.1" stop-color="#e16321"/><stop offset="0.21" stop-color="#cf5b1b"/><stop offset="0.29" stop-color="#e7671e"/><stop offset="0.38" stop-color="#cb5804"/><stop offset="0.57" stop-color="#e76234"/><stop offset="0.65" stop-color="#cf5621"/><stop offset="0.75" stop-color="#dd5c13"/><stop offset="0.76" stop-color="#dc5c12"/><stop offset="0.82" stop-color="#cf5505"/><stop offset="0.94" stop-color="#df611a"/><stop offset="1" stop-color="#cf5b1d"/></linearGradient><linearGradient id="新規グラデーションスウォッチ_3-7" x1="230.51" y1="7.89" x2="263.2" y2="40.59" xlink:href="#新規グラデーションスウォッチ_3"/><linearGradient id="名称未設定グラデーション_403" x1="230.68" y1="8.31" x2="261.78" y2="39.42" gradientUnits="userSpaceOnUse"><stop offset="0" stop-color="#dc4517"/><stop offset="0.1" stop-color="#e34817"/><stop offset="0.21" stop-color="#da4515"/><stop offset="0.29" stop-color="#e54916"/><stop offset="0.38" stop-color="#d8440b"/><stop offset="0.57" stop-color="#e54621"/><stop offset="0.65" stop-color="#da4218"/><stop offset="0.75" stop-color="#e14411"/><stop offset="0.82" stop-color="#da410c"/><stop offset="0.94" stop-color="#e24714"/><stop offset="1" stop-color="#da4516"/></linearGradient><linearGradient id="新規グラデーションスウォッチ_3-8" x1="229.75" y1="7.39" x2="262.71" y2="40.34" xlink:href="#新規グラデーションスウォッチ_3"/><linearGradient id="新規グラデーションスウォッチ_3-9" x1="228.99" y1="6.88" x2="262.21" y2="40.1" xlink:href="#新規グラデーションスウォッチ_3"/><linearGradient id="新規グラデーションスウォッチ_3-10" x1="123.18" y1="44.8" x2="238.44" y2="160.07" xlink:href="#新規グラデーションスウォッチ_3"/><linearGradient id="名称未設定グラデーション_423" x1="122.34" y1="44.3" x2="237.61" y2="159.57" gradientUnits="userSpaceOnUse"><stop offset="0" stop-color="#9d8847"/><stop offset="0.1" stop-color="#d8bc60"/><stop offset="0.21" stop-color="#8c7b36"/><stop offset="0.29" stop-color="#f2d55c"/><stop offset="0.38" stop-color="#796500"/><stop offset="0.57" stop-color="#f0cdab"/><stop offset="0.62" stop-color="#ae9365"/><stop offset="0.65" stop-color="#8f7744"/><stop offset="0.71" stop-color="#b09136"/><stop offset="0.75" stop-color="#caa62b"/><stop offset="0.76" stop-color="#c09d23"/><stop offset="0.8" stop-color="#9c7f0a"/><stop offset="0.82" stop-color="#8f7400"/><stop offset="0.94" stop-color="#d3b645"/><stop offset="1" stop-color="#8f7f3c"/></linearGradient><linearGradient id="新規グラデーションスウォッチ_3-11" x1="122.17" y1="44.13" x2="237.78" y2="159.74" xlink:href="#新規グラデーションスウォッチ_3"/><linearGradient id="名称未設定グラデーション_422" x1="121.51" y1="43.8" x2="236.77" y2="159.07" gradientUnits="userSpaceOnUse"><stop offset="0" stop-color="#af853e"/><stop offset="0.1" stop-color="#dba84c"/><stop offset="0.21" stop-color="#a27c31"/><stop offset="0.29" stop-color="#efb948"/><stop offset="0.38" stop-color="#946e00"/><stop offset="0.57" stop-color="#edb185"/><stop offset="0.61" stop-color="#c4915d"/><stop offset="0.65" stop-color="#a3773d"/><stop offset="0.69" stop-color="#b68432"/><stop offset="0.75" stop-color="#d09623"/><stop offset="0.79" stop-color="#b17f0b"/><stop offset="0.82" stop-color="#a47500"/><stop offset="0.94" stop-color="#d7a337"/><stop offset="1" stop-color="#a47f36"/></linearGradient><linearGradient id="新規グラデーションスウォッチ_3-12" x1="121.16" y1="43.45" x2="237.13" y2="159.42" xlink:href="#新規グラデーションスウォッチ_3"/><linearGradient id="名称未設定グラデーション_406-2" x1="120.68" y1="43.3" x2="235.94" y2="158.57" xlink:href="#名称未設定グラデーション_406"/><linearGradient id="新規グラデーションスウォッチ_3-13" x1="120.15" y1="42.77" x2="236.47" y2="159.1" xlink:href="#新規グラデーションスウォッチ_3"/><linearGradient id="名称未設定グラデーション_421" x1="119.84" y1="42.8" x2="235.11" y2="158.07" gradientUnits="userSpaceOnUse"><stop offset="0" stop-color="#cd6825"/><stop offset="0.1" stop-color="#e07328"/><stop offset="0.21" stop-color="#c66620"/><stop offset="0.29" stop-color="#e87825"/><stop offset="0.38" stop-color="#c16200"/><stop offset="0.57" stop-color="#e87242"/><stop offset="0.65" stop-color="#c76027"/><stop offset="0.75" stop-color="#db6a15"/><stop offset="0.77" stop-color="#d4660d"/><stop offset="0.82" stop-color="#c75f00"/><stop offset="0.94" stop-color="#de701e"/><stop offset="1" stop-color="#c76622"/></linearGradient><linearGradient id="新規グラデーションスウォッチ_3-14" x1="119.14" y1="42.1" x2="235.82" y2="158.77" xlink:href="#新規グラデーションスウォッチ_3"/><linearGradient id="名称未設定グラデーション_420" x1="119.01" y1="42.3" x2="234.27" y2="157.57" gradientUnits="userSpaceOnUse"><stop offset="0" stop-color="#d94e19"/><stop offset="0.1" stop-color="#e2521a"/><stop offset="0.21" stop-color="#d64d17"/><stop offset="0.29" stop-color="#e65418"/><stop offset="0.38" stop-color="#d44c09"/><stop offset="0.57" stop-color="#e65027"/><stop offset="0.65" stop-color="#d64a1b"/><stop offset="0.75" stop-color="#e04d11"/><stop offset="0.82" stop-color="#d6490a"/><stop offset="0.94" stop-color="#e15015"/><stop offset="1" stop-color="#d64d18"/></linearGradient><linearGradient id="新規グラデーションスウォッチ_3-15" x1="118.13" y1="41.42" x2="235.16" y2="158.45" xlink:href="#新規グラデーションスウォッチ_3"/><linearGradient id="新規グラデーションスウォッチ_3-16" x1="117.12" y1="40.74" x2="234.5" y2="158.13" xlink:href="#新規グラデーションスウォッチ_3"/><linearGradient id="新規グラデーションスウォッチ_3-17" x1="103.72" y1="120.02" x2="233.42" y2="120.02" xlink:href="#新規グラデーションスウォッチ_3"/><linearGradient id="新規グラデーションスウォッチ_3-18" x1="121.01" y1="142.85" x2="251.56" y2="178.37" xlink:href="#新規グラデーションスウォッチ_3"/><linearGradient id="新規グラデーションスウォッチ_3-19" x1="121.29" y1="141.81" x2="251.84" y2="177.33" xlink:href="#新規グラデーションスウォッチ_3"/><linearGradient id="新規グラデーションスウォッチ_3-20" x1="122.13" y1="138.7" x2="252.69" y2="174.22" xlink:href="#新規グラデーションスウォッチ_3"/><linearGradient id="新規グラデーションスウォッチ_3-21" x1="122.72" y1="136.55" x2="253.27" y2="172.07" xlink:href="#新規グラデーションスウォッチ_3"/><linearGradient id="新規グラデーションスウォッチ_3-22" x1="125.72" y1="125.52" x2="256.28" y2="161.04" xlink:href="#新規グラデーションスウォッチ_3"/><linearGradient id="新規グラデーションスウォッチ_3-23" x1="128.53" y1="115.19" x2="259.09" y2="150.71" xlink:href="#新規グラデーションスウォッチ_3"/><linearGradient id="新規グラデーションスウォッチ_3-24" x1="131.88" y1="102.88" x2="262.44" y2="138.4" xlink:href="#新規グラデーションスウォッチ_3"/><linearGradient id="新規グラデーションスウォッチ_3-25" x1="134.98" y1="91.49" x2="265.53" y2="127.02" xlink:href="#新規グラデーションスウォッチ_3"/><linearGradient id="新規グラデーションスウォッチ_3-26" x1="120.22" y1="145.74" x2="250.77" y2="181.26" xlink:href="#新規グラデーションスウォッチ_3"/><linearGradient id="新規グラデーションスウォッチ_3-27" x1="122.43" y1="137.6" x2="252.99" y2="173.12" xlink:href="#新規グラデーションスウォッチ_3"/><linearGradient id="新規グラデーションスウォッチ_3-28" x1="124.72" y1="129.2" x2="255.28" y2="164.72" xlink:href="#新規グラデーションスウォッチ_3"/><linearGradient id="新規グラデーションスウォッチ_3-29" x1="130.04" y1="109.66" x2="260.59" y2="145.18" xlink:href="#新規グラデーションスウォッチ_3"/><linearGradient id="新規グラデーションスウォッチ_3-30" x1="132.26" y1="101.5" x2="262.81" y2="137.02" xlink:href="#新規グラデーションスウォッチ_3"/><linearGradient id="新規グラデーションスウォッチ_3-31" x1="127.02" y1="120.76" x2="257.57" y2="156.28" xlink:href="#新規グラデーションスウォッチ_3"/><linearGradient id="新規グラデーションスウォッチ_3-32" x1="134.68" y1="92.58" x2="265.24" y2="128.1" xlink:href="#新規グラデーションスウォッチ_3"/><linearGradient id="新規グラデーションスウォッチ_3-33" x1="169.94" y1="110.49" x2="199.62" y2="140.17" xlink:href="#新規グラデーションスウォッチ_3"/><linearGradient id="新規グラデーションスウォッチ_3-34" x1="209.14" y1="86.31" x2="235.06" y2="112.23" xlink:href="#新規グラデーションスウォッチ_3"/><linearGradient id="新規グラデーションスウォッチ_3-35" x1="217.63" y1="71.61" x2="231.46" y2="85.44" xlink:href="#新規グラデーションスウォッチ_3"/><linearGradient id="新規グラデーションスウォッチ_3-36" x1="108.57" y1="71.51" x2="135.23" y2="71.51" xlink:href="#新規グラデーションスウォッチ_3"/><linearGradient id="新規グラデーションスウォッチ_3-37" x1="128.87" y1="93.64" x2="137.77" y2="93.64" xlink:href="#新規グラデーションスウォッチ_3"/><linearGradient id="新規グラデーションスウォッチ_3-38" x1="127.73" y1="85.28" x2="157.16" y2="85.28" xlink:href="#新規グラデーションスウォッチ_3"/><linearGradient id="新規グラデーションスウォッチ_3-39" x1="153.59" y1="33.09" x2="163.94" y2="33.09" xlink:href="#新規グラデーションスウォッチ_3"/><linearGradient id="新規グラデーションスウォッチ_3-40" x1="154.39" y1="38.19" x2="161.98" y2="38.19" xlink:href="#新規グラデーションスウォッチ_3"/><linearGradient id="新規グラデーションスウォッチ_3-41" x1="154.8" y1="42.85" x2="167" y2="42.85" xlink:href="#新規グラデーションスウォッチ_3"/><linearGradient id="新規グラデーションスウォッチ_3-42" x1="151.76" y1="52.96" x2="169.09" y2="52.96" xlink:href="#新規グラデーションスウォッチ_3"/><linearGradient id="新規グラデーションスウォッチ_3-43" x1="165.19" y1="58.56" x2="184.68" y2="58.56" xlink:href="#新規グラデーションスウォッチ_3"/><linearGradient id="新規グラデーションスウォッチ_3-44" x1="154.85" y1="79.09" x2="201.64" y2="79.09" xlink:href="#新規グラデーションスウォッチ_3"/><linearGradient id="新規グラデーションスウォッチ_3-45" x1="166.14" y1="83.04" x2="194.1" y2="83.04" xlink:href="#新規グラデーションスウォッチ_3"/><linearGradient id="新規グラデーションスウォッチ_3-46" x1="148.04" y1="92.67" x2="206.23" y2="150.85" xlink:href="#新規グラデーションスウォッチ_3"/><linearGradient id="新規グラデーションスウォッチ_3-47" x1="43.06" y1="13.44" x2="175.63" y2="146.01" xlink:href="#新規グラデーションスウォッチ_3"/><linearGradient id="新規グラデーションスウォッチ_3-48" x1="12.52" y1="51.35" x2="27.53" y2="60.02" xlink:href="#新規グラデーションスウォッチ_3"/></defs><circle class="cls-1" cx="250.6" cy="26.49" r="21.99"/><circle class="cls-2" cx="249.98" cy="26.12" r="21.99"/><circle class="cls-3" cx="249.35" cy="25.74" r="21.99"/><circle class="cls-4" cx="248.73" cy="25.37" r="21.99"/><circle class="cls-5" cx="248.1" cy="24.99" r="21.99"/><circle class="cls-6" cx="247.48" cy="24.62" r="21.99"/><circle class="cls-7" cx="246.85" cy="24.24" r="21.99"/><circle class="cls-8" cx="246.23" cy="23.87" r="21.99"/><circle class="cls-9" cx="245.6" cy="23.49" r="21.99"/><path class="cls-10" d="M254.17,62.23c-9-2.92-18.63-.41-26.1,5.83C213.42,54,190.18,45,164,45c-44.33,0-80.26,26-80.26,58.12,0,10.81,4.08,20.92,11.17,29.59a1,1,0,0,0,.11.23c13.54,17.54,36.69,26.86,59.67,32.18,5.94,1.37-15.55,5.07-12.58,11.88,4.9,11.17,45.42,7,66.38-2.8,40.24-18.78,60.56-36.9,62.58-71.76C272.14,84.21,269.13,67.08,254.17,62.23Z" transform="translate(-2.02 -24.23)"/><path class="cls-11" d="M253.34,61.73c-9-2.92-18.64-.41-26.1,5.83-14.66-14-37.9-23.11-64.07-23.11-44.32,0-80.25,26-80.25,58.12,0,10.81,4.08,20.92,11.17,29.59a.94.94,0,0,0,.1.23c13.55,17.54,36.7,26.86,59.68,32.18,5.94,1.37-15.56,5.07-12.58,11.88,4.89,11.17,45.41,7,66.37-2.8,40.25-18.78,60.56-36.9,62.59-71.76C271.31,83.71,268.3,66.58,253.34,61.73Z" transform="translate(-2.02 -24.23)"/><path class="cls-12" d="M252.51,61.23c-9-2.92-18.64-.41-26.11,5.83C211.75,53,188.51,44,162.34,44,118,44,82.08,70,82.08,102.07c0,10.81,4.08,20.92,11.18,29.59a.94.94,0,0,0,.1.23c13.55,17.54,36.69,26.86,59.67,32.18,5.95,1.37-15.55,5.07-12.57,11.88,4.89,11.17,45.41,7,66.37-2.8,40.25-18.78,60.56-36.9,62.59-71.76C270.47,83.21,267.47,66.08,252.51,61.23Z" transform="translate(-2.02 -24.23)"/><path class="cls-13" d="M251.67,60.73c-9-2.92-18.63-.41-26.1,5.83-14.65-14-37.89-23.11-64.06-23.11-44.33,0-80.26,26-80.26,58.12,0,10.81,4.08,20.92,11.17,29.59a1,1,0,0,0,.11.23c13.54,17.54,36.69,26.86,59.67,32.18,5.94,1.37-15.55,5.07-12.58,11.88,4.9,11.17,45.42,7,66.38-2.8,40.24-18.78,60.56-36.9,62.58-71.76C269.64,82.71,266.63,65.58,251.67,60.73Z" transform="translate(-2.02 -24.23)"/><path class="cls-14" d="M250.84,60.23c-9-2.92-18.64-.41-26.1,5.83C210.08,52,186.84,43,160.67,43c-44.32,0-80.25,26-80.25,58.12,0,10.81,4.08,20.92,11.17,29.59a.94.94,0,0,0,.1.23c13.55,17.54,36.7,26.86,59.68,32.18,5.94,1.37-15.56,5.07-12.58,11.88,4.89,11.17,45.41,7,66.37-2.8,40.25-18.78,60.56-36.9,62.59-71.76C268.81,82.21,265.8,65.08,250.84,60.23Z" transform="translate(-2.02 -24.23)"/><path class="cls-15" d="M250,59.73c-9-2.92-18.64-.41-26.11,5.83-14.65-14-37.89-23.11-64.06-23.11-44.32,0-80.26,26-80.26,58.12,0,10.81,4.08,20.92,11.18,29.59a.94.94,0,0,0,.1.23c13.55,17.54,36.69,26.86,59.67,32.18,5.95,1.37-15.55,5.07-12.57,11.88,4.89,11.17,45.41,7,66.37-2.8,40.25-18.78,60.56-36.9,62.59-71.76C268,81.71,265,64.58,250,59.73Z" transform="translate(-2.02 -24.23)"/><path class="cls-16" d="M249.17,59.23c-9-2.92-18.63-.41-26.1,5.83C208.42,51,185.18,42,159,42c-44.33,0-80.26,26-80.26,58.12,0,10.81,4.08,20.92,11.17,29.59a1,1,0,0,0,.11.23c13.54,17.54,36.69,26.86,59.67,32.18,5.94,1.37-15.55,5.07-12.58,11.88,4.9,11.17,45.42,7,66.38-2.8,40.24-18.78,60.56-36.9,62.58-71.76C267.14,81.21,264.13,64.08,249.17,59.23Z" transform="translate(-2.02 -24.23)"/><path class="cls-17" d="M224.38,83.23c17,13.56,4.89,58-32.84,72-30.13,11.17-78.94-7.68-85.93-19.56C101.6,128.81,128.92,121,165,121S209.69,71.53,224.38,83.23Z" transform="translate(-2.02 -24.23)"/><path class="cls-18" d="M124.93,136.36c-11.27,3.39.47,12.88-4.88,9.4-3-2-12-6.18-12-9.4s3.79-5.82,8.46-5.82S128,135.44,124.93,136.36Z" transform="translate(-2.02 -24.23)"/><path class="cls-19" d="M202.17,118.51" transform="translate(-2.02 -24.23)"/><path class="cls-19" d="M213.82,89.2" transform="translate(-2.02 -24.23)"/><path class="cls-20" d="M213.82,89.2s6-2.82,9.4,3" transform="translate(-2.02 -24.23)"/><path class="cls-21" d="M124.75,148.83h-.13a1,1,0,0,1-.87-1.12c.43-3.34-1.5-7.79-1.52-7.83a1,1,0,0,1,1.83-.81c.09.21,2.18,5,1.68,8.9A1,1,0,0,1,124.75,148.83Z" transform="translate(-2.02 -24.23)"/><path class="cls-22" d="M136.4,151.65h-.1a1,1,0,0,1-.9-1.09,15.88,15.88,0,0,0-2.37-9.49,1,1,0,0,1,1.65-1.13,17.57,17.57,0,0,1,2.71,10.82A1,1,0,0,1,136.4,151.65Z" transform="translate(-2.02 -24.23)"/><path class="cls-23" d="M150.49,152.77a1,1,0,0,1-1-1,21.25,21.25,0,0,0-2.92-11,1,1,0,1,1,1.64-1.13,22.63,22.63,0,0,1,3.28,12.12A1,1,0,0,1,150.49,152.77Z" transform="translate(-2.02 -24.23)"/><path class="cls-24" d="M167.41,159.26l-.2,0a1,1,0,0,1-.79-1.18c.76-3.79-1.82-8.27-1.85-8.32a.86.86,0,0,1-.13-.42A25.73,25.73,0,0,0,160.12,138a1,1,0,0,1,.21-1.4,1,1,0,0,1,1.4.22,27.31,27.31,0,0,1,4.68,12.12c.55,1,2.79,5.43,2,9.52A1,1,0,0,1,167.41,159.26Z" transform="translate(-2.02 -24.23)"/><path class="cls-25" d="M179.25,147l-.18,0a1,1,0,0,1-.81-1.16c.23-1.29.7-5,.06-6.59a32.48,32.48,0,0,0-2.73-5.17,1,1,0,0,1,1.67-1.11,33.48,33.48,0,0,1,2.91,5.54c1,2.41.15,7.15.06,7.69A1,1,0,0,1,179.25,147Z" transform="translate(-2.02 -24.23)"/><path class="cls-26" d="M195.43,139.06l-1.93-.5c.4-1.55.84-4.43.34-5.54a14.9,14.9,0,0,0-4.19-5l1.18-1.62a16.8,16.8,0,0,1,4.83,5.75C196.62,134.3,195.56,138.58,195.43,139.06Z" transform="translate(-2.02 -24.23)"/><path class="cls-27" d="M207,127.85c-.25-7.3-5-8.35-5-8.36l.4-2c.26,0,6.32,1.39,6.63,10.25Z" transform="translate(-2.02 -24.23)"/><path class="cls-28" d="M216.87,118.43l-2-.4c1-4.87-6.5-9.32-6.57-9.37l1-1.72C209.71,107.15,218.12,112.16,216.87,118.43Z" transform="translate(-2.02 -24.23)"/><path class="cls-29" d="M152.94,157.85a.85.85,0,0,1-.23,0,1,1,0,0,1-.75-1.2c.5-2.13-2-4-2.06-4a1,1,0,0,1-.21-1.4,1,1,0,0,1,1.39-.21c.15.1,3.63,2.68,2.83,6.11A1,1,0,0,1,152.94,157.85Z" transform="translate(-2.02 -24.23)"/><path class="cls-30" d="M177.83,159a1.21,1.21,0,0,1-.37-.07,1,1,0,0,1-.55-1.3c1.2-3,.71-6.69-1.34-10.11a1,1,0,0,1,1.71-1c2.38,4,2.92,8.29,1.48,11.88A1,1,0,0,1,177.83,159Z" transform="translate(-2.02 -24.23)"/><path class="cls-31" d="M193.34,154.47l-.17,0a1,1,0,0,1-.82-1.15c1-6.21-3.12-11.26-3.16-11.31a1,1,0,1,1,1.53-1.29c.2.23,4.8,5.79,3.61,12.93A1,1,0,0,1,193.34,154.47Z" transform="translate(-2.02 -24.23)"/><path class="cls-32" d="M216.45,138.12a1,1,0,0,1-1-.92c-.68-8-6.42-8.95-6.48-9a1,1,0,1,1,.29-2c.07,0,7.37,1.16,8.18,10.77a1,1,0,0,1-.91,1.08Z" transform="translate(-2.02 -24.23)"/><path class="cls-33" d="M222.37,131.07a1,1,0,0,1-1-1,9.74,9.74,0,0,0-5.83-9,1,1,0,0,1,.69-1.88A11.71,11.71,0,0,1,223.37,130a1,1,0,0,1-1,1Z" transform="translate(-2.02 -24.23)"/><path class="cls-34" d="M204.33,150a1,1,0,0,1-.7-.3,1,1,0,0,1,0-1.41c2.3-2.31,2.72-2.72,1.18-6.84a28.14,28.14,0,0,0-3.52-6.78,1,1,0,0,1,.17-1.4,1,1,0,0,1,1.41.17,30.28,30.28,0,0,1,3.81,7.31c1.8,4.8,1.26,6.06-1.64,8.95A1,1,0,0,1,204.33,150Z" transform="translate(-2.02 -24.23)"/><path class="cls-35" d="M226.6,122.33a1,1,0,0,1-1-1c-.16-5-1.94-5.84-3.66-6.64a4.76,4.76,0,0,1-2.64-2.2,1,1,0,0,1,.5-1.33,1,1,0,0,1,1.32.5c.25.53.77.8,1.66,1.21,1.95.91,4.61,2.16,4.82,8.4a1,1,0,0,1-1,1Z" transform="translate(-2.02 -24.23)"/><path class="cls-36" d="M130.76,150.65s16.35,5.23,48.48-4.7c53-16.39,43.26-62.34,43.26-62.34" transform="translate(-2.02 -24.23)"/><path class="cls-20" d="M222.37,99.63s6.21,1.12,8.46,9.3" transform="translate(-2.02 -24.23)"/><path class="cls-20" d="M223.78,92.86s5.92-.56,7.61,6.77" transform="translate(-2.02 -24.23)"/><path class="cls-37" d="M224.05,82.87c7.62,6.85,9.12,20,4.64,33.58-.17.86-.17-15.49-6.93-14.93-.85-1.69-3.67-7.33-15-2.16C196.37,104.07,215,74.74,224.05,82.87Z" transform="translate(-2.02 -24.23)"/><path class="cls-38" d="M215,76.42a10.13,10.13,0,0,1,7.89-3c5.27.38,9.78,10.15,9.78,10.15" transform="translate(-2.02 -24.23)"/><path class="cls-39" d="M134.14,55.8c-3.1-2.81-7.54,4.09-12,6.63s-8.32,5.16-8.32,5.16l-.91,1.32a87.24,87.24,0,0,1,8-4.08c5-2.26,5.71-3.39,7.68-1.41.44.43.72,1.82.89,3.71a17.7,17.7,0,0,0-9.34.8,20.61,20.61,0,0,0-6.88,4.41l-.78-3.81-1,.39c2.22-1.32,16.12-10.31,16.58-14.37.71-6.16-11.09,0-11.09,0s4.2.73,1.51,4.32c-3.39,4.51-7.76,9.91-7.76,9.91l.2-.11L112,69s-2.85,11.78-3,15.73,1.55,6.24,3.38,6.38,2.49-3.89,2.49-3.89v-.15l3.18,3s-1.12-2.81,4.16-6a42.38,42.38,0,0,1,7.33-3.59c-.12,3.57-.28,6.27-.28,6.27S137.24,58.62,134.14,55.8ZM120.75,70.25a36.35,36.35,0,0,1,8.66-2.78c.13,1.62.19,3.57.2,5.6a16.27,16.27,0,0,0-7,.21,30.36,30.36,0,0,0-8.8,4.53l-.44-3.94,1.92,1.31S114.25,73.09,120.75,70.25Zm0,11.91c-2.34,1-4.79,2.37-6.13,3.13L114,79.7l3.17,2.18s-2.12-3,6.2-6.7a21.46,21.46,0,0,1,6.25-1.8c0,2.34-.05,4.76-.12,6.89C128.55,80.07,125.91,79.88,120.75,82.16Z" transform="translate(-2.02 -24.23)"/><path class="cls-40" d="M134,94.28a8.84,8.84,0,0,1-2.25,6.49s.28-2.54.28-5.92-2-3.95-2-3.95L135.92,87A13.18,13.18,0,0,0,134,94.28Z" transform="translate(-2.02 -24.23)"/><path class="cls-41" d="M144.85,90.2c3.14-1.52,6.39-2.85,8.19-3.55A103.38,103.38,0,0,1,148.8,103s10.86-15.1,7-24.81c-3.17-8.07-5.54-4.82-9.28-1.66.33-2,.54-3.54.54-4,0-2,0-7.75-4.65-7.75s-4.65,6.06-4.51,8.87c0,.84.38,3.38.84,6.52-4.74,1.55-5-.23-5.6-.47a.33.33,0,0,0-.45.25l-2,8.25a46.43,46.43,0,0,1,7.77-4.54c.25-.12.5-.2.75-.3.31,2,.63,4.15.94,6.14-3.65,1.36-5.12,2-5.12,2l.67,3.26a31.18,31.18,0,0,1,4.87-2.64c.32,2.05.59,3.8.77,4.93l-.62.1c-1.94.36-11.14,2.68-11.14,2.68A2.19,2.19,0,0,1,131,103a11,11,0,0,1-1.41,2.82s5.14-4.19,10.15-5.64c7.33-2.11,10.71-3.24,10.71-3.24a31.08,31.08,0,0,0-7.49,0c.26-1.41.68-3.73,1.16-6.39Zm1.07-9.73c3.85-1.78,6.15-2.69,7-.56a14.08,14.08,0,0,1,.23,6.11,18.57,18.57,0,0,0-6.72,1.22l-1.77.66C145.07,85.42,145.52,82.82,145.92,80.47Z" transform="translate(-2.02 -24.23)"/><polygon class="cls-42" points="154.67 33.68 153.97 36.5 162.57 32.13 162.14 36.5 163.69 36.36 163.69 29.6 154.67 33.68"/><polygon class="cls-43" points="156.51 38.2 155.94 36.36 154.67 36.64 155.38 40.87 160.17 36.93 161.05 35.81 156.51 38.2"/><polygon class="cls-44" points="162.56 42.45 165.81 40.73 163.32 40.94 162.71 37.49 159.75 39.04 157.35 40.31 157.63 42.42 159.32 40.59 161.5 39.6 160.52 42.33 155.1 43.97 155.66 46.65 156.79 45.52 159.92 43.86 161.93 44.72 159.32 47.78 163.41 45.66 163.48 43.98 161.72 43.41 162.56 42.45"/><path class="cls-45" d="M162.61,52.25l2.26-4.2-8.6-2.53,3.24,2.81-.1,4.57c-2.53.65-4.91,1.35-4.91,1.35l-2-.84L152.18,60s1.55-2.11,6.35-4.08,9-3.81,9-3.81A29.78,29.78,0,0,0,162.61,52.25Z" transform="translate(-2.02 -24.23)"/><path class="cls-46" d="M182.49,64.68c.56,3.53-7.76,5.78-6.63,2.4,4.4-13.21,6.38-16.64,3.38-19.73-3.34-3.46-3.48.63-7.36,5.4-.38-3.22-.81-5.82-.81-5.82l-4.65.7L169.24,49a40,40,0,0,1,1,5.46c-.5.49-1,1-1.62,1.45-1.27.56-1.83,0-1.83,0l.56,5.35s.15-1.83,1-2.11a31.32,31.32,0,0,1,2.08-3,46.1,46.1,0,0,1,.18,4.83c0,.58-.05,1.13-.09,1.66-.69-1-1.18-1.8-1.18-1.8L168,64s.89-.49,2.34.84a42.85,42.85,0,0,1-1,5.15,13.73,13.73,0,0,0,2.14-3.87,4.86,4.86,0,0,1,1.08,3.07c.28-1.08.75-3.29.12-3.92a9.17,9.17,0,0,1-.65-.72,13,13,0,0,0,.37-1.82,44.92,44.92,0,0,0-.28-8.36c2.19-2.28,4.16-3.26,5.07-2.35,1.41,1.41-5.71,13.75-3.1,16.91,2,2.4,10.15-1.13,10.15-1.13S182.34,63.75,182.49,64.68Z" transform="translate(-2.02 -24.23)"/><path class="cls-47" d="M176.71,74.41a109,109,0,0,1-11,4c.39-1.27.94-3.11,1.37-4.59a19.46,19.46,0,0,0,6-3.24,21.28,21.28,0,0,0-5.53,1.56c.07-.28.12-.5.14-.62a1.31,1.31,0,0,0-1.17-1.74c-.75-.14-1.18.75-1.46,1.88a14.75,14.75,0,0,0,0,1.5c-3.8,1.37-4,.28-4,.28l-1.69,4.23a40.71,40.71,0,0,1,5.75-3.13c0,1.37.08,2.93.12,4-8.1,2.31-9.59.94-9.59.94l4.14,8.46s1.41-6.48,14.66-9.3,27.06,4.51,27.06,4.51S182.31,72.08,176.71,74.41Z" transform="translate(-2.02 -24.23)"/><path class="cls-48" d="M188.81,81s0,0,0,0h0Z" transform="translate(-2.02 -24.23)"/><path class="cls-48" d="M192,81.05h0a.06.06,0,0,1,0,0S192,81,192,81.05Z" transform="translate(-2.02 -24.23)"/><path class="cls-48" d="M191.23,81a.43.43,0,0,1,0-.05S191.22,81,191.23,81Z" transform="translate(-2.02 -24.23)"/><path class="cls-48" d="M189.15,81.27l-.06-.11A.09.09,0,0,0,189.15,81.27Z" transform="translate(-2.02 -24.23)"/><path class="cls-48" d="M191.29,81.14s0-.06-.06-.1A.44.44,0,0,0,191.29,81.14Z" transform="translate(-2.02 -24.23)"/><path class="cls-48" d="M193.2,81.53a.21.21,0,0,0,0-.06s0,0,0,0Z" transform="translate(-2.02 -24.23)"/><path class="cls-48" d="M167.15,87.76c.07-.06.07-.1,0-.13A.24.24,0,0,1,167.15,87.76Z" transform="translate(-2.02 -24.23)"/><path class="cls-48" d="M168.75,86.49a.07.07,0,0,0,0,.05S168.76,86.49,168.75,86.49Z" transform="translate(-2.02 -24.23)"/><path class="cls-48" d="M167.5,86.71l0,0S167.48,86.71,167.5,86.71Z" transform="translate(-2.02 -24.23)"/><path class="cls-48" d="M176.21,79.33l-.05,0A.1.1,0,0,0,176.21,79.33Z" transform="translate(-2.02 -24.23)"/><path class="cls-48" d="M178.34,78.82h0Z" transform="translate(-2.02 -24.23)"/><path class="cls-48" d="M178.41,78.81h0Z" transform="translate(-2.02 -24.23)"/><path class="cls-48" d="M193.17,81.79c.07-.06.19,0,.22-.13l-.19-.13C193.25,81.63,193.25,81.74,193.17,81.79Z" transform="translate(-2.02 -24.23)"/><path class="cls-48" d="M172.83,83.77a.16.16,0,0,0,.08-.09l-.09.09Z" transform="translate(-2.02 -24.23)"/><polygon class="cls-48" points="171.97 58.15 171.97 58.16 171.97 58.15 171.97 58.15"/><path class="cls-48" d="M172.77,83.91V84S172.78,83.93,172.77,83.91Z" transform="translate(-2.02 -24.23)"/><path class="cls-48" d="M188.27,81.23h0Z" transform="translate(-2.02 -24.23)"/><path class="cls-48" d="M173.84,82.28l.15.1,0-.08C174,82.19,173.88,82.23,173.84,82.28Z" transform="translate(-2.02 -24.23)"/><path class="cls-48" d="M172.77,83.91a.22.22,0,0,1,0-.14l-.08,0C172.63,83.79,172.73,83.86,172.77,83.91Z" transform="translate(-2.02 -24.23)"/><path class="cls-49" d="M166.79,87.49c.11,0-.09.28.08.23l.1-.26c0,.09.16.12.22.17,0-.18-.37-.11-.27-.42,0-.12.15-.19.24-.21-.19.07-.08-.13-.06-.23s.25-.14.36-.09,0-.11.1-.13l0,0c.07-.13-.07,0-.08-.08s.25-.09.35-.2a1,1,0,0,0-.19.38c.27-.12.16.25.18.41a2.17,2.17,0,0,0,.22-.55c.26-.08.27.31.24.36a2.4,2.4,0,0,0,.16-.61,4.56,4.56,0,0,1,.14.52c.21,0,.13-.17.12-.28,0,0-.06.11-.1.09.15-.13-.11-.34-.15-.51.16,0,.36-.2.5-.06l-.16-.14c.07-.15.14,0,.21,0-.07-.14-.27-.23-.14-.45.22.26.17-.15.39.06.07-.1,0-.26.08-.32s.19.42.1.44-.09-.11-.13-.06l0,.18c.11,0,.29-.1.38,0,.06-.17-.2,0-.14-.19l.13,0c.06-.18-.2-.13-.08-.32,0,.21.16-.18.32,0-.2-.21.24-.3.11-.5l-.13,0,.11.07c-.08.1-.1.22-.22.29,0-.15-.2-.14-.18-.29s.15.06.17,0v-.23h-.17a1.14,1.14,0,0,1,.34-.4c.32-.07.09.13.34.12,0-.11,0-.15.07-.22-.11,0-.07.11-.11.13s.11-.21,0-.33c.08,0,.12.08.14.16.11-.19.29-.3.49-.17l-.07-.23c.33-.16-.06.31.25.23.11,0,.2-.12.19-.23l-.09.06c0-.15-.05-.21,0-.35s.13.11.15,0c.31,0,.25.23.33.42.22,0,.15.4.2.25l-.05,0c0-.12,0-.23,0-.34-.29-.11.06.22-.14.06l-.1,0c0-.12.23-.18.18-.32,0,.06.1.22,0,.29l.2.19c.07,0,0-.18.11-.1s0,.31.26.25.07-.36.25-.39c0,0-.09,0-.14,0s-.12-.13-.06-.23c.14.14.3,0,.42,0,0,.1.13.15.12.22a.23.23,0,0,0,.09-.19c-.32,0,.21-.25-.07-.33.22-.08.33.06.49.1s-.2.2,0,.2c.15-.27-.13-.24,0-.52h-.16c-.1-.21.23-.16.25-.22s-.11.11,0,.22.18-.15.29-.1a1.17,1.17,0,0,1-.05.27c.31-.1,0,.18.31.2.06,0,0-.17.11-.17-.12-.14-.13-.2-.33-.14,0-.26.28,0,.38-.21-.12,0-.05,0-.16,0-.08-.19-.14-.2-.07-.42-.13.09-.12.32-.33.32-.12-.18.19-.22.11-.49s.34-.12.47-.06c.16-.21.4-.27.51-.54.16,0,.49-.27.8-.24.06.11.37,0,.21.17,0,0,.26-.1.17-.2s-.05,0-.1,0l0-.15c.15,0,.28-.18.43-.12s-.24.12-.13.25a.85.85,0,0,1,.79-.37c.12,0,.16.2.21.21l.19,0a1.13,1.13,0,0,0,.09.2c.1,0,.15,0,.2-.08.27.09.15.26.05.4l-.15,0c-.09.1-.24.09-.13.24.07,0,.06-.1.07-.14l.1.09c.07-.09.29-.15.25-.28.18.07.35-.07.51,0-.11-.07,0-.14,0-.24l-.18,0c.14,0,.33-.18.47-.11s0,.12.07.19c-.11-.1.23-.18,0-.3a.33.33,0,0,1-.24.08c-.09-.17.07-.21.15-.32l.46-.21c.09,0,.14.24.29.1-.22-.15.17-.3.21-.48.17.06.25-.17.38,0-.06.07-.3.08-.35.22s.08.34-.15.42c.29,0,.16-.12.28-.18l-.09,0s-.05-.14,0-.15c.34,0,.41.15.64.29-.06-.08,0-.18.09-.19.23.11,0,.27.16.46.06-.12.21-.09.16-.18s0,0,.1.08a.25.25,0,0,1,.23-.17c0,.06,0,.14-.13.11a.29.29,0,0,1,.12.35l-.2-.07c-.09.13.19,0,.18.18s-.15,0-.21,0,.23,0,.33,0,.11.16.11.23c.27-.23-.32-.24-.07-.45.1-.16.35-.15.52-.19-.15-.17,0-.26.2-.31-.24,0-.06-.21-.34-.09v-.14a2.66,2.66,0,0,1,.39.07s0,.07,0,.09l.35,0,0,.09c.21,0,.48.14.61.09-.11,0-.19-.13-.08-.17a.44.44,0,0,1,.29-.11c0,.17.41.2.17.35.3-.06.2-.1.5-.17l-.2,0c0-.13.17-.34,0-.44.23-.06.11-.31.42-.31.11.1-.07.27-.24.28.08,0,.15.1.25,0,0,.11-.18.18-.18.22.16,0,0-.07.16-.09s.13.23.39.17c-.06,0-.14-.06-.07-.11.32.05.2-.1.45-.13.1.21,0,.4.21.48l-.12,0a.34.34,0,0,0,.24.18,11.59,11.59,0,0,1,1.38-.32h-.17c0-.08.15,0,.17-.12l.08.12c.07-.13-.2-.2-.1-.31a.08.08,0,0,0,.07,0l-.09-.07c.2.1.44-.08.54.18-.42-.1-.18.37-.6.32.23,0,0,.16,0,.22s.08-.09.19,0-.32.1-.22.21c.06-.15.16-.09.24-.17s0,.09,0,.15.1,0,.13,0l-.06.08c.21.2.12-.12.4,0,0-.12,0-.12-.18-.13,0-.29.47-.18.54-.47.29,0-.11.08.1.24.06.23-.24.13-.34.24l.2.2c-.16.2-.28.08-.39.28.17.06.17,0,.37,0-.22-.28.18-.1.09-.38.11.1,0,.14.25.21-.14,0-.08.18-.24.13.27.08.22,0,.48.08.15-.13-.18-.31.18-.31.07,0,0,.08,0,.06.2.16,0-.22.21-.24s.12.1.06.12c.18,0,.15-.17.26-.16l0,0c.07,0,0-.31.26-.23s.07.14.06.19a.32.32,0,0,1,.28.17s0-.06.06,0c.23,0,.06.19.12.24.26.21.1-.31.43-.17l-.36-.22c0-.07.11-.18,0-.22a.26.26,0,0,1-.36.08c0-.15.41,0,.26-.24.07.06.19.07.28.12-.16.1.29.17,0,.26.44.15.45.27.87.34-.08.07-.42.19-.58,0l0-.08c-.29,0,.15.18,0,.29.4-.08.61.42,1,.5,0-.1.07-.11.12-.18-.16-.05-.14,0-.21-.15s.14,0,.22-.06-.11,0-.13-.14a.37.37,0,0,0,.28-.07,1.51,1.51,0,0,1,0,.3c.33.18.38,0,.64.12-.14-.09,0,.14-.13,0l.08,0c-.3.06-.71-.14-.79.15.21.06.41,0,.65.08l0,0c.16.09,0-.06.09-.09.22,0,.13.36.34.23l-.17-.13c.19,0,0,0,.07-.2.32,0,.73.25,1.14.26a.37.37,0,0,0-.23-.21c.16-.22.2-.16.22-.4l-.16-.08.09-.22a.21.21,0,0,1,.11.08c.08-.14.23.14.29,0l-.14,0c0-.14.13-.07.24-.07,0-.18-.29-.11-.49-.17,0,.08-.28.18-.1.27,0,.09-.17.09-.25.07s0-.31.16-.31c-.21,0-.07,0-.28,0,0-.05-.33-.14-.22-.33-.1.06-.13.29-.35.2,0,.16.23.29,0,.36l.15,0c.12.13-.11.12.07.27-.05,0-.21,0-.19-.12-.08.3-.36,0-.47.2,0-.1-.06-.14-.19-.17.05-.07,0-.17.14-.18s.13,0,.18.15c.08-.3-.25-.22-.42-.37,0,0,0,.06-.06.08s-.32-.26-.19-.36l-.61-.25c0-.06.1,0,.14,0l-.33-.16c0-.13.16,0,.23-.11l-.25-.1.08-.07c-.09,0-.39-.08-.4-.25-.29-.08-.42.21-.75-.08.07-.14.24,0,.37,0-.05-.08-.33-.07-.31-.23-.32,0-.39.24-.58.33-.23-.08,0-.14,0-.18s-.28.19-.27,0c-.15.07-.26.17-.11.28a.49.49,0,0,0-.38,0c.18-.18-.11-.13-.06-.32-.17-.11-.59-.28-.83-.1l.12-.23-.23,0c-.13-.19.24-.09.36-.07a4.21,4.21,0,0,0-.8-.23c.07.07,0,.11,0,.2s-.24,0-.34,0,0-.11.1-.11H186c.06-.15,0-.17.18-.23H186c-.19-.09,0-.13.1-.17l-.31-.09c-.13,0,0,.14-.19.14a3.16,3.16,0,0,0-1-.29l.22.18c-.2-.07-.19.18-.27.27a4,4,0,0,1-.57-.14c.19-.1.14-.29,0-.41-.38-.06-.31.22-.53.29.19-.29-.25-.13-.2-.3-.48,0-1,.09-1.45.07,0,0,.15.09.06.14a.24.24,0,0,1-.29-.14.62.62,0,0,0-.43.22c.1,0,.11,0,.09.1-.22,0-.17-.18-.38,0-.06-.16.24-.09.21-.25a.83.83,0,0,0-.47.16c0-.11.14,0,0-.12-.31.08-.67.22-.9.29l-.07-.13a.44.44,0,0,0-.3.13c-.09,0,0-.09.05-.11a2.5,2.5,0,0,0-.55.15c0-.08.11,0,.14-.09-.25,0-.53.29-.71.13a.09.09,0,0,1,.06,0c-.36,0-.67.17-1.05.24-.39-.12-.09.23-.45.25-.06-.37-.47.06-.63,0l0,0c-.14.18-.4.09-.54,0a1.62,1.62,0,0,0-.88.29l0-.09c-.19.13-.36.06-.56.2,0,0,.07-.09,0-.09a10.23,10.23,0,0,0-3.18,1.19,9.73,9.73,0,0,0-2.9,2.05c-.84.86-1.44,1.75-1.93,2.31,0,0,.11.41.19.91A3.42,3.42,0,0,0,166.79,87.49Z" transform="translate(-2.02 -24.23)"/><path class="cls-48" d="M188,81.35h0Z" transform="translate(-2.02 -24.23)"/><path class="cls-48" d="M183.58,80.17a.16.16,0,0,0,.07,0Z" transform="translate(-2.02 -24.23)"/><path class="cls-48" d="M179.7,80.68l.08,0Z" transform="translate(-2.02 -24.23)"/><path class="cls-48" d="M174.12,82.27c.06.09,0,.32.11.37.42-.1.08-.45.53-.53l-.25-.06c.05.18-.08.31-.25.37l-.09-.12a.75.75,0,0,1,.07-.12C174.17,82.18,174.21,82.28,174.12,82.27Z" transform="translate(-2.02 -24.23)"/><path class="cls-48" d="M174.26,82.18h0Z" transform="translate(-2.02 -24.23)"/><path class="cls-50" d="M224.38,83.23c17,13.56,4.89,58-32.84,72-30.13,11.17-78.94-7.68-85.93-19.56" transform="translate(-2.02 -24.23)"/><path class="cls-51" d="M213.82,81.3c6.29,45.41-50,59.32-77.25,58.9C63.28,139.07-36,70.33,19.89,41.69,67.34,17.37,79.6,77.83,135.87,106c11.18,5.58,22.36,8.38,29.34,1.39" transform="translate(-2.02 -24.23)"/><path class="cls-52" d="M29.3,55.17c0,3.87-9.23,8.47-12,8.47a6.27,6.27,0,0,1-6.39-7.52c.75-4.32,6.07-8.64,11.2-8.64S29.3,51.3,29.3,55.17Z" transform="translate(-2.02 -24.23)"/></svg>