<svg xmlns="http://www.w3.org/2000/svg" xmlns:xlink="http://www.w3.org/1999/xlink" viewBox="0 0 300.04 200"><defs><style>.cls-1,.cls-24,.cls-25,.cls-27,.cls-37,.cls-6{fill:none;}.cls-2{fill:#dae000;}.cls-3{fill:#b9bf00;}.cls-4{fill:#d3d800;}.cls-5{fill:#e72923;}.cls-6{stroke:#7b7a7b;}.cls-10,.cls-11,.cls-12,.cls-13,.cls-14,.cls-15,.cls-150,.cls-16,.cls-17,.cls-18,.cls-19,.cls-20,.cls-21,.cls-22,.cls-24,.cls-26,.cls-27,.cls-35,.cls-37,.cls-6{stroke-miterlimit:10;}.cls-37,.cls-6{stroke-width:0.25px;}.cls-26,.cls-7{fill:#b9baba;}.cls-8{isolation:isolate;}.cls-148,.cls-9{fill:#fff;}.cls-10{fill:#8a7d1d;stroke:#8a7d1d;}.cls-11{stroke-width:1.08px;stroke:url(#名称未設定グラデーション_688);}.cls-11,.cls-12,.cls-13,.cls-14,.cls-15,.cls-16,.cls-17,.cls-18,.cls-19,.cls-20,.cls-21,.cls-22{fill:url(#新規パターンスウォッチ_1);}.cls-12{stroke-width:1.17px;stroke:url(#名称未設定グラデーション_687);}.cls-13{stroke-width:1.25px;stroke:url(#名称未設定グラデーション_686);}.cls-14{stroke-width:1.33px;stroke:url(#名称未設定グラデーション_685);}.cls-15{stroke-width:1.42px;stroke:url(#名称未設定グラデーション_684);}.cls-16{stroke-width:1.5px;stroke:url(#名称未設定グラデーション_683);}.cls-17{stroke-width:1.58px;stroke:url(#名称未設定グラデーション_682);}.cls-18{stroke-width:1.67px;stroke:url(#名称未設定グラデーション_681);}.cls-19{stroke-width:1.75px;stroke:url(#名称未設定グラデーション_680);}.cls-20{stroke-width:1.83px;stroke:url(#名称未設定グラデーション_679);}.cls-21{stroke-width:1.92px;stroke:url(#名称未設定グラデーション_678);}.cls-22{stroke-width:2px;stroke:url(#名称未設定グラデーション_4535);}.cls-23{mix-blend-mode:saturation;fill:url(#名称未設定グラデーション_5881);}.cls-24{stroke-width:0.75px;stroke:url(#名称未設定グラデーション_5874);}.cls-100,.cls-101,.cls-102,.cls-103,.cls-104,.cls-105,.cls-106,.cls-107,.cls-108,.cls-109,.cls-110,.cls-111,.cls-112,.cls-113,.cls-114,.cls-115,.cls-116,.cls-117,.cls-118,.cls-119,.cls-120,.cls-121,.cls-122,.cls-123,.cls-124,.cls-125,.cls-126,.cls-127,.cls-128,.cls-129,.cls-130,.cls-131,.cls-132,.cls-133,.cls-134,.cls-135,.cls-136,.cls-137,.cls-138,.cls-139,.cls-140,.cls-141,.cls-142,.cls-143,.cls-144,.cls-145,.cls-146,.cls-147,.cls-25,.cls-28,.cls-29,.cls-30,.cls-31,.cls-32,.cls-33,.cls-34,.cls-36,.cls-37,.cls-38,.cls-39,.cls-40,.cls-41,.cls-42,.cls-43,.cls-44,.cls-45,.cls-46,.cls-47,.cls-48,.cls-49,.cls-50,.cls-51,.cls-52,.cls-53,.cls-54,.cls-55,.cls-56,.cls-57,.cls-58,.cls-59,.cls-60,.cls-61,.cls-62,.cls-63,.cls-64,.cls-65,.cls-66,.cls-67,.cls-68,.cls-69,.cls-70,.cls-71,.cls-72,.cls-73,.cls-74,.cls-75,.cls-76,.cls-77,.cls-78,.cls-79,.cls-80,.cls-81,.cls-82,.cls-83,.cls-84,.cls-85,.cls-86,.cls-87,.cls-88,.cls-89,.cls-90,.cls-91,.cls-92,.cls-93,.cls-94,.cls-95,.cls-96,.cls-97,.cls-98,.cls-99{stroke-linecap:round;}.cls-100,.cls-101,.cls-102,.cls-103,.cls-104,.cls-105,.cls-106,.cls-107,.cls-108,.cls-109,.cls-110,.cls-111,.cls-112,.cls-113,.cls-114,.cls-115,.cls-116,.cls-117,.cls-118,.cls-119,.cls-120,.cls-121,.cls-122,.cls-123,.cls-124,.cls-125,.cls-126,.cls-127,.cls-128,.cls-129,.cls-130,.cls-131,.cls-132,.cls-133,.cls-134,.cls-135,.cls-136,.cls-137,.cls-138,.cls-139,.cls-140,.cls-141,.cls-142,.cls-143,.cls-144,.cls-145,.cls-146,.cls-147,.cls-25,.cls-28,.cls-29,.cls-30,.cls-31,.cls-32,.cls-33,.cls-34,.cls-36,.cls-38,.cls-39,.cls-40,.cls-41,.cls-42,.cls-43,.cls-44,.cls-45,.cls-46,.cls-47,.cls-48,.cls-49,.cls-50,.cls-51,.cls-52,.cls-53,.cls-54,.cls-55,.cls-56,.cls-57,.cls-58,.cls-59,.cls-60,.cls-61,.cls-62,.cls-63,.cls-64,.cls-65,.cls-66,.cls-67,.cls-68,.cls-69,.cls-70,.cls-71,.cls-72,.cls-73,.cls-74,.cls-75,.cls-76,.cls-77,.cls-78,.cls-79,.cls-80,.cls-81,.cls-82,.cls-83,.cls-84,.cls-85,.cls-86,.cls-87,.cls-88,.cls-89,.cls-90,.cls-91,.cls-92,.cls-93,.cls-94,.cls-95,.cls-96,.cls-97,.cls-98,.cls-99{stroke-linejoin:round;}.cls-25{stroke:url(#名称未設定グラデーション_5879);}.cls-26,.cls-27,.cls-28,.cls-29,.cls-30,.cls-31,.cls-32,.cls-33{stroke:#231815;}.cls-100,.cls-101,.cls-102,.cls-103,.cls-104,.cls-105,.cls-106,.cls-107,.cls-108,.cls-109,.cls-110,.cls-111,.cls-112,.cls-113,.cls-114,.cls-115,.cls-116,.cls-117,.cls-118,.cls-119,.cls-120,.cls-121,.cls-122,.cls-123,.cls-124,.cls-125,.cls-126,.cls-127,.cls-128,.cls-129,.cls-130,.cls-131,.cls-132,.cls-133,.cls-134,.cls-135,.cls-136,.cls-137,.cls-138,.cls-139,.cls-140,.cls-141,.cls-142,.cls-143,.cls-144,.cls-145,.cls-146,.cls-147,.cls-26,.cls-28,.cls-29,.cls-30,.cls-31,.cls-32,.cls-33,.cls-34,.cls-35,.cls-36,.cls-38,.cls-39,.cls-40,.cls-41,.cls-42,.cls-43,.cls-44,.cls-45,.cls-46,.cls-47,.cls-48,.cls-49,.cls-50,.cls-51,.cls-52,.cls-53,.cls-54,.cls-55,.cls-56,.cls-57,.cls-58,.cls-59,.cls-60,.cls-61,.cls-62,.cls-63,.cls-64,.cls-65,.cls-66,.cls-67,.cls-68,.cls-69,.cls-70,.cls-71,.cls-72,.cls-73,.cls-74,.cls-75,.cls-76,.cls-77,.cls-78,.cls-79,.cls-80,.cls-81,.cls-82,.cls-83,.cls-84,.cls-85,.cls-86,.cls-87,.cls-88,.cls-89,.cls-90,.cls-91,.cls-92,.cls-93,.cls-94,.cls-95,.cls-96,.cls-97,.cls-98,.cls-99{stroke-width:0.5px;}.cls-28{fill:url(#新規グラデーションスウォッチ_5);}.cls-29{fill:url(#新規グラデーションスウォッチ_5-2);}.cls-30{fill:url(#新規パターンスウォッチ_2);}.cls-31{fill:url(#新規パターンスウォッチ_3);}.cls-32{fill:url(#新規グラデーションスウォッチ_5-3);}.cls-33{fill:url(#新規グラデーションスウォッチ_5-4);}.cls-147,.cls-34,.cls-35,.cls-36,.cls-37{stroke:#736d21;}.cls-34{fill:url(#名称未設定グラデーション_45);}.cls-35{fill:url(#名称未設定グラデーション_49);}.cls-36{fill:url(#名称未設定グラデーション_45-2);}.cls-100,.cls-101,.cls-102,.cls-103,.cls-104,.cls-105,.cls-106,.cls-107,.cls-108,.cls-109,.cls-110,.cls-111,.cls-112,.cls-113,.cls-114,.cls-115,.cls-116,.cls-117,.cls-118,.cls-119,.cls-120,.cls-121,.cls-122,.cls-123,.cls-124,.cls-125,.cls-126,.cls-127,.cls-128,.cls-129,.cls-130,.cls-131,.cls-132,.cls-133,.cls-134,.cls-135,.cls-136,.cls-137,.cls-138,.cls-139,.cls-140,.cls-141,.cls-142,.cls-143,.cls-144,.cls-145,.cls-146,.cls-38,.cls-39,.cls-40,.cls-41,.cls-42,.cls-43,.cls-44,.cls-45,.cls-46,.cls-47,.cls-48,.cls-49,.cls-50,.cls-51,.cls-52,.cls-53,.cls-54,.cls-55,.cls-56,.cls-57,.cls-58,.cls-59,.cls-60,.cls-61,.cls-62,.cls-63,.cls-64,.cls-65,.cls-66,.cls-67,.cls-68,.cls-69,.cls-70,.cls-71,.cls-72,.cls-73,.cls-74,.cls-75,.cls-76,.cls-77,.cls-78,.cls-79,.cls-80,.cls-81,.cls-82,.cls-83,.cls-84,.cls-85,.cls-86,.cls-87,.cls-88,.cls-89,.cls-90,.cls-91,.cls-92,.cls-93,.cls-94,.cls-95,.cls-96,.cls-97,.cls-98,.cls-99{fill:#eb6151;}.cls-38{stroke:#923656;}.cls-39{stroke:#933656;}.cls-40{stroke:#943756;}.cls-41{stroke:#943757;}.cls-42{stroke:#953857;}.cls-43{stroke:#963857;}.cls-44{stroke:#973957;}.cls-45{stroke:#983958;}.cls-46{stroke:#983a58;}.cls-47{stroke:#993a58;}.cls-48{stroke:#9a3a58;}.cls-49{stroke:#9b3b59;}.cls-50{stroke:#9c3c59;}.cls-51{stroke:#9d3c59;}.cls-52{stroke:#9e3c59;}.cls-53{stroke:#9e3d5a;}.cls-54{stroke:#9f3d5a;}.cls-55{stroke:#a03e5a;}.cls-56{stroke:#a13e5a;}.cls-57{stroke:#a23f5a;}.cls-58{stroke:#a33f5b;}.cls-59{stroke:#a4405b;}.cls-60{stroke:#a5405b;}.cls-61{stroke:#a6415b;}.cls-62{stroke:#a7415b;}.cls-63{stroke:#a8425c;}.cls-64{stroke:#a9425c;}.cls-65{stroke:#a9435c;}.cls-66{stroke:#aa435c;}.cls-67{stroke:#ab435c;}.cls-68{stroke:#ac445c;}.cls-69{stroke:#ad445c;}.cls-70{stroke:#ae455c;}.cls-71{stroke:#ae455d;}.cls-72{stroke:#af465d;}.cls-73{stroke:#b0465d;}.cls-74{stroke:#b1465d;}.cls-75{stroke:#b1475d;}.cls-76{stroke:#b2475d;}.cls-77{stroke:#b3475d;}.cls-78{stroke:#b3485d;}.cls-79{stroke:#b4485d;}.cls-80{stroke:#b5485d;}.cls-81{stroke:#b5495d;}.cls-82{stroke:#b6495d;}.cls-83{stroke:#b7495d;}.cls-84{stroke:#b84a5d;}.cls-85{stroke:#b94a5d;}.cls-86{stroke:#ba4b5d;}.cls-87{stroke:#bb4b5d;}.cls-88{stroke:#bc4c5d;}.cls-89{stroke:#bd4c5d;}.cls-90{stroke:#be4d5d;}.cls-91{stroke:#bf4d5d;}.cls-92{stroke:#c04e5d;}.cls-93{stroke:#c14e5d;}.cls-94{stroke:#c24f5d;}.cls-95{stroke:#c34f5d;}.cls-96{stroke:#c4505d;}.cls-97{stroke:#c5505d;}.cls-98{stroke:#c5505c;}.cls-99{stroke:#c6505c;}.cls-100{stroke:#c7515c;}.cls-101{stroke:#c8515c;}.cls-102{stroke:#c9525c;}.cls-103{stroke:#ca525c;}.cls-104{stroke:#cb535c;}.cls-105{stroke:#cc535c;}.cls-106{stroke:#cd545c;}.cls-107{stroke:#cd545b;}.cls-108{stroke:#ce545b;}.cls-109{stroke:#cf555b;}.cls-110{stroke:#d0555b;}.cls-111{stroke:#d1555b;}.cls-112{stroke:#d1565b;}.cls-113{stroke:#d2565b;}.cls-114{stroke:#d3565a;}.cls-115{stroke:#d3575a;}.cls-116{stroke:#d4575a;}.cls-117{stroke:#d5575a;}.cls-118{stroke:#d5585a;}.cls-119{stroke:#d6585a;}.cls-120{stroke:#d75859;}.cls-121{stroke:#d85959;}.cls-122{stroke:#d95959;}.cls-123{stroke:#da5a59;}.cls-124{stroke:#db5a58;}.cls-125{stroke:#dc5a58;}.cls-126{stroke:#dc5b58;}.cls-127{stroke:#dd5b58;}.cls-128{stroke:#de5b57;}.cls-129{stroke:#de5c57;}.cls-130{stroke:#df5c57;}.cls-131{stroke:#e05c57;}.cls-132{stroke:#e05c56;}.cls-133{stroke:#e15d56;}.cls-134{stroke:#e25d56;}.cls-135{stroke:#e35d56;}.cls-136{stroke:#e35e55;}.cls-137{stroke:#e45e55;}.cls-138{stroke:#e55e55;}.cls-139{stroke:#e55f55;}.cls-140{stroke:#e65f54;}.cls-141{stroke:#e75f54;}.cls-142{stroke:#e86053;}.cls-143{stroke:#e96053;}.cls-144{stroke:#ea6152;}.cls-145{stroke:#eb6152;}.cls-146{stroke:#eb6151;}.cls-147{fill:url(#名称未設定グラデーション_50);}.cls-148{mix-blend-mode:overlay;}.cls-149,.cls-151{fill:#231815;}.cls-150{fill:#e60012;stroke:#e60012;}.cls-151{font-size:7px;font-family:KozGoPr6N-Regular-83pv-RKSJ-H, Kozuka Gothic Pr6N;}.cls-152{letter-spacing:-0.5em;}</style><pattern id="新規パターンスウォッチ_1" data-name="新規パターンスウォッチ 1" width="5.49" height="5.49" patternUnits="userSpaceOnUse" viewBox="0 0 5.49 5.49"><rect class="cls-1" width="5.49" height="5.49"/><rect class="cls-2" width="5.49" height="5.49"/><rect class="cls-3" y="1.63" width="5.45" height="0.5"/><rect class="cls-2" width="5.49" height="5.49"/><rect class="cls-4" y="1.64" width="5.45" height="0.25"/><rect class="cls-4" y="3.58" width="5.45" height="0.25"/><rect class="cls-4" x="3.57" y="0.01" width="0.25" height="5.46"/><rect class="cls-4" x="1.64" y="0.01" width="0.25" height="5.46"/></pattern><linearGradient id="名称未設定グラデーション_688" x1="3.86" y1="93.72" x2="176.24" y2="93.72" gradientUnits="userSpaceOnUse"><stop offset="0" stop-color="#8e8020"/><stop offset="0.1" stop-color="#918321"/><stop offset="0.21" stop-color="#8c7f1e"/><stop offset="0.29" stop-color="#938520"/><stop offset="0.38" stop-color="#8c7e18"/><stop offset="0.57" stop-color="#938429"/><stop offset="0.65" stop-color="#8c7e21"/><stop offset="0.75" stop-color="#90811c"/><stop offset="0.82" stop-color="#8c7e19"/><stop offset="0.94" stop-color="#91831e"/></linearGradient><linearGradient id="名称未設定グラデーション_687" x1="3.81" y1="94.08" x2="176.79" y2="94.08" gradientUnits="userSpaceOnUse"><stop offset="0" stop-color="#918324"/><stop offset="0.1" stop-color="#988a27"/><stop offset="0.21" stop-color="#8e8121"/><stop offset="0.29" stop-color="#9b8e25"/><stop offset="0.38" stop-color="#8c7f13"/><stop offset="0.57" stop-color="#9b8c36"/><stop offset="0.65" stop-color="#8e7f26"/><stop offset="0.75" stop-color="#96861d"/><stop offset="0.82" stop-color="#8e7f13"/><stop offset="0.94" stop-color="#978921"/></linearGradient><linearGradient id="名称未設定グラデーション_686" x1="3.76" y1="94.45" x2="177.35" y2="94.45" gradientUnits="userSpaceOnUse"><stop offset="0" stop-color="#928529"/><stop offset="0.1" stop-color="#9e902d"/><stop offset="0.21" stop-color="#8e8325"/><stop offset="0.29" stop-color="#a3972b"/><stop offset="0.38" stop-color="#8b7f0e"/><stop offset="0.57" stop-color="#a39443"/><stop offset="0.65" stop-color="#8e802a"/><stop offset="0.75" stop-color="#9b8b1e"/><stop offset="0.76" stop-color="#99891b"/><stop offset="0.82" stop-color="#8e800e"/><stop offset="0.94" stop-color="#9c8f25"/></linearGradient><linearGradient id="名称未設定グラデーション_685" x1="3.7" y1="94.82" x2="177.9" y2="94.82" gradientUnits="userSpaceOnUse"><stop offset="0" stop-color="#94882e"/><stop offset="0.1" stop-color="#a49733"/><stop offset="0.21" stop-color="#8e8328"/><stop offset="0.29" stop-color="#aca031"/><stop offset="0.38" stop-color="#8a7e08"/><stop offset="0.57" stop-color="#ab9c50"/><stop offset="0.65" stop-color="#8e812f"/><stop offset="0.75" stop-color="#a08f1f"/><stop offset="0.78" stop-color="#988814"/><stop offset="0.82" stop-color="#8e8007"/><stop offset="0.94" stop-color="#a29529"/></linearGradient><linearGradient id="名称未設定グラデーション_684" x1="3.65" y1="95.18" x2="178.46" y2="95.18" gradientUnits="userSpaceOnUse"><stop offset="0" stop-color="#958933"/><stop offset="0.1" stop-color="#aa9e3a"/><stop offset="0.21" stop-color="#8d842b"/><stop offset="0.29" stop-color="#b4a938"/><stop offset="0.38" stop-color="#877c02"/><stop offset="0.57" stop-color="#b4a55f"/><stop offset="0.59" stop-color="#ab9c55"/><stop offset="0.65" stop-color="#8d8034"/><stop offset="0.75" stop-color="#a59421"/><stop offset="0.79" stop-color="#97880d"/><stop offset="0.82" stop-color="#8e7f00"/><stop offset="0.94" stop-color="#a79b2d"/></linearGradient><linearGradient id="名称未設定グラデーション_683" x1="3.6" y1="95.55" x2="179.01" y2="95.55" gradientUnits="userSpaceOnUse"><stop offset="0" stop-color="#958a37"/><stop offset="0.1" stop-color="#b0a441"/><stop offset="0.21" stop-color="#8b832e"/><stop offset="0.29" stop-color="#bdb23f"/><stop offset="0.38" stop-color="#837900"/><stop offset="0.57" stop-color="#bcae6e"/><stop offset="0.6" stop-color="#a99c59"/><stop offset="0.65" stop-color="#8c8038"/><stop offset="0.66" stop-color="#8f8236"/><stop offset="0.75" stop-color="#a99823"/><stop offset="0.79" stop-color="#98880d"/><stop offset="0.82" stop-color="#8d7e00"/><stop offset="0.94" stop-color="#ada132"/></linearGradient><linearGradient id="名称未設定グラデーション_682" x1="3.54" y1="95.92" x2="179.57" y2="95.92" gradientUnits="userSpaceOnUse"><stop offset="0" stop-color="#948b3c"/><stop offset="0.1" stop-color="#b6ab49"/><stop offset="0.21" stop-color="#898230"/><stop offset="0.29" stop-color="#c6bc46"/><stop offset="0.38" stop-color="#7f7500"/><stop offset="0.57" stop-color="#c5b77e"/><stop offset="0.61" stop-color="#a79b5d"/><stop offset="0.65" stop-color="#8a7f3c"/><stop offset="0.68" stop-color="#948736"/><stop offset="0.75" stop-color="#ae9d25"/><stop offset="0.79" stop-color="#98890d"/><stop offset="0.82" stop-color="#8b7d00"/><stop offset="0.94" stop-color="#b3a737"/></linearGradient><linearGradient id="名称未設定グラデーション_681" x1="3.49" y1="96.28" x2="180.13" y2="96.28" gradientUnits="userSpaceOnUse"><stop offset="0" stop-color="#938b40"/><stop offset="0.1" stop-color="#bcb251"/><stop offset="0.21" stop-color="#868032"/><stop offset="0.29" stop-color="#cfc64e"/><stop offset="0.38" stop-color="#7a7000"/><stop offset="0.57" stop-color="#cec08e"/><stop offset="0.62" stop-color="#a59960"/><stop offset="0.65" stop-color="#887d3f"/><stop offset="0.69" stop-color="#988b36"/><stop offset="0.75" stop-color="#b2a128"/><stop offset="0.79" stop-color="#95870d"/><stop offset="0.82" stop-color="#887b00"/><stop offset="0.94" stop-color="#b8ad3c"/></linearGradient><linearGradient id="名称未設定グラデーション_680" x1="3.43" y1="96.65" x2="180.68" y2="96.65" gradientUnits="userSpaceOnUse"><stop offset="0" stop-color="#928a43"/><stop offset="0.1" stop-color="#c2b859"/><stop offset="0.21" stop-color="#837e34"/><stop offset="0.29" stop-color="#d8d056"/><stop offset="0.38" stop-color="#736b00"/><stop offset="0.57" stop-color="#d6ca9f"/><stop offset="0.62" stop-color="#a29763"/><stop offset="0.65" stop-color="#857b42"/><stop offset="0.7" stop-color="#9d9036"/><stop offset="0.75" stop-color="#b7a62a"/><stop offset="0.76" stop-color="#b6a529"/><stop offset="0.8" stop-color="#92840b"/><stop offset="0.82" stop-color="#857800"/><stop offset="0.94" stop-color="#bdb341"/></linearGradient><linearGradient id="名称未設定グラデーション_679" x1="3.37" y1="97.02" x2="181.24" y2="97.02" gradientUnits="userSpaceOnUse"><stop offset="0" stop-color="#908947"/><stop offset="0.1" stop-color="#c8bf61"/><stop offset="0.21" stop-color="#7f7b36"/><stop offset="0.29" stop-color="#e2db5f"/><stop offset="0.38" stop-color="#6c6400"/><stop offset="0.57" stop-color="#e0d4b0"/><stop offset="0.63" stop-color="#9e9465"/><stop offset="0.65" stop-color="#817844"/><stop offset="0.71" stop-color="#a19437"/><stop offset="0.75" stop-color="#bbaa2d"/><stop offset="0.76" stop-color="#b3a226"/><stop offset="0.8" stop-color="#8f810b"/><stop offset="0.82" stop-color="#827500"/><stop offset="0.94" stop-color="#c3b947"/></linearGradient><linearGradient id="名称未設定グラデーション_678" x1="3.32" y1="97.38" x2="181.8" y2="97.38" gradientUnits="userSpaceOnUse"><stop offset="0" stop-color="#8d8749"/><stop offset="0.1" stop-color="#cec66a"/><stop offset="0.21" stop-color="#7a7736"/><stop offset="0.29" stop-color="#ebe668"/><stop offset="0.38" stop-color="#645d00"/><stop offset="0.57" stop-color="#e9dfc1"/><stop offset="0.57" stop-color="#e4dabb"/><stop offset="0.63" stop-color="#9a9167"/><stop offset="0.65" stop-color="#7d7446"/><stop offset="0.71" stop-color="#a59739"/><stop offset="0.75" stop-color="#bfae30"/><stop offset="0.77" stop-color="#af9f24"/><stop offset="0.8" stop-color="#8b7e0a"/><stop offset="0.82" stop-color="#7e7100"/><stop offset="0.94" stop-color="#c8bf4d"/></linearGradient><linearGradient id="名称未設定グラデーション_4535" x1="3.26" y1="97.75" x2="182.36" y2="97.75" gradientUnits="userSpaceOnUse"><stop offset="0" stop-color="#89844b"/><stop offset="0.1" stop-color="#d3cc72"/><stop offset="0.21" stop-color="#757236"/><stop offset="0.29" stop-color="#f4ef72"/><stop offset="0.38" stop-color="#5b5300"/><stop offset="0.57" stop-color="#f1e8d2"/><stop offset="0.58" stop-color="#ddd5bb"/><stop offset="0.63" stop-color="#958d67"/><stop offset="0.65" stop-color="#797146"/><stop offset="0.72" stop-color="#a99c3a"/><stop offset="0.75" stop-color="#c3b333"/><stop offset="0.77" stop-color="#aa9b22"/><stop offset="0.8" stop-color="#867a09"/><stop offset="0.82" stop-color="#796d00"/><stop offset="0.94" stop-color="#cec653"/></linearGradient><radialGradient id="名称未設定グラデーション_5881" cx="92.81" cy="97.75" r="233.41" gradientUnits="userSpaceOnUse"><stop offset="0" stop-color="#dae000"/><stop offset="0.17" stop-color="#b7b606"/><stop offset="0.69" stop-color="#454002"/></radialGradient><linearGradient id="名称未設定グラデーション_5874" x1="105.12" y1="113.11" x2="131.44" y2="97.91" gradientTransform="matrix(1, 0.23, -0.36, 0.91, 38.05, -19.2)" gradientUnits="userSpaceOnUse"><stop offset="0" stop-color="#dae000"/><stop offset="0.35" stop-color="#b7b606"/><stop offset="0.85" stop-color="#8b8229"/></linearGradient><radialGradient id="名称未設定グラデーション_5879" cx="135.17" cy="116.39" r="15.15" gradientUnits="userSpaceOnUse"><stop offset="0" stop-color="#dae000"/><stop offset="0.17" stop-color="#b7b606"/><stop offset="0.42" stop-color="#b4b30c"/><stop offset="0.99" stop-color="#8b8229"/></radialGradient><linearGradient id="新規グラデーションスウォッチ_5" x1="226.98" y1="141.14" x2="242.31" y2="141.14" gradientUnits="userSpaceOnUse"><stop offset="0" stop-color="#b9baba"/><stop offset="0.5" stop-color="#fff"/><stop offset="1" stop-color="#b9baba"/></linearGradient><linearGradient id="新規グラデーションスウォッチ_5-2" x1="225.69" y1="125.38" x2="243.6" y2="125.38" xlink:href="#新規グラデーションスウォッチ_5"/><pattern id="新規パターンスウォッチ_2" data-name="新規パターンスウォッチ 2" width="1.48" height="1.48" patternUnits="userSpaceOnUse" viewBox="0 0 1.48 1.48"><rect class="cls-1" width="1.48" height="1.48"/><rect class="cls-5" width="1.48" height="1.48"/><line class="cls-6" x1="0.74" x2="0.74" y2="1.48"/></pattern><pattern id="新規パターンスウォッチ_3" data-name="新規パターンスウォッチ 3" width="1.48" height="1.48" patternUnits="userSpaceOnUse" viewBox="0 0 1.48 1.48"><rect class="cls-1" width="1.48" height="1.48"/><rect class="cls-7" width="1.48" height="1.48"/><line class="cls-6" x1="0.74" x2="0.74" y2="1.48"/></pattern><linearGradient id="新規グラデーションスウォッチ_5-3" x1="225.89" y1="52.61" x2="241.22" y2="52.61" xlink:href="#新規グラデーションスウォッチ_5"/><linearGradient id="新規グラデーションスウォッチ_5-4" x1="224.6" y1="38.18" x2="242.51" y2="38.18" xlink:href="#新規グラデーションスウォッチ_5"/><linearGradient id="名称未設定グラデーション_45" x1="155.49" y1="138.18" x2="158.32" y2="135.35" gradientUnits="userSpaceOnUse"><stop offset="0" stop-color="#c3b600"/><stop offset="0.5" stop-color="#ede9c0"/><stop offset="0.93" stop-color="#cec349"/></linearGradient><radialGradient id="名称未設定グラデーション_49" cx="138.04" cy="125.14" r="32.42" gradientTransform="matrix(0.99, 0, 0, 1.98, 24.18, -107.21)" gradientUnits="userSpaceOnUse"><stop offset="0" stop-color="#dae000"/><stop offset="0.45" stop-color="#b7b606"/><stop offset="1" stop-color="#4b4704"/></radialGradient><linearGradient id="名称未設定グラデーション_45-2" x1="160.5" y1="148.22" x2="168.4" y2="140.31" xlink:href="#名称未設定グラデーション_45"/><linearGradient id="名称未設定グラデーション_50" x1="168.25" y1="161.44" x2="181.31" y2="145.83" xlink:href="#名称未設定グラデーション_45"/></defs><g class="cls-8"><g id="レイヤー_1" data-name="レイヤー 1"><rect class="cls-9" width="300.04" height="200"/><path class="cls-10" d="M173,41.67c-4.21-5.44-12.94-5.35-19.51.21S145,56.37,149.18,61.81c.18.24.39.45.58.67a28.17,28.17,0,0,0-4.35,3.74c-9.5-6.55-24.48-8.73-41.28-4.81C85.35,65.78,69,76.66,60.1,89.31c-15-11.46-25.43-21.84-45.31-7.25C-14,103.2,22.14,125.49,61.9,127.94c8.94,7.74,23,9.84,37,9.72,3.82,0-10,5.49-8,9.28,3.21,6.24,29.2-2.44,42.6-11.67,25.73-17.73,38.66-32.06,39.74-54.09.4-8.15-.51-15.66-4.51-19.62C175.26,56,177.15,47.1,173,41.67Z" transform="translate(0 0)"/><path class="cls-11" d="M173.51,42.1c-4.18-5.44-12.92-5.34-19.53.21s-8.58,14.47-4.41,19.91c.18.23.39.45.58.66a28.93,28.93,0,0,0-4.38,3.74c-9.47-6.55-24.45-8.73-41.3-4.82C85.65,66.17,69.21,77,60.21,89.66c-15-11.44-25.31-21.82-45.31-7.24-29,21.11,7.07,43.38,46.86,45.84,8.9,7.73,23,9.83,37,9.71,3.83,0-10,5.48-8.08,9.27,3.18,6.23,29.26-2.43,42.73-11.65,25.88-17.71,38.92-32,40.15-54,.46-8.14-.41-15.64-4.38-19.6C175.72,56.41,177.68,47.53,173.51,42.1Z" transform="translate(0 0)"/><path class="cls-12" d="M174.06,42.53c-4.14-5.43-12.9-5.34-19.55.21S145.82,57.19,150,62.62c.18.24.38.45.57.67A28.5,28.5,0,0,0,146.13,67c-9.43-6.54-24.42-8.72-41.31-4.82C86,66.56,69.41,77.41,60.32,90,45.4,78.59,35.13,68.22,15,82.78c-29.15,21.08,6.79,43.33,46.6,45.8,8.86,7.72,22.94,9.82,37,9.7,3.83,0-10,5.47-8.15,9.26,3.14,6.22,29.31-2.42,42.86-11.63,26-17.68,39.17-32,40.55-53.95.51-8.14-.3-15.63-4.26-19.58C176.18,56.83,178.2,48,174.06,42.53Z" transform="translate(0 0)"/><path class="cls-13" d="M174.62,43c-4.12-5.43-12.88-5.34-19.58.2S146.25,57.6,150.36,63c.18.24.38.45.57.66a28.71,28.71,0,0,0-4.44,3.73c-9.4-6.54-24.39-8.72-41.33-4.82C86.24,67,69.62,77.79,60.43,90.38,45.57,79,35.36,68.6,15.12,83.13c-29.32,21.06,6.5,43.29,46.34,45.76,8.82,7.72,22.91,9.81,36.93,9.7,3.84,0-10.1,5.47-8.22,9.25,3.1,6.22,29.35-2.42,43-11.61,26.17-17.66,39.43-31.93,41-53.89.57-8.12-.2-15.6-4.13-19.55C176.64,57.25,178.72,48.38,174.62,43Z" transform="translate(0 0)"/><path class="cls-14" d="M175.17,43.4c-4.08-5.42-12.86-5.34-19.6.2s-8.9,14.41-4.82,19.83c.18.24.38.45.57.67a28.84,28.84,0,0,0-4.47,3.72c-9.37-6.53-24.36-8.71-41.34-4.82-19,4.34-35.69,15.16-45,27.74-14.8-11.41-25-21.76-45.32-7.25-29.49,21,6.23,43.24,46.1,45.72,8.77,7.7,22.86,9.8,36.9,9.69,3.84,0-10.15,5.46-8.29,9.24,3.06,6.21,29.4-2.41,43.11-11.59,26.31-17.63,39.69-31.89,41.36-53.82.62-8.11-.09-15.59-4-19.53C177.1,57.66,179.24,48.81,175.17,43.4Z" transform="translate(0 0)"/><path class="cls-15" d="M175.72,43.83c-4.05-5.42-12.83-5.33-19.62.2s-9,14.39-4.95,19.81a7.21,7.21,0,0,0,.56.66,30.19,30.19,0,0,0-4.51,3.72c-9.32-6.53-24.32-8.71-41.34-4.83C86.83,67.73,70,78.53,60.65,91.1,45.91,79.69,35.81,69.36,15.33,83.85c-29.66,21,5.94,43.19,45.84,45.67,8.73,7.7,22.82,9.8,36.88,9.7,3.84,0-10.2,5.44-8.36,9.22,3,6.2,29.45-2.4,43.23-11.57,26.46-17.61,40-31.85,41.77-53.75.68-8.11,0-15.57-3.88-19.51C177.56,58.08,179.77,49.24,175.72,43.83Z" transform="translate(0 0)"/><path class="cls-16" d="M176.28,44.26c-4-5.41-12.82-5.32-19.65.19s-9.11,14.38-5.09,19.79c.17.24.37.45.56.67a29.73,29.73,0,0,0-4.54,3.71c-9.29-6.52-24.28-8.7-41.36-4.83-19.07,4.32-36,15.12-45.44,27.66C46.08,80.06,36,69.73,15.44,84.21c-29.84,21,5.66,43.14,45.58,45.63,8.69,7.69,22.79,9.79,36.86,9.69,3.85,0-10.25,5.44-8.43,9.21,3,6.2,29.5-2.39,43.35-11.55C159.42,119.61,173,105.39,175,83.51c.74-8.1.12-15.56-3.75-19.49C178,58.5,180.29,49.66,176.28,44.26Z" transform="translate(0 0)"/><path class="cls-17" d="M176.83,44.7c-4-5.41-12.79-5.33-19.67.18S148,59.24,151.93,64.65c.18.24.37.45.56.66A30.55,30.55,0,0,0,147.92,69c-9.26-6.52-24.25-8.7-41.37-4.83C87.42,68.5,70.43,79.28,60.87,91.81c-14.62-11.38-24.6-21.7-45.32-7.24-30,20.93,5.37,43.09,45.33,45.58,8.65,7.69,22.74,9.79,36.83,9.69,3.85,0-10.29,5.43-8.5,9.2,2.94,6.19,29.54-2.39,43.48-11.53,26.76-17.56,40.46-31.76,42.59-53.61.78-8.09.21-15.54-3.63-19.47C178.49,58.91,180.81,50.09,176.83,44.7Z" transform="translate(0 0)"/><path class="cls-18" d="M177.39,45.13c-4-5.4-12.77-5.32-19.69.18s-9.33,14.34-5.37,19.75c.17.23.36.44.55.66a30.08,30.08,0,0,0-4.6,3.7c-9.23-6.51-24.22-8.69-41.39-4.84C87.72,68.89,70.64,79.65,61,92.17,46.42,80.8,36.5,70.49,15.66,84.92c-30.19,20.91,5.09,43.05,45.07,45.55,8.61,7.68,22.7,9.78,36.8,9.68,3.87,0-10.33,5.42-8.56,9.19,2.9,6.18,29.59-2.38,43.6-11.51,26.91-17.53,40.72-31.72,43-53.55.84-8.07.32-15.52-3.51-19.45C179,59.33,181.34,50.52,177.39,45.13Z" transform="translate(0 0)"/><path class="cls-19" d="M177.94,45.56c-3.92-5.4-12.75-5.32-19.71.18s-9.43,14.32-5.51,19.72a7.12,7.12,0,0,0,.55.66,30.3,30.3,0,0,0-4.63,3.7c-9.19-6.51-24.19-8.69-41.4-4.84C88,69.28,70.84,80,61.09,92.53c-14.5-11.36-24.37-21.66-45.33-7.25-30.35,20.88,4.81,43,44.82,45.5,8.57,7.68,22.67,9.78,36.78,9.68,3.87,0-10.38,5.42-8.64,9.18,2.87,6.18,29.65-2.37,43.74-11.49,27-17.5,41-31.67,43.4-53.48.89-8.07.42-15.5-3.38-19.43C179.41,59.75,181.86,50.94,177.94,45.56Z" transform="translate(0 0)"/><path class="cls-20" d="M178.5,46c-3.89-5.39-12.73-5.31-19.74.18s-9.54,14.3-5.65,19.7c.17.23.36.44.55.65a31.14,31.14,0,0,0-4.66,3.7c-9.16-6.5-24.16-8.68-41.42-4.84-19.27,4.29-36.53,15-46.38,27.51C46.76,81.53,37,71.24,15.87,85.64c-30.53,20.85,4.53,43,44.57,45.46,8.52,7.66,22.62,9.77,36.75,9.67,3.87,0-10.43,5.41-8.71,9.17,2.83,6.17,29.7-2.36,43.86-11.47,27.2-17.48,41.24-31.63,43.81-53.41.95-8.06.53-15.48-3.25-19.41C179.87,60.16,182.38,51.37,178.5,46Z" transform="translate(0 0)"/><path class="cls-21" d="M179.05,46.42c-3.86-5.38-12.71-5.3-19.76.18s-9.64,14.29-5.78,19.67a5.75,5.75,0,0,0,.54.66,30.66,30.66,0,0,0-4.69,3.69c-9.13-6.5-24.13-8.68-41.43-4.84-19.32,4.28-36.68,15-46.62,27.46C46.93,81.9,37.18,71.62,16,86c-30.71,20.82,4.25,42.9,44.31,45.41,8.48,7.66,22.58,9.76,36.73,9.67,3.88,0-10.48,5.41-8.78,9.16,2.79,6.16,29.74-2.35,44-11.45,27.34-17.45,41.49-31.58,44.21-53.34,1-8,.63-15.47-3.13-19.39C180.33,60.58,182.9,51.8,179.05,46.42Z" transform="translate(0 0)"/><path class="cls-22" d="M179.61,46.86c-3.83-5.38-12.69-5.31-19.79.16s-9.75,14.28-5.92,19.66c.17.23.35.44.54.65A32,32,0,0,0,149.72,71c-9.09-6.49-24.1-8.67-41.44-4.85-19.38,4.28-36.82,15-46.86,27.43C47.1,82.27,37.41,72,16.09,86.35c-30.88,20.8,4,42.86,44.05,45.38,8.44,7.65,22.55,9.75,36.71,9.66,3.88,0-10.53,5.4-8.85,9.15,2.75,6.16,29.79-2.35,44.11-11.43,27.49-17.43,41.75-31.54,44.62-53.27,1.06-8,.74-15.45-3-19.37C180.79,61,183.43,52.23,179.61,46.86Z" transform="translate(0 0)"/><path class="cls-23" d="M179.61,46.86c-3.83-5.38-12.69-5.31-19.79.16s-9.75,14.28-5.92,19.66c.17.23.35.44.54.65A32,32,0,0,0,149.72,71c-9.09-6.49-24.1-8.67-41.44-4.85-19.38,4.28-36.82,15-46.86,27.43C47.1,82.27,37.41,72,16.09,86.35c-30.88,20.8,4,42.86,44.05,45.38,8.44,7.65,22.55,9.75,36.71,9.66,3.88,0-10.53,5.4-8.85,9.15,2.75,6.16,29.79-2.35,44.11-11.43,27.49-17.43,41.75-31.54,44.62-53.27,1.06-8,.74-15.45-3-19.37C180.79,61,183.43,52.23,179.61,46.86Z" transform="translate(0 0)"/><ellipse class="cls-24" cx="118.4" cy="104.26" rx="16.16" ry="12.23" transform="translate(-30.17 51.21) rotate(-21.72)"/><polygon class="cls-25" points="120.67 102.95 147.16 126.21 150.93 129.83 147.4 126.8 119.4 103.56 120.67 102.95"/><polygon class="cls-26" points="235.49 156.04 233.94 156.04 233.94 144.02 234.71 134.74 235.49 144.02 235.49 156.04"/><path class="cls-27" d="M199.12,144.86" transform="translate(0 0)"/><path class="cls-28" d="M236.15,134.21h-3v2.37H227s4,4.49,4.91,7.86c.57,2,.13,3.63,2.76,3.63s2.18-1.61,2.75-3.63c.95-3.37,4.91-7.86,4.91-7.86h-6.16Z" transform="translate(0 0)"/><path class="cls-29" d="M234.65,117.81s-9,0-9,8.31c0,3.56,7.45,3.18,7.45,3.18V132s0,1,1.51,1,1.5-1,1.5-1V129.3s7.45.38,7.45-3.18C243.6,117.81,234.65,117.81,234.65,117.81Z" transform="translate(0 0)"/><rect class="cls-30" x="224.87" y="131.88" width="19.7" height="3.33"/><rect class="cls-31" x="224.87" y="142.8" width="19.7" height="1.66"/><path class="cls-32" d="M235.06,44.34h-3v5h-6.15s4,4.49,4.91,7.86c.57,2,.12,3.64,2.75,3.64s2.18-1.62,2.75-3.64c1-3.37,4.92-7.86,4.92-7.86h-6.16Z" transform="translate(0 0)"/><path class="cls-33" d="M233.55,30.61s-9,0-9,8.31c0,3.56,7.44,3.19,7.44,3.19v2.65s0,1,1.51,1,1.51-1,1.51-1V42.11s7.45.37,7.45-3.19C242.51,30.61,233.55,30.61,233.55,30.61Z" transform="translate(0 0)"/><rect class="cls-30" x="223.77" y="42.68" width="19.7" height="3.33"/><rect class="cls-31" x="223.77" y="55.61" width="19.7" height="1.66"/><polygon class="cls-26" points="234.4 87.06 232.84 87.06 232.84 75.04 233.62 65.75 234.4 75.04 234.4 87.06"/><path class="cls-34" d="M158.61,138l2.1-2.06c-2.17-1.17-3.17-2.86-5.32-.64s-.47,3.14.77,5.22C156.94,139.69,157.75,138.85,158.61,138Z" transform="translate(0 0)"/><ellipse class="cls-35" cx="160.49" cy="140.05" rx="14.27" ry="2.77" transform="translate(-52.11 153.13) rotate(-44.63)"/><path class="cls-36" d="M171.39,138.22a41.45,41.45,0,0,1-7.9-1.23,11,11,0,0,0-3.88,2.6,10,10,0,0,0-2.3,3.56,40.72,40.72,0,0,1,1.53,8l5-5.21,4.26,4.12,2.47-2.55-4.26-4.12Z" transform="translate(0 0)"/><path class="cls-37" d="M152.45,147.82s1.5-3.72,6.34-8.62c6.39-6.47,10.2-8,10.2-8" transform="translate(0 0)"/><polygon class="cls-38" points="168.63 149.17 167.45 151.27 166.22 151.32 164.15 153.93 164 152.88 161.39 155.53 162.37 153.57 159.66 155.81 161.59 153.27 159.26 154.72 161.81 152.04 160.26 152.44 162.98 150.09 162.48 149.38 164.91 147.75 165.55 146.05 167.26 145.44 168.92 143.03 169.63 143.54 172.02 140.86 171.59 142.4 174.31 139.89 172.83 142.2 175.4 140.31 173.11 142.98 175.09 142.03 172.4 144.6 173.44 144.76 170.81 146.79 170.74 148.03 168.63 149.17"/><polygon class="cls-39" points="168.63 149.18 167.46 151.28 166.22 151.33 164.15 153.94 164.01 152.89 161.4 155.54 162.37 153.58 159.67 155.82 161.6 153.28 159.27 154.73 161.81 152.05 160.27 152.45 162.99 150.1 162.49 149.38 164.92 147.76 165.55 146.06 167.27 145.45 168.93 143.04 169.63 143.55 172.03 140.87 171.6 142.4 174.32 139.9 172.84 142.2 175.41 140.31 173.12 142.98 175.1 142.04 172.41 144.61 173.45 144.77 170.82 146.8 170.75 148.04 168.63 149.18"/><polygon class="cls-40" points="168.64 149.19 167.47 151.29 166.23 151.34 164.16 153.94 164.02 152.9 161.41 155.55 162.38 153.58 159.68 155.83 161.6 153.29 159.28 154.74 161.82 152.06 160.28 152.46 163 150.11 162.5 149.39 164.93 147.77 165.56 146.06 167.28 145.46 168.93 143.05 169.64 143.56 172.03 140.87 171.61 142.41 174.33 139.91 172.84 142.21 175.41 140.32 173.13 142.99 175.11 142.05 172.41 144.62 173.46 144.78 170.83 146.81 170.76 148.05 168.64 149.19"/><polygon class="cls-41" points="168.65 149.2 167.48 151.3 166.24 151.35 164.17 153.95 164.03 152.9 161.41 155.56 162.39 153.59 159.69 155.84 161.61 153.3 159.29 154.75 161.83 152.07 160.28 152.47 163.01 150.11 162.51 149.4 164.94 147.78 165.57 146.07 167.28 145.46 168.94 143.06 169.65 143.57 172.04 140.88 171.62 142.42 174.33 139.92 172.85 142.22 175.42 140.33 173.14 143 175.11 142.05 172.42 144.63 173.47 144.79 170.84 146.82 170.77 148.06 168.65 149.2"/><polygon class="cls-42" points="168.66 149.2 167.49 151.31 166.25 151.36 164.18 153.96 164.03 152.91 161.42 155.56 162.4 153.6 159.69 155.85 161.62 153.3 159.29 154.75 161.84 152.07 160.29 152.48 163.01 150.12 162.51 149.41 164.94 147.79 165.58 146.08 167.29 145.47 168.95 143.07 169.66 143.57 172.05 140.89 171.63 142.43 174.34 139.92 172.86 142.23 175.43 140.34 173.14 143.01 175.12 142.06 172.43 144.63 173.48 144.79 170.84 146.83 170.78 148.06 168.66 149.2"/><polygon class="cls-43" points="168.66 149.21 167.49 151.31 166.25 151.36 164.19 153.97 164.04 152.92 161.43 155.57 162.4 153.61 159.7 155.85 161.63 153.31 159.3 154.76 161.85 152.08 160.3 152.48 163.02 150.13 162.52 149.42 164.95 147.79 165.59 146.09 167.3 145.48 168.96 143.07 169.66 143.58 172.06 140.9 171.63 142.44 174.35 139.93 172.87 142.24 175.44 140.35 173.15 143.02 175.13 142.07 172.44 144.64 173.48 144.8 170.85 146.83 170.78 148.07 168.66 149.21"/><polygon class="cls-44" points="168.67 149.22 167.5 151.32 166.26 151.37 164.19 153.97 164.05 152.93 161.44 155.58 162.41 153.62 159.71 155.86 161.64 153.32 159.31 154.77 161.85 152.09 160.31 152.49 163.03 150.14 162.53 149.42 164.96 147.8 165.59 146.09 167.31 145.49 168.97 143.08 169.67 143.59 172.06 140.9 171.64 142.44 174.36 139.94 172.87 142.24 175.44 140.35 173.16 143.02 175.14 142.08 172.45 144.65 173.49 144.81 170.86 146.84 170.79 148.08 168.67 149.22"/><polygon class="cls-45" points="168.68 149.23 167.51 151.33 166.27 151.38 164.2 153.98 164.06 152.94 161.44 155.59 162.42 153.62 159.72 155.87 161.64 153.33 159.32 154.78 161.86 152.1 160.32 152.5 163.04 150.15 162.54 149.43 164.97 147.81 165.6 146.1 167.32 145.49 168.97 143.09 169.68 143.6 172.07 140.91 171.65 142.45 174.37 139.95 172.88 142.25 175.45 140.36 173.17 143.03 175.15 142.09 172.45 144.66 173.5 144.82 170.87 146.85 170.8 148.09 168.68 149.23"/><polygon class="cls-46" points="168.69 149.24 167.52 151.34 166.28 151.39 164.21 153.99 164.06 152.94 161.45 155.6 162.43 153.63 159.72 155.88 161.65 153.34 159.33 154.78 161.87 152.1 160.32 152.51 163.04 150.15 162.55 149.44 164.97 147.82 165.61 146.11 167.32 145.5 168.98 143.1 169.69 143.61 172.08 140.92 171.66 142.46 174.37 139.96 172.89 142.26 175.46 140.37 173.18 143.04 175.15 142.09 172.46 144.67 173.51 144.83 170.88 146.86 170.81 148.1 168.69 149.24"/><polygon class="cls-47" points="168.7 149.24 167.53 151.34 166.29 151.4 164.22 154 164.07 152.95 161.46 155.6 162.44 153.64 159.73 155.89 161.66 153.34 159.33 154.79 161.88 152.11 160.33 152.52 163.05 150.16 162.55 149.45 164.98 147.83 165.62 146.12 167.33 145.51 168.99 143.1 169.7 143.62 172.09 140.93 171.66 142.47 174.38 139.96 172.9 142.27 175.47 140.38 173.18 143.05 175.16 142.1 172.47 144.67 173.51 144.83 170.88 146.87 170.81 148.1 168.7 149.24"/><polygon class="cls-48" points="168.7 149.25 167.53 151.35 166.29 151.4 164.22 154.01 164.08 152.96 161.47 155.61 162.44 153.65 159.74 155.89 161.67 153.35 159.34 154.8 161.88 152.12 160.34 152.52 163.06 150.17 162.56 149.46 164.99 147.83 165.62 146.13 167.34 145.52 169 143.11 169.7 143.62 172.1 140.94 171.67 142.48 174.39 139.97 172.91 142.28 175.47 140.39 173.19 143.06 175.17 142.11 172.48 144.68 173.52 144.84 170.89 146.87 170.82 148.11 168.7 149.25"/><polygon class="cls-49" points="168.71 149.26 167.54 151.36 166.3 151.41 164.23 154.01 164.09 152.97 161.48 155.62 162.45 153.66 159.75 155.9 161.68 153.36 159.35 154.81 161.89 152.13 160.35 152.53 163.07 150.18 162.57 149.46 165 147.84 165.63 146.13 167.35 145.53 169 143.12 169.71 143.63 172.1 140.94 171.68 142.48 174.4 139.98 172.91 142.28 175.48 140.4 173.2 143.06 175.18 142.12 172.49 144.69 173.53 144.85 170.9 146.88 170.83 148.12 168.71 149.26"/><polygon class="cls-49" points="168.72 149.27 167.55 151.37 166.31 151.42 164.24 154.02 164.1 152.97 161.48 155.63 162.46 153.66 159.76 155.91 161.68 153.37 159.36 154.82 161.9 152.14 160.35 152.54 163.08 150.19 162.58 149.47 165.01 147.85 165.64 146.14 167.36 145.53 169.01 143.13 169.72 143.64 172.11 140.95 171.69 142.49 174.4 139.99 172.92 142.29 175.49 140.4 173.21 143.07 175.19 142.13 172.49 144.7 173.54 144.86 170.91 146.89 170.84 148.13 168.72 149.27"/><polygon class="cls-50" points="168.73 149.28 167.56 151.38 166.32 151.43 164.25 154.03 164.1 152.98 161.49 155.64 162.47 153.67 159.76 155.92 161.69 153.38 159.37 154.82 161.91 152.15 160.36 152.55 163.09 150.19 162.59 149.48 165.01 147.86 165.65 146.15 167.36 145.54 169.02 143.14 169.73 143.65 172.12 140.96 171.69 142.5 174.41 140 172.93 142.3 175.5 140.41 173.21 143.08 175.19 142.13 172.5 144.71 173.55 144.87 170.91 146.9 170.85 148.13 168.73 149.28"/><polygon class="cls-51" points="168.74 149.28 167.56 151.38 166.33 151.44 164.25 154.04 164.11 152.99 161.5 155.64 162.47 153.68 159.77 155.93 161.7 153.38 159.37 154.83 161.92 152.15 160.37 152.56 163.09 150.2 162.59 149.49 165.02 147.87 165.66 146.16 167.37 145.55 169.03 143.15 169.74 143.66 172.13 140.97 171.7 142.51 174.42 140 172.94 142.31 175.51 140.42 173.22 143.09 175.2 142.14 172.51 144.71 173.56 144.87 170.92 146.91 170.85 148.14 168.74 149.28"/><polygon class="cls-52" points="168.74 149.29 167.57 151.39 166.33 151.44 164.26 154.05 164.12 153 161.51 155.65 162.48 153.69 159.78 155.93 161.71 153.39 159.38 154.84 161.93 152.16 160.38 152.56 163.1 150.21 162.6 149.5 165.03 147.87 165.66 146.17 167.38 145.56 169.04 143.15 169.74 143.66 172.14 140.98 171.71 142.52 174.43 140.01 172.94 142.31 175.51 140.43 173.23 143.1 175.21 142.15 172.52 144.72 173.56 144.88 170.93 146.91 170.86 148.15 168.74 149.29"/><polygon class="cls-53" points="168.75 149.3 167.58 151.4 166.34 151.45 164.27 154.05 164.13 153.01 161.51 155.66 162.49 153.7 159.79 155.94 161.71 153.4 159.39 154.85 161.93 152.17 160.39 152.57 163.11 150.22 162.61 149.5 165.04 147.88 165.67 146.18 167.39 145.57 169.04 143.16 169.75 143.67 172.14 140.98 171.72 142.52 174.44 140.02 172.95 142.32 175.52 140.43 173.24 143.1 175.22 142.16 172.53 144.73 173.57 144.89 170.94 146.92 170.87 148.16 168.75 149.3"/><polygon class="cls-54" points="168.76 149.31 167.59 151.41 166.35 151.46 164.28 154.06 164.13 153.01 161.52 155.67 162.5 153.7 159.8 155.95 161.72 153.41 159.4 154.86 161.94 152.18 160.4 152.58 163.12 150.22 162.62 149.51 165.04 147.89 165.68 146.18 167.4 145.57 169.05 143.17 169.76 143.68 172.15 140.99 171.73 142.53 174.44 140.03 172.96 142.33 175.53 140.44 173.25 143.11 175.22 142.16 172.53 144.74 173.58 144.9 170.95 146.93 170.88 148.17 168.76 149.31"/><polygon class="cls-55" points="168.77 149.31 167.59 151.42 166.36 151.47 164.29 154.07 164.14 153.02 161.53 155.68 162.51 153.71 159.8 155.96 161.73 153.41 159.41 154.86 161.95 152.19 160.4 152.59 163.12 150.23 162.62 149.52 165.05 147.9 165.69 146.19 167.4 145.58 169.06 143.18 169.77 143.69 172.16 141 171.74 142.54 174.45 140.03 172.97 142.34 175.54 140.45 173.25 143.12 175.23 142.17 172.54 144.75 173.59 144.91 170.95 146.94 170.88 148.18 168.77 149.31"/><polygon class="cls-56" points="168.77 149.32 167.6 151.43 166.37 151.47 164.29 154.08 164.15 153.03 161.54 155.68 162.51 153.72 159.81 155.97 161.74 153.42 159.41 154.87 161.96 152.19 160.41 152.59 163.13 150.24 162.63 149.53 165.06 147.91 165.69 146.2 167.41 145.59 169.07 143.19 169.77 143.69 172.17 141.01 171.74 142.55 174.46 140.04 172.98 142.35 175.55 140.46 173.26 143.13 175.24 142.18 172.55 144.75 173.59 144.91 170.96 146.94 170.89 148.18 168.77 149.32"/><polygon class="cls-56" points="168.78 149.33 167.61 151.43 166.37 151.48 164.3 154.09 164.16 153.04 161.55 155.69 162.52 153.73 159.82 155.97 161.75 153.43 159.42 154.88 161.96 152.2 160.42 152.6 163.14 150.25 162.64 149.53 165.07 147.91 165.7 146.21 167.42 145.6 169.07 143.19 169.78 143.7 172.18 141.02 171.75 142.56 174.47 140.05 172.98 142.35 175.55 140.47 173.27 143.13 175.25 142.19 172.56 144.76 173.6 144.92 170.97 146.95 170.9 148.19 168.78 149.33"/><polygon class="cls-57" points="168.79 149.34 167.62 151.44 166.38 151.49 164.31 154.09 164.17 153.05 161.55 155.7 162.53 153.74 159.83 155.98 161.75 153.44 159.43 154.89 161.97 152.21 160.43 152.61 163.15 150.26 162.65 149.54 165.08 147.92 165.71 146.21 167.43 145.61 169.08 143.2 169.79 143.71 172.18 141.02 171.76 142.56 174.47 140.06 172.99 142.36 175.56 140.47 173.28 143.14 175.25 142.2 172.56 144.77 173.61 144.93 170.98 146.96 170.91 148.2 168.79 149.34"/><polygon class="cls-58" points="168.8 149.35 167.63 151.45 166.39 151.5 164.32 154.1 164.17 153.05 161.56 155.71 162.54 153.74 159.84 155.99 161.76 153.45 159.44 154.9 161.98 152.22 160.43 152.62 163.16 150.26 162.66 149.55 165.08 147.93 165.72 146.22 167.43 145.61 169.09 143.21 169.8 143.72 172.19 141.03 171.77 142.57 174.48 140.07 173 142.37 175.57 140.48 173.28 143.15 175.26 142.21 172.57 144.78 173.62 144.94 170.99 146.97 170.92 148.21 168.8 149.35"/><polygon class="cls-59" points="168.81 149.35 167.63 151.46 166.4 151.51 164.33 154.11 164.18 153.06 161.57 155.72 162.54 153.75 159.84 156 161.77 153.46 159.44 154.9 161.99 152.22 160.44 152.63 163.16 150.27 162.66 149.56 165.09 147.94 165.73 146.23 167.44 145.62 169.1 143.22 169.81 143.73 172.2 141.04 171.77 142.58 174.49 140.07 173.01 142.38 175.58 140.49 173.29 143.16 175.27 142.21 172.58 144.79 173.63 144.94 170.99 146.98 170.92 148.22 168.81 149.35"/><polygon class="cls-59" points="168.81 149.36 167.64 151.47 166.4 151.51 164.33 154.12 164.19 153.07 161.58 155.72 162.55 153.76 159.85 156 161.78 153.46 159.45 154.91 162 152.23 160.45 152.63 163.17 150.28 162.67 149.57 165.1 147.94 165.73 146.24 167.45 145.63 169.11 143.22 169.81 143.73 172.21 141.05 171.78 142.59 174.5 140.08 173.01 142.39 175.59 140.5 173.3 143.17 175.28 142.22 172.59 144.79 173.63 144.95 171 146.99 170.93 148.22 168.81 149.36"/><polygon class="cls-60" points="168.82 149.37 167.65 151.47 166.41 151.52 164.34 154.13 164.2 153.08 161.59 155.73 162.56 153.77 159.86 156.01 161.78 153.47 159.46 154.92 162 152.24 160.46 152.64 163.18 150.29 162.68 149.57 165.11 147.95 165.74 146.25 167.46 145.64 169.11 143.23 169.82 143.74 172.21 141.06 171.79 142.59 174.51 140.09 173.02 142.4 175.59 140.51 173.31 143.18 175.29 142.23 172.59 144.8 173.64 144.96 171.01 146.99 170.94 148.23 168.82 149.37"/><polygon class="cls-61" points="168.83 149.38 167.66 151.48 166.42 151.53 164.35 154.13 164.21 153.09 161.59 155.74 162.57 153.78 159.87 156.02 161.79 153.48 159.47 154.93 162.01 152.25 160.47 152.65 163.19 150.3 162.69 149.58 165.12 147.96 165.75 146.25 167.47 145.65 169.12 143.24 169.83 143.75 172.22 141.06 171.8 142.6 174.51 140.1 173.03 142.4 175.6 140.51 173.32 143.18 175.29 142.24 172.6 144.81 173.65 144.97 171.02 147 170.95 148.24 168.83 149.38"/><polygon class="cls-62" points="168.84 149.39 167.67 151.49 166.43 151.54 164.36 154.14 164.21 153.09 161.6 155.75 162.58 153.78 159.87 156.03 161.8 153.49 159.47 154.94 162.02 152.26 160.47 152.66 163.19 150.31 162.69 149.59 165.12 147.97 165.76 146.26 167.47 145.65 169.13 143.25 169.84 143.76 172.23 141.07 171.81 142.61 174.52 140.11 173.04 142.41 175.61 140.52 173.32 143.19 175.3 142.24 172.61 144.82 173.66 144.98 171.02 147.01 170.96 148.25 168.84 149.39"/><polygon class="cls-62" points="168.84 149.4 167.67 151.5 166.44 151.55 164.37 154.15 164.22 153.1 161.61 155.76 162.58 153.79 159.88 156.04 161.81 153.5 159.48 154.94 162.03 152.26 160.48 152.67 163.2 150.31 162.7 149.6 165.13 147.98 165.76 146.27 167.48 145.66 169.14 143.26 169.84 143.77 172.24 141.08 171.81 142.62 174.53 140.12 173.05 142.42 175.62 140.53 173.33 143.2 175.31 142.25 172.62 144.82 173.66 144.99 171.03 147.02 170.96 148.25 168.84 149.4"/><polygon class="cls-63" points="168.85 149.4 167.68 151.5 166.44 151.56 164.37 154.16 164.23 153.11 161.62 155.76 162.59 153.8 159.89 156.04 161.82 153.5 159.49 154.95 162.03 152.27 160.49 152.68 163.21 150.32 162.71 149.61 165.14 147.99 165.77 146.28 167.49 145.67 169.15 143.26 169.85 143.77 172.25 141.09 171.82 142.63 174.54 140.12 173.05 142.43 175.62 140.54 173.34 143.21 175.32 142.26 172.63 144.83 173.67 144.99 171.04 147.03 170.97 148.26 168.85 149.4"/><polygon class="cls-64" points="168.86 149.41 167.69 151.51 166.45 151.56 164.38 154.17 164.24 153.12 161.63 155.77 162.6 153.81 159.9 156.05 161.82 153.51 159.5 154.96 162.04 152.28 160.5 152.68 163.22 150.33 162.72 149.61 165.15 147.99 165.78 146.29 167.5 145.68 169.15 143.27 169.86 143.78 172.25 141.09 171.83 142.63 174.54 140.13 173.06 142.43 175.63 140.55 173.35 143.22 175.33 142.27 172.63 144.84 173.68 145 171.05 147.03 170.98 148.27 168.86 149.41"/><polygon class="cls-65" points="168.87 149.42 167.7 151.52 166.46 151.57 164.39 154.17 164.24 153.13 161.63 155.78 162.61 153.81 159.91 156.06 161.83 153.52 159.51 154.97 162.05 152.29 160.5 152.69 163.23 150.34 162.73 149.62 165.16 148 165.79 146.29 167.5 145.69 169.16 143.28 169.87 143.79 172.26 141.1 171.84 142.64 174.55 140.14 173.07 142.44 175.64 140.55 173.35 143.22 175.33 142.28 172.64 144.85 173.69 145.01 171.06 147.04 170.99 148.28 168.87 149.42"/><polygon class="cls-66" points="168.88 149.43 167.71 151.53 166.47 151.58 164.4 154.18 164.25 153.13 161.64 155.79 162.62 153.82 159.91 156.07 161.84 153.53 159.51 154.98 162.06 152.3 160.51 152.7 163.23 150.34 162.73 149.63 165.16 148.01 165.8 146.3 167.51 145.69 169.17 143.29 169.88 143.8 172.27 141.11 171.84 142.65 174.56 140.15 173.08 142.45 175.65 140.56 173.36 143.23 175.34 142.28 172.65 144.86 173.7 145.02 171.06 147.05 170.99 148.29 168.88 149.43"/><polygon class="cls-67" points="168.88 149.43 167.71 151.54 166.47 151.59 164.4 154.19 164.26 153.14 161.65 155.79 162.62 153.83 159.92 156.08 161.85 153.53 159.52 154.98 162.07 152.3 160.52 152.71 163.24 150.35 162.74 149.64 165.17 148.02 165.8 146.31 167.52 145.7 169.18 143.3 169.88 143.81 172.28 141.12 171.85 142.66 174.57 140.16 173.09 142.46 175.66 140.57 173.37 143.24 175.35 142.29 172.66 144.87 173.7 145.03 171.07 147.06 171 148.29 168.88 149.43"/><polygon class="cls-68" points="168.89 149.44 167.72 151.54 166.48 151.59 164.41 154.2 164.27 153.15 161.66 155.8 162.63 153.84 159.93 156.08 161.85 153.54 159.53 154.99 162.07 152.31 160.53 152.71 163.25 150.36 162.75 149.65 165.18 148.03 165.81 146.32 167.53 145.71 169.19 143.3 169.89 143.81 172.28 141.13 171.86 142.67 174.58 140.16 173.09 142.47 175.66 140.58 173.38 143.25 175.36 142.3 172.67 144.87 173.71 145.03 171.08 147.06 171.01 148.3 168.89 149.44"/><polygon class="cls-68" points="168.9 149.45 167.73 151.55 166.49 151.6 164.42 154.21 164.28 153.16 161.66 155.81 162.64 153.85 159.94 156.09 161.86 153.55 159.54 155 162.08 152.32 160.54 152.72 163.26 150.37 162.76 149.65 165.19 148.03 165.82 146.33 167.54 145.72 169.19 143.31 169.9 143.82 172.29 141.13 171.87 142.68 174.58 140.17 173.1 142.47 175.67 140.59 173.39 143.25 175.37 142.31 172.67 144.88 173.72 145.04 171.09 147.07 171.02 148.31 168.9 149.45"/><polygon class="cls-69" points="168.91 149.46 167.74 151.56 166.5 151.61 164.43 154.21 164.28 153.17 161.67 155.82 162.65 153.85 159.94 156.1 161.87 153.56 159.55 155.01 162.09 152.33 160.54 152.73 163.26 150.38 162.77 149.66 165.19 148.04 165.83 146.33 167.54 145.72 169.2 143.32 169.91 143.83 172.3 141.14 171.88 142.68 174.59 140.18 173.11 142.48 175.68 140.59 173.39 143.26 175.37 142.32 172.68 144.89 173.73 145.05 171.09 147.08 171.03 148.32 168.91 149.46"/><polygon class="cls-70" points="168.91 149.47 167.74 151.57 166.51 151.62 164.44 154.22 164.29 153.17 161.68 155.83 162.66 153.86 159.95 156.11 161.88 153.57 159.55 155.02 162.1 152.34 160.55 152.74 163.27 150.38 162.77 149.67 165.2 148.05 165.84 146.34 167.55 145.73 169.21 143.33 169.91 143.84 172.31 141.15 171.88 142.69 174.6 140.19 173.12 142.49 175.69 140.6 173.4 143.27 175.38 142.32 172.69 144.9 173.74 145.06 171.1 147.09 171.03 148.33 168.91 149.47"/><polygon class="cls-71" points="168.92 149.47 167.75 151.58 166.51 151.63 164.44 154.23 164.3 153.18 161.69 155.84 162.66 153.87 159.96 156.12 161.89 153.57 159.56 155.02 162.1 152.34 160.56 152.75 163.28 150.39 162.78 149.68 165.21 148.06 165.84 146.35 167.56 145.74 169.22 143.34 169.92 143.85 172.32 141.16 171.89 142.7 174.61 140.19 173.13 142.5 175.69 140.61 173.41 143.28 175.39 142.33 172.7 144.91 173.74 145.06 171.11 147.1 171.04 148.33 168.92 149.47"/><polygon class="cls-72" points="168.93 149.48 167.76 151.58 166.52 151.63 164.45 154.24 164.31 153.19 161.69 155.84 162.67 153.88 159.97 156.12 161.89 153.58 159.57 155.03 162.11 152.35 160.57 152.75 163.29 150.4 162.79 149.69 165.22 148.06 165.85 146.36 167.57 145.75 169.22 143.34 169.93 143.85 172.32 141.17 171.9 142.71 174.62 140.2 173.13 142.51 175.7 140.62 173.42 143.29 175.4 142.34 172.71 144.91 173.75 145.07 171.12 147.1 171.05 148.34 168.93 149.48"/><polygon class="cls-73" points="168.94 149.49 167.77 151.59 166.53 151.64 164.46 154.25 164.31 153.2 161.7 155.85 162.68 153.89 159.98 156.13 161.9 153.59 159.58 155.04 162.12 152.36 160.57 152.76 163.3 150.41 162.8 149.69 165.23 148.07 165.86 146.37 167.57 145.76 169.23 143.35 169.94 143.86 172.33 141.18 171.91 142.71 174.62 140.21 173.14 142.51 175.71 140.63 173.43 143.29 175.4 142.35 172.71 144.92 173.76 145.08 171.13 147.11 171.06 148.35 168.94 149.49"/><polygon class="cls-74" points="168.95 149.5 167.78 151.6 166.54 151.65 164.47 154.25 164.32 153.21 161.71 155.86 162.69 153.89 159.98 156.14 161.91 153.6 159.59 155.05 162.13 152.37 160.58 152.77 163.3 150.42 162.81 149.7 165.23 148.08 165.87 146.37 167.58 145.76 169.24 143.36 169.95 143.87 172.34 141.18 171.91 142.72 174.63 140.22 173.15 142.52 175.72 140.63 173.43 143.3 175.41 142.36 172.72 144.93 173.77 145.09 171.13 147.12 171.06 148.36 168.95 149.5"/><polygon class="cls-75" points="168.95 149.51 167.78 151.61 166.54 151.66 164.47 154.26 164.33 153.21 161.72 155.87 162.69 153.9 159.99 156.15 161.92 153.61 159.59 155.06 162.14 152.38 160.59 152.78 163.31 150.42 162.81 149.71 165.24 148.09 165.88 146.38 167.59 145.77 169.25 143.37 169.95 143.88 172.35 141.19 171.92 142.73 174.64 140.23 173.16 142.53 175.73 140.64 173.44 143.31 175.42 142.36 172.73 144.94 173.77 145.1 171.14 147.13 171.07 148.37 168.95 149.51"/><polygon class="cls-76" points="168.96 149.51 167.79 151.62 166.55 151.67 164.48 154.27 164.34 153.22 161.73 155.88 162.7 153.91 160 156.16 161.93 153.61 159.6 155.06 162.14 152.38 160.6 152.79 163.32 150.43 162.82 149.72 165.25 148.1 165.88 146.39 167.6 145.78 169.25 143.38 169.96 143.88 172.35 141.2 171.93 142.74 174.65 140.23 173.16 142.54 175.73 140.65 173.45 143.32 175.43 142.37 172.74 144.94 173.78 145.1 171.15 147.14 171.08 148.37 168.96 149.51"/><polygon class="cls-77" points="168.97 149.52 167.8 151.62 166.56 151.67 164.49 154.28 164.35 153.23 161.73 155.88 162.71 153.92 160.01 156.16 161.93 153.62 159.61 155.07 162.15 152.39 160.61 152.79 163.33 150.44 162.83 149.73 165.26 148.1 165.89 146.4 167.61 145.79 169.26 143.38 169.97 143.89 172.36 141.21 171.94 142.75 174.66 140.24 173.17 142.55 175.74 140.66 173.46 143.33 175.44 142.38 172.74 144.95 173.79 145.11 171.16 147.14 171.09 148.38 168.97 149.52"/><polygon class="cls-78" points="168.98 149.53 167.81 151.63 166.57 151.68 164.5 154.28 164.35 153.24 161.74 155.89 162.72 153.93 160.01 156.17 161.94 153.63 159.62 155.08 162.16 152.4 160.61 152.8 163.34 150.45 162.84 149.73 165.26 148.11 165.9 146.41 167.61 145.8 169.27 143.39 169.98 143.9 172.37 141.22 171.95 142.75 174.66 140.25 173.18 142.55 175.75 140.66 173.47 143.33 175.44 142.39 172.75 144.96 173.8 145.12 171.16 147.15 171.1 148.39 168.98 149.53"/><polygon class="cls-79" points="168.99 149.54 167.81 151.64 166.58 151.69 164.51 154.29 164.36 153.25 161.75 155.9 162.72 153.93 160.02 156.18 161.95 153.64 159.62 155.09 162.17 152.41 160.62 152.81 163.34 150.46 162.84 149.74 165.27 148.12 165.91 146.41 167.62 145.8 169.28 143.4 169.99 143.91 172.38 141.22 171.95 142.76 174.67 140.26 173.19 142.56 175.76 140.67 173.47 143.34 175.45 142.4 172.76 144.97 173.81 145.13 171.17 147.16 171.1 148.4 168.99 149.54"/><polygon class="cls-80" points="168.99 149.55 167.82 151.65 166.58 151.7 164.51 154.3 164.37 153.25 161.76 155.91 162.73 153.94 160.03 156.19 161.96 153.65 159.63 155.09 162.18 152.41 160.63 152.82 163.35 150.46 162.85 149.75 165.28 148.13 165.91 146.42 167.63 145.81 169.29 143.41 169.99 143.92 172.39 141.23 171.96 142.77 174.68 140.27 173.19 142.57 175.76 140.68 173.48 143.35 175.46 142.4 172.77 144.98 173.81 145.14 171.18 147.17 171.11 148.41 168.99 149.55"/><polygon class="cls-81" points="169 149.55 167.83 151.66 166.59 151.71 164.52 154.31 164.38 153.26 161.77 155.91 162.74 153.95 160.04 156.2 161.97 153.65 159.64 155.1 162.18 152.42 160.64 152.83 163.36 150.47 162.86 149.76 165.29 148.14 165.92 146.43 167.64 145.82 169.29 143.42 170 143.93 172.4 141.24 171.97 142.78 174.69 140.27 173.2 142.58 175.77 140.69 173.49 143.36 175.47 142.41 172.78 144.99 173.82 145.14 171.19 147.18 171.12 148.41 169 149.55"/><polygon class="cls-82" points="169.01 149.56 167.84 151.66 166.6 151.71 164.53 154.32 164.39 153.27 161.77 155.92 162.75 153.96 160.05 156.2 161.97 153.66 159.65 155.11 162.19 152.43 160.65 152.83 163.37 150.48 162.87 149.76 165.3 148.14 165.93 146.44 167.65 145.83 169.3 143.42 170.01 143.93 172.4 141.25 171.98 142.79 174.69 140.28 173.21 142.59 175.78 140.7 173.5 143.37 175.47 142.42 172.78 144.99 173.83 145.15 171.2 147.18 171.13 148.42 169.01 149.56"/><polygon class="cls-83" points="169.02 149.57 167.85 151.67 166.61 151.72 164.54 154.32 164.39 153.28 161.78 155.93 162.76 153.97 160.06 156.21 161.98 153.67 159.66 155.12 162.2 152.44 160.65 152.84 163.38 150.49 162.88 149.77 165.3 148.15 165.94 146.44 167.65 145.84 169.31 143.43 170.02 143.94 172.41 141.25 171.99 142.79 174.7 140.29 173.22 142.59 175.79 140.71 173.5 143.37 175.48 142.43 172.79 145 173.84 145.16 171.2 147.19 171.14 148.43 169.02 149.57"/><polygon class="cls-84" points="169.03 149.58 167.85 151.68 166.62 151.73 164.54 154.33 164.4 153.28 161.79 155.94 162.76 153.97 160.06 156.22 161.99 153.68 159.66 155.13 162.21 152.45 160.66 152.85 163.38 150.5 162.88 149.78 165.31 148.16 165.94 146.45 167.66 145.84 169.32 143.44 170.03 143.95 172.42 141.26 171.99 142.8 174.71 140.3 173.23 142.6 175.8 140.71 173.51 143.38 175.49 142.44 172.8 145.01 173.84 145.17 171.21 147.2 171.14 148.44 169.03 149.58"/><polygon class="cls-84" points="169.03 149.59 167.86 151.69 166.62 151.74 164.55 154.34 164.41 153.29 161.8 155.95 162.77 153.98 160.07 156.23 162 153.69 159.67 155.13 162.22 152.46 160.67 152.86 163.39 150.5 162.89 149.79 165.32 148.17 165.95 146.46 167.67 145.85 169.33 143.45 170.03 143.96 172.43 141.27 172 142.81 174.72 140.31 173.24 142.61 175.8 140.72 173.52 143.39 175.5 142.44 172.81 145.02 173.85 145.18 171.22 147.21 171.15 148.44 169.03 149.59"/><polygon class="cls-85" points="169.04 149.59 167.87 151.69 166.63 151.75 164.56 154.35 164.42 153.3 161.81 155.95 162.78 153.99 160.08 156.24 162 153.69 159.68 155.14 162.22 152.46 160.68 152.87 163.4 150.51 162.9 149.8 165.33 148.18 165.96 146.47 167.68 145.86 169.33 143.46 170.04 143.97 172.43 141.28 172.01 142.82 174.72 140.31 173.24 142.62 175.81 140.73 173.53 143.4 175.51 142.45 172.81 145.02 173.86 145.18 171.23 147.22 171.16 148.45 169.04 149.59"/><polygon class="cls-86" points="169.05 149.6 167.88 151.7 166.64 151.75 164.57 154.36 164.43 153.31 161.81 155.96 162.79 154 160.09 156.24 162.01 153.7 159.69 155.15 162.23 152.47 160.69 152.87 163.41 150.52 162.91 149.81 165.34 148.18 165.97 146.48 167.69 145.87 169.34 143.46 170.05 143.97 172.44 141.29 172.02 142.83 174.73 140.32 173.25 142.63 175.82 140.74 173.53 143.41 175.51 142.46 172.82 145.03 173.87 145.19 171.24 147.22 171.17 148.46 169.05 149.6"/><polygon class="cls-86" points="169.06 149.61 167.88 151.71 166.65 151.76 164.58 154.36 164.43 153.32 161.82 155.97 162.8 154.01 160.09 156.25 162.02 153.71 159.69 155.16 162.24 152.48 160.69 152.88 163.41 150.53 162.91 149.81 165.34 148.19 165.98 146.49 167.69 145.88 169.35 143.47 170.06 143.98 172.45 141.29 172.03 142.83 174.74 140.33 173.26 142.63 175.83 140.74 173.54 143.41 175.52 142.47 172.83 145.04 173.88 145.2 171.24 147.23 171.18 148.47 169.06 149.61"/><polygon class="cls-87" points="169.06 149.62 167.89 151.72 166.66 151.77 164.58 154.37 164.44 153.32 161.83 155.98 162.8 154.01 160.1 156.26 162.03 153.72 159.7 155.17 162.25 152.49 160.7 152.89 163.42 150.53 162.92 149.82 165.35 148.2 165.98 146.49 167.7 145.88 169.36 143.48 170.06 143.99 172.46 141.3 172.03 142.84 174.75 140.34 173.27 142.64 175.84 140.75 173.55 143.42 175.53 142.47 172.84 145.05 173.88 145.21 171.25 147.24 171.18 148.48 169.06 149.62"/><polygon class="cls-88" points="169.07 149.63 167.9 151.73 166.66 151.78 164.59 154.38 164.45 153.33 161.84 155.99 162.81 154.02 160.11 156.27 162.03 153.72 159.71 155.18 162.25 152.5 160.71 152.9 163.43 150.54 162.93 149.83 165.36 148.21 165.99 146.5 167.71 145.89 169.37 143.49 170.07 144 172.47 141.31 172.04 142.85 174.76 140.34 173.27 142.65 175.84 140.76 173.56 143.43 175.54 142.48 172.85 145.06 173.89 145.22 171.26 147.25 171.19 148.49 169.07 149.63"/><polygon class="cls-88" points="169.08 149.63 167.91 151.74 166.67 151.79 164.6 154.39 164.46 153.34 161.84 155.99 162.82 154.03 160.12 156.28 162.04 153.73 159.72 155.18 162.26 152.5 160.72 152.91 163.44 150.55 162.94 149.84 165.37 148.22 166 146.51 167.72 145.9 169.37 143.5 170.08 144 172.47 141.32 172.05 142.86 174.76 140.35 173.28 142.66 175.85 140.77 173.57 143.44 175.54 142.49 172.85 145.06 173.9 145.22 171.27 147.26 171.2 148.49 169.08 149.63"/><polygon class="cls-89" points="169.09 149.64 167.92 151.74 166.68 151.79 164.61 154.4 164.46 153.35 161.85 156 162.83 154.04 160.13 156.28 162.05 153.74 159.73 155.19 162.27 152.51 160.72 152.91 163.44 150.56 162.95 149.84 165.37 148.22 166.01 146.52 167.72 145.91 169.38 143.5 170.09 144.01 172.48 141.33 172.06 142.87 174.77 140.36 173.29 142.66 175.86 140.78 173.57 143.44 175.55 142.5 172.86 145.07 173.91 145.23 171.28 147.26 171.21 148.5 169.09 149.64"/><polygon class="cls-90" points="169.09 149.65 167.93 151.75 166.69 151.8 164.62 154.4 164.47 153.36 161.86 156.01 162.84 154.05 160.13 156.29 162.06 153.75 159.73 155.2 162.28 152.52 160.73 152.92 163.45 150.57 162.95 149.85 165.38 148.23 166.02 146.52 167.73 145.92 169.39 143.51 170.09 144.02 172.49 141.33 172.06 142.87 174.78 140.37 173.3 142.67 175.87 140.78 173.58 143.45 175.56 142.51 172.87 145.08 173.91 145.24 171.28 147.27 171.21 148.51 169.09 149.65"/><polygon class="cls-90" points="169.1 149.66 167.93 151.76 166.69 151.81 164.62 154.41 164.48 153.37 161.87 156.02 162.84 154.05 160.14 156.3 162.07 153.76 159.74 155.21 162.28 152.53 160.74 152.93 163.46 150.57 162.96 149.86 165.39 148.24 166.02 146.53 167.74 145.92 169.4 143.52 170.1 144.03 172.5 141.34 172.07 142.88 174.79 140.38 173.31 142.68 175.88 140.79 173.59 143.46 175.57 142.51 172.88 145.09 173.92 145.25 171.29 147.28 171.22 148.52 169.1 149.66"/><polygon class="cls-91" points="169.11 149.66 167.94 151.77 166.7 151.82 164.63 154.42 164.49 153.37 161.88 156.03 162.85 154.06 160.15 156.31 162.07 153.76 159.75 155.21 162.29 152.53 160.75 152.94 163.47 150.58 162.97 149.87 165.4 148.25 166.03 146.54 167.75 145.93 169.4 143.53 170.11 144.04 172.5 141.35 172.08 142.89 174.8 140.38 173.31 142.69 175.88 140.8 173.6 143.47 175.58 142.52 172.88 145.1 173.93 145.25 171.3 147.29 171.23 148.53 169.11 149.66"/><polygon class="cls-92" points="169.12 149.67 167.95 151.78 166.71 151.82 164.64 154.43 164.5 153.38 161.88 156.03 162.86 154.07 160.16 156.31 162.08 153.77 159.76 155.22 162.3 152.54 160.75 152.94 163.48 150.59 162.98 149.88 165.41 148.25 166.04 146.55 167.75 145.94 169.41 143.53 170.12 144.04 172.51 141.36 172.09 142.9 174.8 140.39 173.32 142.7 175.89 140.81 173.61 143.48 175.58 142.53 172.89 145.1 173.94 145.26 171.31 147.29 171.24 148.53 169.12 149.67"/><polygon class="cls-93" points="169.13 149.68 167.96 151.78 166.72 151.83 164.65 154.44 164.5 153.39 161.89 156.04 162.87 154.08 160.16 156.32 162.09 153.78 159.76 155.23 162.31 152.55 160.76 152.95 163.48 150.6 162.99 149.88 165.41 148.26 166.05 146.56 167.76 145.95 169.42 143.54 170.13 144.05 172.52 141.37 172.09 142.91 174.81 140.4 173.33 142.71 175.9 140.82 173.61 143.49 175.59 142.54 172.9 145.11 173.95 145.27 171.31 147.3 171.25 148.54 169.13 149.68"/><polygon class="cls-93" points="169.13 149.69 167.96 151.79 166.72 151.84 164.66 154.44 164.51 153.4 161.9 156.05 162.87 154.09 160.17 156.33 162.1 153.79 159.77 155.24 162.32 152.56 160.77 152.96 163.49 150.61 162.99 149.89 165.42 148.27 166.06 146.56 167.77 145.96 169.43 143.55 170.13 144.06 172.53 141.37 172.1 142.91 174.82 140.41 173.34 142.71 175.91 140.82 173.62 143.49 175.6 142.55 172.91 145.12 173.95 145.28 171.32 147.31 171.25 148.55 169.13 149.69"/><polygon class="cls-94" points="169.14 149.7 167.97 151.8 166.73 151.85 164.66 154.45 164.52 153.4 161.91 156.06 162.88 154.09 160.18 156.34 162.11 153.8 159.78 155.25 162.32 152.57 160.78 152.97 163.5 150.62 163 149.9 165.43 148.28 166.06 146.57 167.78 145.96 169.44 143.56 170.14 144.07 172.54 141.38 172.11 142.92 174.83 140.42 173.34 142.72 175.91 140.83 173.63 143.5 175.61 142.55 172.92 145.13 173.96 145.29 171.33 147.32 171.26 148.56 169.14 149.7"/><polygon class="cls-95" points="169.15 149.71 167.98 151.81 166.74 151.86 164.67 154.46 164.53 153.41 161.91 156.07 162.89 154.1 160.19 156.35 162.11 153.81 159.79 155.25 162.33 152.57 160.79 152.98 163.51 150.62 163.01 149.91 165.44 148.29 166.07 146.58 167.79 145.97 169.44 143.57 170.15 144.08 172.54 141.39 172.12 142.93 174.84 140.43 173.35 142.73 175.92 140.84 173.64 143.51 175.62 142.56 172.92 145.14 173.97 145.29 171.34 147.33 171.27 148.56 169.15 149.71"/><polygon class="cls-95" points="169.16 149.71 167.99 151.81 166.75 151.87 164.68 154.47 164.53 153.42 161.92 156.07 162.9 154.11 160.2 156.35 162.12 153.81 159.8 155.26 162.34 152.58 160.79 152.99 163.52 150.63 163.02 149.92 165.44 148.29 166.08 146.59 167.79 145.98 169.45 143.57 170.16 144.08 172.55 141.4 172.13 142.94 174.84 140.43 173.36 142.74 175.93 140.85 173.65 143.52 175.62 142.57 172.93 145.14 173.98 145.3 171.34 147.34 171.28 148.57 169.16 149.71"/><polygon class="cls-96" points="169.17 149.72 168 151.82 166.76 151.87 164.69 154.48 164.54 153.43 161.93 156.08 162.91 154.12 160.2 156.36 162.13 153.82 159.8 155.27 162.35 152.59 160.8 152.99 163.52 150.64 163.02 149.92 165.45 148.3 166.09 146.6 167.8 145.99 169.46 143.58 170.17 144.09 172.56 141.41 172.13 142.94 174.85 140.44 173.37 142.74 175.94 140.86 173.65 143.53 175.63 142.58 172.94 145.15 173.99 145.31 171.35 147.34 171.28 148.58 169.17 149.72"/><polygon class="cls-97" points="169.17 149.73 168 151.83 166.76 151.88 164.69 154.48 164.55 153.44 161.94 156.09 162.91 154.13 160.21 156.37 162.14 153.83 159.81 155.28 162.36 152.6 160.81 153 163.53 150.65 163.03 149.93 165.46 148.31 166.09 146.6 167.81 146 169.47 143.59 170.17 144.1 172.57 141.41 172.14 142.95 174.86 140.45 173.38 142.75 175.94 140.86 173.66 143.53 175.64 142.59 172.95 145.16 173.99 145.32 171.36 147.35 171.29 148.59 169.17 149.73"/><polygon class="cls-98" points="169.18 149.74 168.01 151.84 166.77 151.89 164.7 154.49 164.56 153.44 161.95 156.1 162.92 154.13 160.22 156.38 162.15 153.84 159.82 155.29 162.36 152.61 160.82 153.01 163.54 150.65 163.04 149.94 165.47 148.32 166.1 146.61 167.82 146 169.47 143.6 170.18 144.11 172.57 141.42 172.15 142.96 174.87 140.46 173.38 142.76 175.95 140.87 173.67 143.54 175.65 142.59 172.96 145.17 174 145.33 171.37 147.36 171.3 148.6 169.18 149.74"/><polygon class="cls-99" points="169.19 149.74 168.02 151.85 166.78 151.9 164.71 154.5 164.57 153.45 161.95 156.1 162.93 154.14 160.23 156.39 162.15 153.84 159.83 155.29 162.37 152.61 160.83 153.02 163.55 150.66 163.05 149.95 165.48 148.33 166.11 146.62 167.83 146.01 169.48 143.61 170.19 144.12 172.58 141.43 172.16 142.97 174.87 140.47 173.39 142.77 175.96 140.88 173.68 143.55 175.66 142.6 172.96 145.18 174.01 145.34 171.38 147.37 171.31 148.6 169.19 149.74"/><polygon class="cls-100" points="169.2 149.75 168.03 151.85 166.79 151.91 164.72 154.51 164.57 153.46 161.96 156.11 162.94 154.15 160.24 156.39 162.16 153.85 159.84 155.3 162.38 152.62 160.83 153.02 163.56 150.67 163.06 149.96 165.48 148.34 166.12 146.63 167.83 146.02 169.49 143.61 170.2 144.12 172.59 141.44 172.17 142.98 174.88 140.47 173.4 142.78 175.97 140.89 173.68 143.56 175.66 142.61 172.97 145.18 174.02 145.34 171.38 147.38 171.32 148.61 169.2 149.75"/><polygon class="cls-100" points="169.21 149.76 168.03 151.86 166.8 151.91 164.73 154.51 164.58 153.47 161.97 156.12 162.94 154.16 160.24 156.4 162.17 153.86 159.84 155.31 162.39 152.63 160.84 153.03 163.56 150.68 163.06 149.96 165.49 148.34 166.13 146.64 167.84 146.03 169.5 143.62 170.21 144.13 172.6 141.44 172.17 142.99 174.89 140.48 173.41 142.78 175.98 140.9 173.69 143.56 175.67 142.62 172.98 145.19 174.03 145.35 171.39 147.38 171.32 148.62 169.21 149.76"/><polygon class="cls-101" points="169.21 149.77 168.04 151.87 166.8 151.92 164.73 154.52 164.59 153.48 161.98 156.13 162.95 154.16 160.25 156.41 162.18 153.87 159.85 155.32 162.4 152.64 160.85 153.04 163.57 150.69 163.07 149.97 165.5 148.35 166.13 146.64 167.85 146.03 169.51 143.63 170.21 144.14 172.61 141.45 172.18 142.99 174.9 140.49 173.41 142.79 175.98 140.9 173.7 143.57 175.68 142.63 172.99 145.2 174.03 145.36 171.4 147.39 171.33 148.63 169.21 149.77"/><polygon class="cls-102" points="169.22 149.78 168.05 151.88 166.81 151.93 164.74 154.53 164.6 153.48 161.99 156.14 162.96 154.17 160.26 156.42 162.18 153.88 159.86 155.33 162.4 152.65 160.86 153.05 163.58 150.69 163.08 149.98 165.51 148.36 166.14 146.65 167.86 146.04 169.51 143.64 170.22 144.15 172.61 141.46 172.19 143 174.91 140.5 173.42 142.8 175.99 140.91 173.71 143.58 175.69 142.63 173 145.21 174.04 145.37 171.41 147.4 171.34 148.64 169.22 149.78"/><polygon class="cls-102" points="169.23 149.78 168.06 151.89 166.82 151.94 164.75 154.54 164.6 153.49 161.99 156.15 162.97 154.18 160.27 156.43 162.19 153.88 159.87 155.33 162.41 152.65 160.87 153.06 163.59 150.7 163.09 149.99 165.51 148.37 166.15 146.66 167.87 146.05 169.52 143.65 170.23 144.16 172.62 141.47 172.2 143.01 174.91 140.5 173.43 142.81 176 140.92 173.72 143.59 175.69 142.64 173 145.22 174.05 145.37 171.42 147.41 171.35 148.64 169.23 149.78"/><polygon class="cls-103" points="169.24 149.79 168.07 151.89 166.83 151.94 164.76 154.55 164.61 153.5 162 156.15 162.98 154.19 160.27 156.43 162.2 153.89 159.88 155.34 162.42 152.66 160.87 153.06 163.59 150.71 163.09 150 165.52 148.37 166.16 146.67 167.87 146.06 169.53 143.65 170.24 144.16 172.63 141.48 172.21 143.02 174.92 140.51 173.44 142.82 176.01 140.93 173.72 143.6 175.7 142.65 173.01 145.22 174.06 145.38 171.42 147.41 171.35 148.65 169.24 149.79"/><polygon class="cls-104" points="169.24 149.8 168.07 151.9 166.84 151.95 164.76 154.56 164.62 153.51 162.01 156.16 162.98 154.2 160.28 156.44 162.21 153.9 159.88 155.35 162.43 152.67 160.88 153.07 163.6 150.72 163.1 150 165.53 148.38 166.16 146.68 167.88 146.07 169.54 143.66 170.24 144.17 172.64 141.49 172.21 143.03 174.93 140.52 173.45 142.82 176.02 140.94 173.73 143.6 175.71 142.66 173.02 145.23 174.06 145.39 171.43 147.42 171.36 148.66 169.24 149.8"/><polygon class="cls-104" points="169.25 149.81 168.08 151.91 166.84 151.96 164.77 154.56 164.63 153.52 162.02 156.17 162.99 154.21 160.29 156.45 162.22 153.91 159.89 155.36 162.43 152.68 160.89 153.08 163.61 150.73 163.11 150.01 165.54 148.39 166.17 146.68 167.89 146.07 169.54 143.67 170.25 144.18 172.65 141.49 172.22 143.03 174.94 140.53 173.45 142.83 176.02 140.94 173.74 143.61 175.72 142.67 173.03 145.24 174.07 145.4 171.44 147.43 171.37 148.67 169.25 149.81"/><polygon class="cls-105" points="169.26 149.82 168.09 151.92 166.85 151.97 164.78 154.57 164.64 153.52 162.02 156.18 163 154.21 160.3 156.46 162.22 153.92 159.9 155.37 162.44 152.69 160.9 153.09 163.62 150.73 163.12 150.02 165.55 148.4 166.18 146.69 167.9 146.08 169.55 143.68 170.26 144.19 172.65 141.5 172.23 143.04 174.94 140.54 173.46 142.84 176.03 140.95 173.75 143.62 175.72 142.67 173.03 145.25 174.08 145.41 171.45 147.44 171.38 148.68 169.26 149.82"/><polygon class="cls-106" points="169.27 149.82 168.1 151.93 166.86 151.98 164.79 154.58 164.64 153.53 162.03 156.19 163.01 154.22 160.31 156.47 162.23 153.92 159.91 155.37 162.45 152.69 160.9 153.1 163.63 150.74 163.13 150.03 165.56 148.41 166.19 146.7 167.9 146.09 169.56 143.69 170.27 144.2 172.66 141.51 172.24 143.05 174.95 140.54 173.47 142.85 176.04 140.96 173.75 143.63 175.73 142.68 173.04 145.25 174.09 145.41 171.46 147.45 171.39 148.68 169.27 149.82"/><polygon class="cls-107" points="169.28 149.83 168.1 151.93 166.87 151.98 164.8 154.59 164.65 153.54 162.04 156.19 163.01 154.23 160.31 156.47 162.24 153.93 159.91 155.38 162.46 152.7 160.91 153.1 163.63 150.75 163.13 150.04 165.56 148.41 166.2 146.71 167.91 146.1 169.57 143.69 170.28 144.2 172.67 141.52 172.24 143.06 174.96 140.55 173.48 142.86 176.05 140.97 173.76 143.64 175.74 142.69 173.05 145.26 174.09 145.42 171.46 147.45 171.39 148.69 169.28 149.83"/><polygon class="cls-108" points="169.28 149.84 168.11 151.94 166.87 151.99 164.8 154.59 164.66 153.55 162.05 156.2 163.02 154.24 160.32 156.48 162.25 153.94 159.92 155.39 162.47 152.71 160.92 153.11 163.64 150.76 163.14 150.04 165.57 148.42 166.2 146.72 167.92 146.11 169.58 143.7 170.28 144.21 172.68 141.53 172.25 143.06 174.97 140.56 173.49 142.86 176.06 140.97 173.77 143.64 175.75 142.7 173.06 145.27 174.1 145.43 171.47 147.46 171.4 148.7 169.28 149.84"/><polygon class="cls-109" points="169.29 149.85 168.12 151.95 166.88 152 164.81 154.6 164.67 153.56 162.06 156.21 163.03 154.24 160.33 156.49 162.25 153.95 159.93 155.4 162.47 152.72 160.93 153.12 163.65 150.77 163.15 150.05 165.58 148.43 166.21 146.72 167.93 146.12 169.58 143.71 170.29 144.22 172.69 141.53 172.26 143.07 174.98 140.57 173.49 142.87 176.06 140.98 173.78 143.65 175.76 142.71 173.07 145.28 174.11 145.44 171.48 147.47 171.41 148.71 169.29 149.85"/><polygon class="cls-109" points="169.3 149.86 168.13 151.96 166.89 152.01 164.82 154.61 164.68 153.56 162.06 156.22 163.04 154.25 160.34 156.5 162.26 153.96 159.94 155.41 162.48 152.72 160.94 153.13 163.66 150.77 163.16 150.06 165.59 148.44 166.22 146.73 167.94 146.12 169.59 143.72 170.3 144.23 172.69 141.54 172.27 143.08 174.98 140.58 173.5 142.88 176.07 140.99 173.79 143.66 175.76 142.71 173.07 145.29 174.12 145.45 171.49 147.48 171.42 148.72 169.3 149.86"/><polygon class="cls-110" points="169.31 149.86 168.14 151.97 166.9 152.02 164.83 154.62 164.68 153.57 162.07 156.22 163.05 154.26 160.34 156.51 162.27 153.96 159.94 155.41 162.49 152.73 160.94 153.14 163.66 150.78 163.16 150.07 165.59 148.45 166.23 146.74 167.94 146.13 169.6 143.73 170.31 144.24 172.7 141.55 172.28 143.09 174.99 140.58 173.51 142.89 176.08 141 173.79 143.67 175.77 142.72 173.08 145.29 174.13 145.45 171.49 147.49 171.43 148.72 169.31 149.86"/><polygon class="cls-111" points="169.31 149.87 168.14 151.97 166.91 152.02 164.84 154.63 164.69 153.58 162.08 156.23 163.05 154.27 160.35 156.51 162.28 153.97 159.95 155.42 162.5 152.74 160.95 153.14 163.67 150.79 163.17 150.08 165.6 148.45 166.24 146.75 167.95 146.14 169.61 143.73 170.31 144.24 172.71 141.56 172.28 143.1 175 140.59 173.52 142.9 176.09 141.01 173.8 143.68 175.78 142.73 173.09 145.3 174.13 145.46 171.5 147.49 171.43 148.73 169.31 149.87"/><polygon class="cls-112" points="169.32 149.88 168.15 151.98 166.91 152.03 164.84 154.63 164.7 153.59 162.09 156.24 163.06 154.28 160.36 156.52 162.29 153.98 159.96 155.43 162.5 152.75 160.96 153.15 163.68 150.8 163.18 150.08 165.61 148.46 166.24 146.75 167.96 146.15 169.62 143.74 170.32 144.25 172.72 141.56 172.29 143.1 175.01 140.6 173.53 142.9 176.09 141.01 173.81 143.68 175.79 142.74 173.1 145.31 174.14 145.47 171.51 147.5 171.44 148.74 169.32 149.88"/><polygon class="cls-113" points="169.33 149.89 168.16 151.99 166.92 152.04 164.85 154.64 164.71 153.59 162.09 156.25 163.07 154.28 160.37 156.53 162.29 153.99 159.97 155.44 162.51 152.76 160.97 153.16 163.69 150.81 163.19 150.09 165.62 148.47 166.25 146.76 167.97 146.15 169.62 143.75 170.33 144.26 172.72 141.57 172.3 143.11 175.01 140.61 173.53 142.91 176.1 141.02 173.82 143.69 175.8 142.75 173.1 145.32 174.15 145.48 171.52 147.51 171.45 148.75 169.33 149.89"/><polygon class="cls-114" points="169.34 149.9 168.17 152 166.93 152.05 164.86 154.65 164.72 153.6 162.1 156.26 163.08 154.29 160.38 156.54 162.3 154 159.98 155.44 162.52 152.76 160.97 153.17 163.7 150.81 163.2 150.1 165.63 148.48 166.26 146.77 167.97 146.16 169.63 143.76 170.34 144.27 172.73 141.58 172.31 143.12 175.02 140.62 173.54 142.92 176.11 141.03 173.82 143.7 175.8 142.75 173.11 145.33 174.16 145.49 171.53 147.52 171.46 148.76 169.34 149.9"/><polygon class="cls-115" points="169.35 149.9 168.18 152 166.94 152.06 164.87 154.66 164.72 153.61 162.11 156.26 163.09 154.3 160.38 156.54 162.31 154 159.99 155.45 162.53 152.77 160.98 153.18 163.7 150.82 163.2 150.11 165.63 148.49 166.27 146.78 167.98 146.17 169.64 143.76 170.35 144.28 172.74 141.59 172.31 143.13 175.03 140.62 173.55 142.93 176.12 141.04 173.83 143.71 175.81 142.76 173.12 145.33 174.17 145.49 171.53 147.53 171.47 148.76 169.35 149.9"/><polygon class="cls-116" points="169.35 149.91 168.18 152.01 166.94 152.06 164.87 154.67 164.73 153.62 162.12 156.27 163.09 154.31 160.39 156.55 162.32 154.01 159.99 155.46 162.54 152.78 160.99 153.18 163.71 150.83 163.21 150.12 165.64 148.49 166.27 146.79 167.99 146.18 169.65 143.77 170.35 144.28 172.75 141.6 172.32 143.14 175.04 140.63 173.56 142.94 176.13 141.05 173.84 143.72 175.82 142.77 173.13 145.34 174.17 145.5 171.54 147.53 171.47 148.77 169.35 149.91"/><polygon class="cls-117" points="169.36 149.92 168.19 152.02 166.95 152.07 164.88 154.67 164.74 153.63 162.13 156.28 163.1 154.32 160.4 156.56 162.32 154.02 160 155.47 162.54 152.79 161 153.19 163.72 150.84 163.22 150.12 165.65 148.5 166.28 146.79 168 146.19 169.66 143.78 170.36 144.29 172.75 141.6 172.33 143.14 175.05 140.64 173.56 142.94 176.13 141.06 173.85 143.72 175.83 142.78 173.14 145.35 174.18 145.51 171.55 147.54 171.48 148.78 169.36 149.92"/><polygon class="cls-118" points="169.37 149.93 168.2 152.03 166.96 152.08 164.89 154.68 164.75 153.63 162.13 156.29 163.11 154.32 160.41 156.57 162.33 154.03 160.01 155.48 162.55 152.8 161.01 153.2 163.73 150.84 163.23 150.13 165.66 148.51 166.29 146.8 168.01 146.19 169.66 143.79 170.37 144.3 172.76 141.61 172.34 143.15 175.05 140.65 173.57 142.95 176.14 141.06 173.86 143.73 175.84 142.78 173.14 145.36 174.19 145.52 171.56 147.55 171.49 148.79 169.37 149.93"/><polygon class="cls-119" points="169.38 149.94 168.21 152.04 166.97 152.09 164.9 154.69 164.75 153.64 162.14 156.3 163.12 154.33 160.41 156.58 162.34 154.03 160.02 155.49 162.56 152.81 161.01 153.21 163.74 150.85 163.24 150.14 165.66 148.52 166.3 146.81 168.01 146.2 169.67 143.8 170.38 144.31 172.77 141.62 172.35 143.16 175.06 140.66 173.58 142.96 176.15 141.07 173.86 143.74 175.84 142.79 173.15 145.37 174.2 145.53 171.56 147.56 171.5 148.79 169.38 149.94"/><polygon class="cls-120" points="169.38 149.94 168.22 152.04 166.98 152.1 164.91 154.7 164.76 153.65 162.15 156.3 163.13 154.34 160.42 156.59 162.35 154.04 160.02 155.49 162.57 152.81 161.02 153.22 163.74 150.86 163.24 150.15 165.67 148.53 166.31 146.82 168.02 146.21 169.68 143.81 170.38 144.31 172.78 141.63 172.35 143.17 175.07 140.66 173.59 142.97 176.16 141.08 173.87 143.75 175.85 142.8 173.16 145.37 174.21 145.53 171.57 147.57 171.5 148.8 169.38 149.94"/><polygon class="cls-120" points="169.39 149.95 168.22 152.05 166.98 152.1 164.91 154.71 164.77 153.66 162.16 156.31 163.13 154.35 160.43 156.59 162.36 154.05 160.03 155.5 162.57 152.82 161.03 153.22 163.75 150.87 163.25 150.16 165.68 148.53 166.31 146.83 168.03 146.22 169.69 143.81 170.39 144.32 172.79 141.64 172.36 143.18 175.08 140.67 173.59 142.97 176.16 141.09 173.88 143.75 175.86 142.81 173.17 145.38 174.21 145.54 171.58 147.57 171.51 148.81 169.39 149.95"/><polygon class="cls-121" points="169.4 149.96 168.23 152.06 166.99 152.11 164.92 154.71 164.78 153.67 162.16 156.32 163.14 154.36 160.44 156.6 162.36 154.06 160.04 155.51 162.58 152.83 161.04 153.23 163.76 150.88 163.26 150.16 165.69 148.54 166.32 146.83 168.04 146.23 169.69 143.82 170.4 144.33 172.79 141.64 172.37 143.18 175.09 140.68 173.6 142.98 176.17 141.09 173.89 143.76 175.87 142.82 173.18 145.39 174.22 145.55 171.59 147.58 171.52 148.82 169.4 149.96"/><polygon class="cls-122" points="169.41 149.97 168.24 152.07 167 152.12 164.93 154.72 164.78 153.68 162.17 156.33 163.15 154.36 160.45 156.61 162.37 154.07 160.05 155.52 162.59 152.84 161.04 153.24 163.77 150.88 163.27 150.17 165.7 148.55 166.33 146.84 168.04 146.23 169.7 143.83 170.41 144.34 172.8 141.65 172.38 143.19 175.09 140.69 173.61 142.99 176.18 141.1 173.9 143.77 175.87 142.82 173.18 145.4 174.23 145.56 171.6 147.59 171.53 148.83 169.41 149.97"/><polygon class="cls-122" points="169.42 149.97 168.25 152.08 167.01 152.13 164.94 154.73 164.79 153.68 162.18 156.34 163.16 154.37 160.45 156.62 162.38 154.07 160.06 155.52 162.6 152.84 161.05 153.25 163.77 150.89 163.28 150.18 165.7 148.56 166.34 146.85 168.05 146.24 169.71 143.84 170.42 144.35 172.81 141.66 172.38 143.2 175.1 140.69 173.62 143 176.19 141.11 173.9 143.78 175.88 142.83 173.19 145.41 174.24 145.56 171.6 147.6 171.53 148.84 169.42 149.97"/><polygon class="cls-123" points="169.42 149.98 168.25 152.09 167.01 152.13 164.94 154.74 164.8 153.69 162.19 156.34 163.16 154.38 160.46 156.63 162.39 154.08 160.06 155.53 162.61 152.85 161.06 153.25 163.78 150.9 163.28 150.19 165.71 148.56 166.34 146.86 168.06 146.25 169.72 143.84 170.42 144.35 172.82 141.67 172.39 143.21 175.11 140.7 173.63 143.01 176.2 141.12 173.91 143.79 175.89 142.84 173.2 145.41 174.24 145.57 171.61 147.6 171.54 148.84 169.42 149.98"/><polygon class="cls-124" points="169.43 149.99 168.26 152.09 167.02 152.14 164.95 154.75 164.81 153.7 162.2 156.35 163.17 154.39 160.47 156.63 162.4 154.09 160.07 155.54 162.61 152.86 161.07 153.26 163.79 150.91 163.29 150.19 165.72 148.57 166.35 146.87 168.07 146.26 169.72 143.85 170.43 144.36 172.83 141.68 172.4 143.22 175.12 140.71 173.63 143.01 176.2 141.13 173.92 143.79 175.9 142.85 173.21 145.42 174.25 145.58 171.62 147.61 171.55 148.85 169.43 149.99"/><polygon class="cls-124" points="169.44 150 168.27 152.1 167.03 152.15 164.96 154.75 164.82 153.71 162.21 156.36 163.18 154.4 160.48 156.64 162.4 154.1 160.08 155.55 162.62 152.87 161.08 153.27 163.8 150.92 163.3 150.2 165.73 148.58 166.36 146.87 168.08 146.27 169.73 143.86 170.44 144.37 172.83 141.68 172.41 143.22 175.13 140.72 173.64 143.02 176.21 141.13 173.93 143.8 175.91 142.86 173.21 145.43 174.26 145.59 171.63 147.62 171.56 148.86 169.44 150"/><polygon class="cls-125" points="169.45 150.01 168.28 152.11 167.04 152.16 164.97 154.76 164.82 153.71 162.21 156.37 163.19 154.4 160.49 156.65 162.41 154.11 160.09 155.56 162.63 152.88 161.08 153.28 163.81 150.93 163.31 150.21 165.74 148.59 166.37 146.88 168.08 146.27 169.74 143.87 170.45 144.38 172.84 141.69 172.42 143.23 175.13 140.73 173.65 143.03 176.22 141.14 173.94 143.81 175.91 142.87 173.22 145.44 174.27 145.6 171.63 147.63 171.57 148.87 169.45 150.01"/><polygon class="cls-126" points="169.46 150.01 168.28 152.12 167.05 152.17 164.98 154.77 164.83 153.72 162.22 156.38 163.19 154.41 160.49 156.66 162.42 154.12 160.09 155.56 162.64 152.88 161.09 153.29 163.81 150.93 163.31 150.22 165.74 148.6 166.38 146.89 168.09 146.28 169.75 143.88 170.46 144.39 172.85 141.7 172.42 143.24 175.14 140.74 173.66 143.04 176.23 141.15 173.94 143.82 175.92 142.87 173.23 145.45 174.28 145.6 171.64 147.64 171.57 148.88 169.46 150.01"/><polygon class="cls-127" points="169.46 150.02 168.29 152.13 167.05 152.18 164.98 154.78 164.84 153.73 162.23 156.38 163.2 154.42 160.5 156.66 162.43 154.12 160.1 155.57 162.65 152.89 161.1 153.29 163.82 150.94 163.32 150.23 165.75 148.6 166.38 146.9 168.1 146.29 169.76 143.88 170.46 144.39 172.86 141.71 172.43 143.25 175.15 140.74 173.67 143.05 176.24 141.16 173.95 143.83 175.93 142.88 173.24 145.45 174.28 145.61 171.65 147.65 171.58 148.88 169.46 150.02"/><polygon class="cls-128" points="169.47 150.03 168.3 152.13 167.06 152.18 164.99 154.79 164.85 153.74 162.24 156.39 163.21 154.43 160.51 156.67 162.44 154.13 160.11 155.58 162.65 152.9 161.11 153.3 163.83 150.95 163.33 150.24 165.76 148.61 166.39 146.91 168.11 146.3 169.76 143.89 170.47 144.4 172.87 141.72 172.44 143.25 175.16 140.75 173.67 143.05 176.24 141.17 173.96 143.84 175.94 142.89 173.25 145.46 174.29 145.62 171.66 147.65 171.59 148.89 169.47 150.03"/><polygon class="cls-129" points="169.48 150.04 168.31 152.14 167.07 152.19 165 154.79 164.86 153.75 162.24 156.4 163.22 154.44 160.52 156.68 162.44 154.14 160.12 155.59 162.66 152.91 161.12 153.31 163.84 150.96 163.34 150.24 165.77 148.62 166.4 146.91 168.12 146.31 169.77 143.9 170.48 144.41 172.87 141.72 172.45 143.26 175.16 140.76 173.68 143.06 176.25 141.17 173.97 143.84 175.94 142.9 173.25 145.47 174.3 145.63 171.67 147.66 171.6 148.9 169.48 150.04"/><polygon class="cls-130" points="169.49 150.05 168.32 152.15 167.08 152.2 165.01 154.8 164.86 153.75 162.25 156.41 163.23 154.44 160.53 156.69 162.45 154.15 160.13 155.6 162.67 152.92 161.12 153.32 163.84 150.97 163.34 150.25 165.77 148.63 166.41 146.92 168.12 146.31 169.78 143.91 170.49 144.42 172.88 141.73 172.46 143.27 175.17 140.77 173.69 143.07 176.26 141.18 173.97 143.85 175.95 142.9 173.26 145.48 174.31 145.64 171.67 147.67 171.61 148.91 169.49 150.05"/><polygon class="cls-131" points="169.5 150.05 168.32 152.16 167.09 152.21 165.01 154.81 164.87 153.76 162.26 156.42 163.24 154.45 160.53 156.7 162.46 154.16 160.13 155.6 162.68 152.92 161.13 153.33 163.85 150.97 163.35 150.26 165.78 148.64 166.41 146.93 168.13 146.32 169.79 143.92 170.5 144.43 172.89 141.74 172.46 143.28 175.18 140.78 173.7 143.08 176.27 141.19 173.98 143.86 175.96 142.91 173.27 145.49 174.31 145.65 171.68 147.68 171.61 148.91 169.5 150.05"/><polygon class="cls-132" points="169.5 150.06 168.33 152.16 167.09 152.22 165.02 154.82 164.88 153.77 162.27 156.42 163.24 154.46 160.54 156.7 162.47 154.16 160.14 155.61 162.69 152.93 161.14 153.34 163.86 150.98 163.36 150.27 165.79 148.65 166.42 146.94 168.14 146.33 169.8 143.92 170.5 144.43 172.9 141.75 172.47 143.29 175.19 140.78 173.71 143.09 176.27 141.2 173.99 143.87 175.97 142.92 173.28 145.49 174.32 145.65 171.69 147.69 171.62 148.92 169.5 150.06"/><polygon class="cls-133" points="169.51 150.07 168.34 152.17 167.1 152.22 165.03 154.83 164.89 153.78 162.28 156.43 163.25 154.47 160.55 156.71 162.47 154.17 160.15 155.62 162.69 152.94 161.15 153.34 163.87 150.99 163.37 150.27 165.8 148.65 166.43 146.95 168.15 146.34 169.8 143.93 170.51 144.44 172.9 141.75 172.48 143.29 175.19 140.79 173.71 143.09 176.28 141.21 174 143.88 175.98 142.93 173.28 145.5 174.33 145.66 171.7 147.69 171.63 148.93 169.51 150.07"/><polygon class="cls-133" points="169.52 150.08 168.35 152.18 167.11 152.23 165.04 154.83 164.9 153.79 162.28 156.44 163.26 154.47 160.56 156.72 162.48 154.18 160.16 155.63 162.7 152.95 161.16 153.35 163.88 151 163.38 150.28 165.81 148.66 166.44 146.95 168.16 146.34 169.81 143.94 170.52 144.45 172.91 141.76 172.49 143.3 175.2 140.8 173.72 143.1 176.29 141.21 174 143.88 175.98 142.94 173.29 145.51 174.34 145.67 171.71 147.7 171.64 148.94 169.52 150.08"/><polygon class="cls-134" points="169.53 150.09 168.36 152.19 167.12 152.24 165.05 154.84 164.9 153.79 162.29 156.45 163.27 154.48 160.56 156.73 162.49 154.19 160.16 155.64 162.71 152.96 161.16 153.36 163.88 151 163.38 150.29 165.81 148.67 166.45 146.96 168.16 146.35 169.82 143.95 170.53 144.46 172.92 141.77 172.5 143.31 175.21 140.81 173.73 143.11 176.3 141.22 174.01 143.89 175.99 142.94 173.3 145.52 174.35 145.68 171.71 147.71 171.65 148.95 169.53 150.09"/><polygon class="cls-135" points="169.53 150.09 168.36 152.2 167.13 152.25 165.06 154.85 164.91 153.8 162.3 156.46 163.27 154.49 160.57 156.74 162.5 154.19 160.17 155.64 162.72 152.96 161.17 153.37 163.89 151.01 163.39 150.3 165.82 148.68 166.46 146.97 168.17 146.36 169.83 143.96 170.53 144.47 172.93 141.78 172.5 143.32 175.22 140.81 173.74 143.12 176.31 141.23 174.02 143.9 176 142.95 173.31 145.53 174.35 145.68 171.72 147.72 171.65 148.95 169.53 150.09"/><polygon class="cls-136" points="169.54 150.1 168.37 152.2 167.13 152.25 165.06 154.86 164.92 153.81 162.31 156.46 163.28 154.5 160.58 156.74 162.5 154.2 160.18 155.65 162.72 152.97 161.18 153.37 163.9 151.02 163.4 150.31 165.83 148.69 166.46 146.98 168.18 146.37 169.84 143.96 170.54 144.47 172.94 141.79 172.51 143.33 175.23 140.82 173.74 143.13 176.31 141.24 174.03 143.91 176.01 142.96 173.32 145.53 174.36 145.69 171.73 147.72 171.66 148.96 169.54 150.1"/><polygon class="cls-137" points="169.55 150.11 168.38 152.21 167.14 152.26 165.07 154.87 164.93 153.82 162.31 156.47 163.29 154.51 160.59 156.75 162.51 154.21 160.19 155.66 162.73 152.98 161.19 153.38 163.91 151.03 163.41 150.31 165.84 148.69 166.47 146.99 168.19 146.38 169.84 143.97 170.55 144.48 172.94 141.79 172.52 143.34 175.24 140.83 173.75 143.13 176.32 141.25 174.04 143.91 176.01 142.97 173.32 145.54 174.37 145.7 171.74 147.73 171.67 148.97 169.55 150.11"/><polygon class="cls-138" points="169.56 150.12 168.39 152.22 167.15 152.27 165.08 154.87 164.93 153.83 162.32 156.48 163.3 154.51 160.59 156.76 162.52 154.22 160.2 155.67 162.74 152.99 161.19 153.39 163.91 151.04 163.42 150.32 165.84 148.7 166.48 146.99 168.19 146.38 169.85 143.98 170.56 144.49 172.95 141.8 172.53 143.34 175.24 140.84 173.76 143.14 176.33 141.25 174.04 143.92 176.02 142.98 173.33 145.55 174.38 145.71 171.75 147.74 171.68 148.98 169.56 150.12"/><polygon class="cls-139" points="169.56 150.13 168.4 152.23 167.16 152.28 165.09 154.88 164.94 153.83 162.33 156.49 163.31 154.52 160.6 156.77 162.53 154.23 160.2 155.68 162.75 153 161.2 153.4 163.92 151.04 163.42 150.33 165.85 148.71 166.49 147 168.2 146.39 169.86 143.99 170.56 144.5 172.96 141.81 172.53 143.35 175.25 140.85 173.77 143.15 176.34 141.26 174.05 143.93 176.03 142.98 173.34 145.56 174.38 145.72 171.75 147.75 171.68 148.99 169.56 150.13"/><polygon class="cls-140" points="169.57 150.13 168.4 152.24 167.16 152.29 165.09 154.89 164.95 153.84 162.34 156.5 163.31 154.53 160.61 156.78 162.54 154.23 160.21 155.68 162.75 153 161.21 153.41 163.93 151.05 163.43 150.34 165.86 148.72 166.49 147.01 168.21 146.4 169.87 144 170.57 144.51 172.97 141.82 172.54 143.36 175.26 140.85 173.78 143.16 176.34 141.27 174.06 143.94 176.04 142.99 173.35 145.56 174.39 145.72 171.76 147.76 171.69 148.99 169.57 150.13"/><polygon class="cls-140" points="169.58 150.14 168.41 152.24 167.17 152.29 165.1 154.9 164.96 153.85 162.35 156.5 163.32 154.54 160.62 156.78 162.54 154.24 160.22 155.69 162.76 153.01 161.22 153.41 163.94 151.06 163.44 150.35 165.87 148.72 166.5 147.02 168.22 146.41 169.87 144 170.58 144.51 172.97 141.83 172.55 143.37 175.27 140.86 173.78 143.17 176.35 141.28 174.07 143.95 176.05 143 173.35 145.57 174.4 145.73 171.77 147.76 171.7 149 169.58 150.14"/><polygon class="cls-141" points="169.59 150.15 168.42 152.25 167.18 152.3 165.11 154.91 164.97 153.86 162.35 156.51 163.33 154.55 160.63 156.79 162.55 154.25 160.23 155.7 162.77 153.02 161.22 153.42 163.95 151.07 163.45 150.35 165.88 148.73 166.51 147.03 168.22 146.42 169.88 144.01 170.59 144.52 172.98 141.84 172.56 143.37 175.27 140.87 173.79 143.17 176.36 141.28 174.08 143.95 176.06 143.01 173.36 145.58 174.41 145.74 171.78 147.77 171.71 149.01 169.59 150.15"/><polygon class="cls-142" points="169.6 150.16 168.43 152.26 167.19 152.31 165.12 154.91 164.97 153.87 162.36 156.52 163.34 154.55 160.63 156.8 162.56 154.26 160.24 155.71 162.78 153.03 161.23 153.43 163.95 151.08 163.46 150.36 165.88 148.74 166.52 147.03 168.23 146.43 169.89 144.02 170.6 144.53 172.99 141.84 172.56 143.38 175.28 140.88 173.8 143.18 176.37 141.29 174.08 143.96 176.06 143.02 173.37 145.59 174.42 145.75 171.78 147.78 171.72 149.02 169.6 150.16"/><polygon class="cls-142" points="169.6 150.17 168.43 152.27 167.19 152.32 165.13 154.92 164.98 153.87 162.37 156.53 163.34 154.56 160.64 156.81 162.57 154.27 160.24 155.72 162.79 153.04 161.24 153.44 163.96 151.08 163.46 150.37 165.89 148.75 166.53 147.04 168.24 146.43 169.9 144.03 170.6 144.54 173 141.85 172.57 143.39 175.29 140.89 173.81 143.19 176.38 141.3 174.09 143.97 176.07 143.02 173.38 145.6 174.42 145.76 171.79 147.79 171.72 149.03 169.6 150.17"/><polygon class="cls-143" points="169.61 150.17 168.44 152.28 167.2 152.33 165.13 154.93 164.99 153.88 162.38 156.53 163.35 154.57 160.65 156.82 162.58 154.27 160.25 155.72 162.79 153.04 161.25 153.45 163.97 151.09 163.47 150.38 165.9 148.76 166.53 147.05 168.25 146.44 169.91 144.04 170.61 144.54 173.01 141.86 172.58 143.4 175.3 140.89 173.81 143.2 176.38 141.31 174.1 143.98 176.08 143.03 173.39 145.6 174.43 145.76 171.8 147.8 171.73 149.03 169.61 150.17"/><polygon class="cls-143" points="169.62 150.18 168.45 152.28 167.21 152.33 165.14 154.94 165 153.89 162.38 156.54 163.36 154.58 160.66 156.82 162.58 154.28 160.26 155.73 162.8 153.05 161.26 153.45 163.98 151.1 163.48 150.39 165.91 148.76 166.54 147.06 168.26 146.45 169.91 144.04 170.62 144.55 173.01 141.87 172.59 143.41 175.31 140.9 173.82 143.21 176.39 141.32 174.11 143.99 176.09 143.04 173.4 145.61 174.44 145.77 171.81 147.8 171.74 149.04 169.62 150.18"/><polygon class="cls-144" points="169.63 150.19 168.46 152.29 167.22 152.34 165.15 154.94 165 153.9 162.39 156.55 163.37 154.59 160.67 156.83 162.59 154.29 160.27 155.74 162.81 153.06 161.26 153.46 163.99 151.11 163.49 150.39 165.91 148.77 166.55 147.06 168.26 146.46 169.92 144.05 170.63 144.56 173.02 141.87 172.6 143.41 175.31 140.91 173.83 143.21 176.4 141.32 174.12 143.99 176.09 143.05 173.4 145.62 174.45 145.78 171.81 147.81 171.75 149.05 169.63 150.19"/><polygon class="cls-144" points="169.64 150.2 168.47 152.3 167.23 152.35 165.16 154.95 165.01 153.91 162.4 156.56 163.38 154.59 160.67 156.84 162.6 154.3 160.27 155.75 162.82 153.07 161.27 153.47 163.99 151.12 163.49 150.4 165.92 148.78 166.56 147.07 168.27 146.46 169.93 144.06 170.64 144.57 173.03 141.88 172.6 143.42 175.32 140.92 173.84 143.22 176.41 141.33 174.12 144 176.1 143.06 173.41 145.63 174.46 145.79 171.82 147.82 171.75 149.06 169.64 150.2"/><polygon class="cls-145" points="169.64 150.21 168.47 152.31 167.24 152.36 165.16 154.96 165.02 153.91 162.41 156.57 163.38 154.6 160.68 156.85 162.61 154.31 160.28 155.75 162.83 153.07 161.28 153.48 164 151.12 163.5 150.41 165.93 148.79 166.56 147.08 168.28 146.47 169.94 144.07 170.64 144.58 173.04 141.89 172.61 143.43 175.33 140.93 173.85 143.23 176.41 141.34 174.13 144.01 176.11 143.06 173.42 145.64 174.46 145.8 171.83 147.83 171.76 149.07 169.64 150.21"/><polygon class="cls-146" points="169.65 150.21 168.48 152.31 167.24 152.37 165.17 154.97 165.03 153.92 162.42 156.57 163.39 154.61 160.69 156.86 162.62 154.31 160.29 155.76 162.83 153.08 161.29 153.49 164.01 151.13 163.51 150.42 165.94 148.8 166.57 147.09 168.29 146.48 169.94 144.07 170.65 144.59 173.04 141.9 172.62 143.44 175.34 140.93 173.85 143.24 176.42 141.35 174.14 144.02 176.12 143.07 173.43 145.64 174.47 145.8 171.84 147.84 171.77 149.07 169.65 150.21"/><path class="cls-147" d="M181,160.07s7.33-7.58.3-14.39c-3-2.91-8.8,3.7-8.8,3.7l-2.24-2.17s-.85-.82-2.08.45-.39,2.1-.39,2.1l2.25,2.17s-6.42,6-3.41,8.91C173.67,167.64,181,160.07,181,160.07Z" transform="translate(0 0)"/><ellipse class="cls-148" cx="174.69" cy="160.39" rx="2.16" ry="1.94"/><path class="cls-149" d="M84.26,8.29h3.57v.06a7.23,7.23,0,0,0-2.37,5.51,7.25,7.25,0,0,0,2.37,5.52v.06H84.26Z" transform="translate(0 0)"/><path class="cls-149" d="M93.62,10.86c0,.05-.08.1-.14.12a12.35,12.35,0,0,1-1.73,2.83c.57.39,1.75,1.25,2.06,1.49l-.48.67c-.33-.33-1.1-1-1.69-1.44v4.92h-.8V14.83A12.19,12.19,0,0,1,89,16.4a3.05,3.05,0,0,0-.43-.7,11.44,11.44,0,0,0,4-4.37H88.83v-.74h2V8.3l1,.06c0,.08-.08.14-.24.16v2.07h1.3l.14-.05Zm3.43,7.43H100v.79H93.09v-.79h3.14v-5.2H93.57v-.78h2.66V8.38l1.07.07c0,.09-.08.15-.25.17v3.69H99.7v.78H97.05Z" transform="translate(0 0)"/><path class="cls-149" d="M105.13,17.94a.38.38,0,0,1-.24.08,14.26,14.26,0,0,1-3.54,1.42,4.75,4.75,0,0,0-.59-.6,12.62,12.62,0,0,0,3.54-1.39ZM102,12.22h8.57v5.2H102Zm.68-3.44h7.2v2.7h-7.2Zm.12,4.05v.92h7v-.92Zm0,1.51v.94h7v-.94Zm0,1.52v.95h7v-.95Zm.69-6.41v1.34h5.55V9.45Zm7.66,10A31.32,31.32,0,0,0,107.32,18l.71-.53a39.56,39.56,0,0,1,3.81,1.4Z" transform="translate(0 0)"/><path class="cls-149" d="M120.07,17.75a20.9,20.9,0,0,0,2.51-.18c0,.26,0,.6,0,.86a24.24,24.24,0,0,1-2.48.13h-3c-1.81,0-2.68-.78-2.68-2.49v-7l1.17.08c0,.12-.11.19-.32.22v3.9a39,39,0,0,0,6-2.37l.61.83a.31.31,0,0,1-.13,0,.63.63,0,0,1-.19,0,45.13,45.13,0,0,1-6.24,2.36v2c0,1.22.58,1.67,1.82,1.67Zm2.49-9.56a1.35,1.35,0,1,1-1.35,1.34A1.34,1.34,0,0,1,122.56,8.19Zm.94,1.34a.95.95,0,1,0-.94,1A.95.95,0,0,0,123.5,9.53Z" transform="translate(0 0)"/><path class="cls-149" d="M126.12,9.6a14.91,14.91,0,0,1,3.57,1.64l-.45.75a15.46,15.46,0,0,0-3.51-1.67Zm-.05,8.32c4.26-1.32,7.09-3.71,8.53-7a4.39,4.39,0,0,0,.78.49,13.76,13.76,0,0,1-8.5,7.2.4.4,0,0,1-.16.27Z" transform="translate(0 0)"/><path class="cls-149" d="M140.77,10.5a.31.31,0,0,1-.31.18,18.13,18.13,0,0,1-2.88,7.69,3.68,3.68,0,0,0-.81-.43c1.35-1.63,2.4-4.68,2.79-7.69Zm6,7.8a39.73,39.73,0,0,0-3.19-7.72l.78-.38A39,39,0,0,1,147.68,18Zm-1.74-9.64a8.42,8.42,0,0,1,1.46,1.77l-.45.34A10.16,10.16,0,0,0,144.61,9ZM146.64,8a10.3,10.3,0,0,1,1.48,1.77l-.47.34a9.61,9.61,0,0,0-1.46-1.76Z" transform="translate(0 0)"/><path class="cls-149" d="M151,11.85a13.24,13.24,0,0,1,.9,2.58l-.67.18a13.91,13.91,0,0,0-.88-2.56Zm7.16.08c0,.11-.15.13-.25.12-.94,3.5-2.7,5.65-5.6,6.83a4,4,0,0,0-.47-.56c2.86-1.12,4.51-3.09,5.38-6.66Zm-4.25-.66a17.37,17.37,0,0,1,.57,2.72l-.71.14a14.43,14.43,0,0,0-.56-2.7Z" transform="translate(0 0)"/><path class="cls-149" d="M171.21,13.79H167a6.28,6.28,0,0,1-3.37,5.35,7.32,7.32,0,0,0-.67-.58,5.59,5.59,0,0,0,3.19-4.77h-4.89V13h4.95c.06-.79.06-1.61.07-2.57a40.21,40.21,0,0,1-4.12.69,4,4,0,0,0-.26-.7,29.26,29.26,0,0,0,7.44-1.66l.64.71a.29.29,0,0,1-.16,0h-.13a26.6,26.6,0,0,1-2.69.79l.4,0c0,.11-.1.18-.25.21,0,.9,0,1.71-.08,2.47h4.12Z" transform="translate(0 0)"/><path class="cls-149" d="M174.31,12.53a14.17,14.17,0,0,1-1.46,2,7.06,7.06,0,0,0-.42-.75,15.88,15.88,0,0,0,3-5.4l1,.32c0,.09-.13.12-.27.11A22,22,0,0,1,175,11.3l.33.08a.24.24,0,0,1-.24.14v8h-.78ZM183.44,15h-3.23a5.13,5.13,0,0,1-.72,2.26A10.35,10.35,0,0,0,184,18.7a3.3,3.3,0,0,0-.51.75A10.2,10.2,0,0,1,179,17.87a6.5,6.5,0,0,1-2.91,1.61,3.12,3.12,0,0,0-.5-.68,5.85,5.85,0,0,0,2.79-1.42A5.7,5.7,0,0,1,177,15.55l.73-.24a4.74,4.74,0,0,0,1.14,1.47,4.25,4.25,0,0,0,.55-1.78h-3V11.68h3V10.42h-3.43V9.68h3.43V8.39l1,.06c0,.09-.07.15-.24.17V9.68h3.59v.74h-3.59v1.26h3.17Zm-6.27-.69h2.3c0-.21,0-.4,0-.6V12.36h-2.31Zm5.49-2h-2.39v1.35c0,.2,0,.39,0,.6h2.4Z" transform="translate(0 0)"/><path class="cls-149" d="M194.93,9.16v9.12c0,1.1-.53,1.11-2.79,1.09a3.09,3.09,0,0,0-.29-.78l1.22,0c1,0,1.06,0,1.06-.33V15.67h-3.46v3.65h-.78V15.67h-3.15a7.06,7.06,0,0,1-1.53,3.83,3.21,3.21,0,0,0-.62-.54c1.35-1.51,1.48-3.67,1.48-5.39V9.16Zm-8.07,4.41c0,.42,0,.87-.05,1.34h3.08v-2.1h-3Zm3-3.64h-3v2.12h3Zm4.24,2.12V9.93h-3.46v2.12Zm-3.46,2.86h3.46v-2.1h-3.46Z" transform="translate(0 0)"/><path class="cls-149" d="M197.08,11.73a10.35,10.35,0,0,1,2.45,1.11l-.43.7a10.3,10.3,0,0,0-2.42-1.19Zm0,7a42.88,42.88,0,0,0,2.21-3.94l.6.51a39.48,39.48,0,0,1-2,3.71.32.32,0,0,1,.06.17.17.17,0,0,1-.06.14Zm.65-10.38a9.87,9.87,0,0,1,2.41,1.26l-.47.67A10.51,10.51,0,0,0,197.3,9Zm10.06,5.06v.78h-4.67l.44.15a.34.34,0,0,1-.28.13A34.12,34.12,0,0,1,201.79,18c1.26-.07,2.73-.14,4.18-.24a19.42,19.42,0,0,0-1.38-1.8l.69-.36A16.55,16.55,0,0,1,207.7,19l-.76.43a9,9,0,0,0-.52-1c-2.21.18-4.53.34-6,.43a.2.2,0,0,1-.18.17l-.33-1,1,0a28.16,28.16,0,0,0,1.56-3.79h-2.56v-.78h3.45V11.08H200.5v-.77h2.87v-2l1.1.07c0,.12-.12.2-.27.23v1.71h2.92v.77H204.2v2.36Z" transform="translate(0 0)"/><path class="cls-149" d="M212.25,8.29V19.44h-3.57v-.06a7.25,7.25,0,0,0,2.37-5.52,7.23,7.23,0,0,0-2.37-5.51V8.29Z" transform="translate(0 0)"/><path class="cls-149" d="M55.06,42.62s-.07,0-.16,0a13.33,13.33,0,0,1-1.28.45,6.41,6.41,0,0,0,2.11.79,1.52,1.52,0,0,0-.31.44,5.66,5.66,0,0,1-3.56-2.26h-.09a7.62,7.62,0,0,1-1.25.69l.21,0c0,.05-.06.09-.18.11v.76l2.15-.2v.39c-1.25.15-2.58.29-3.41.37,0,.07,0,.1-.1.12l-.2-.54,1-.09V43a12.72,12.72,0,0,1-1.68.5,2.38,2.38,0,0,0-.31-.4,10.68,10.68,0,0,0,3-1H48.15v-.46h3.43v-.45H48.72v-.42h2.86V40.3H49.19V38.19h5.35V40.3H52.13v.44H55v.42H52.13v.45h3.48v.46H52.42a4,4,0,0,0,.83.8c.46-.18,1-.44,1.37-.62Zm.55-5.29v.44H48.14v-.44h3.44v-.68l.71.05s0,.09-.16.11v.52Zm-5.89,1.23v.51h1.86v-.51Zm0,1.36h1.86v-.51H49.72ZM54,39.07v-.51H52.13v.51Zm0,.85v-.51H52.13v.51Z" transform="translate(0 0)"/><path class="cls-149" d="M63.81,37.77H60.32c-.07.31-.19.73-.31,1.1h3.42v5.44h-.56v-.44H57.39v.44h-.54V38.88h2.6c.09-.33.19-.75.27-1.11H56.44v-.52h7.37ZM57.39,39.4v4h1.37v-4Zm3.51,1v-1H59.27v1Zm0,1.47v-1H59.27v1Zm-1.63.46v1H60.9v-1Zm3.6,1v-4H61.42v4Z" transform="translate(0 0)"/><path class="cls-150" d="M214.67,44.15v-.43h5.48A6.23,6.23,0,0,1,219,42.54l.37-.23a7.5,7.5,0,0,0,1.8,1.63,7.25,7.25,0,0,0-1.8,1.62l-.37-.23a6.23,6.23,0,0,1,1.17-1.18Z" transform="translate(0 0)"/><path class="cls-150" d="M247.09,44.15a6.54,6.54,0,0,1,1.17,1.18l-.38.23a7.21,7.21,0,0,0-1.79-1.62,7.46,7.46,0,0,0,1.79-1.63l.38.23a6.54,6.54,0,0,1-1.17,1.18h5.48v.43Z" transform="translate(0 0)"/><text class="cls-151" transform="translate(207 96)">①赤い部分を左右から指<tspan x="0" y="8">で押さえながら上に持ち</tspan><tspan x="0" y="16">上げる</tspan><tspan class="cls-152" x="21" y="16">。</tspan></text><text class="cls-151" transform="translate(207 162)">②ピンに挿したら指を離し<tspan x="0" y="8">て完了です</tspan><tspan class="cls-152" x="35" y="8">。</tspan><tspan x="0" y="16">外し方は逆の手順となりま</tspan><tspan x="0" y="24">す</tspan><tspan class="cls-152" x="7" y="24">。</tspan></text><path class="cls-150" d="M216.66,133.81a6.58,6.58,0,0,1,1.18,1.18l-.38.23a7.65,7.65,0,0,0-1.79-1.63,7.6,7.6,0,0,0,1.79-1.62l.38.23a6.58,6.58,0,0,1-1.18,1.18h5.49v.43Z" transform="translate(0 0)"/><path class="cls-150" d="M247.09,133.81v-.43h5.49a6.27,6.27,0,0,1-1.18-1.18l.38-.23a7.41,7.41,0,0,0,1.79,1.62,7.46,7.46,0,0,0-1.79,1.63l-.38-.23a6.27,6.27,0,0,1,1.18-1.18Z" transform="translate(0 0)"/></g></g></svg>