<svg xmlns="http://www.w3.org/2000/svg" xmlns:xlink="http://www.w3.org/1999/xlink" viewBox="0 0 194.91 139.99"><defs><style>.cls-1,.cls-12,.cls-2{fill:none;}.cls-2{stroke:#7fcbd7;stroke-linecap:square;stroke-width:1.5px;}.cls-3{fill:#14b7c7;}.cls-4{fill:#dbdada;}.cls-5{fill:#5ccbff;}.cls-6{fill:#178dfc;}.cls-7{fill:url(#なめらかな波_カラー_);}.cls-8{fill:#3fa9f5;}.cls-9{fill:#fff;}.cls-10{fill:#ffece4;}.cls-11{clip-path:url(#clip-path);}.cls-12{stroke:#178dfc;stroke-miterlimit:10;stroke-width:0.25px;}.cls-13{fill:#0ad0ff;}</style><pattern id="なめらかな波_カラー_" data-name="なめらかな波 (カラー)" x="-2.07" y="1.29" width="109.13" height="103.21" patternUnits="userSpaceOnUse" viewBox="0 0 109.13 103.22"><rect class="cls-1" width="109.13" height="103.21"/><path class="cls-2" d="M218.25,96.5a46.3,46.3,0,0,1-13.64-2.13,44.94,44.94,0,0,0-27.28,0,44.74,44.74,0,0,1-27.28,0,44.94,44.94,0,0,0-27.28,0,46.44,46.44,0,0,1-13.65,2.13"/><path class="cls-2" d="M218.25,100.8a46.71,46.71,0,0,1-13.64-2.12,44.74,44.74,0,0,0-27.28,0,44.94,44.94,0,0,1-27.28,0,44.74,44.74,0,0,0-27.28,0,46.85,46.85,0,0,1-13.65,2.12"/><path class="cls-2" d="M218.25,105.1A46.71,46.71,0,0,1,204.61,103a44.74,44.74,0,0,0-27.28,0,44.94,44.94,0,0,1-27.28,0,44.74,44.74,0,0,0-27.28,0,46.85,46.85,0,0,1-13.65,2.12"/><rect class="cls-3" y="90.31" width="109.13" height="25.8"/><path class="cls-2" d="M109.12,96.5a46.36,46.36,0,0,1-13.64-2.13,44.94,44.94,0,0,0-27.28,0,44.74,44.74,0,0,1-27.28,0,46.77,46.77,0,0,0-13.64-2.12,46.77,46.77,0,0,0-13.64,2.12A46.36,46.36,0,0,1,0,96.5"/><path class="cls-2" d="M109.12,100.8a46.77,46.77,0,0,1-13.64-2.12,44.74,44.74,0,0,0-27.28,0,46.71,46.71,0,0,1-13.64,2.12,46.77,46.77,0,0,1-13.64-2.12,46.36,46.36,0,0,0-13.64-2.13,46.36,46.36,0,0,0-13.64,2.13A46.77,46.77,0,0,1,0,100.8"/><path class="cls-2" d="M109.12,105.1A46.77,46.77,0,0,1,95.48,103a44.74,44.74,0,0,0-27.28,0,46.71,46.71,0,0,1-13.64,2.12A46.77,46.77,0,0,1,40.92,103a46.36,46.36,0,0,0-13.64-2.13A46.36,46.36,0,0,0,13.64,103,46.77,46.77,0,0,1,0,105.1"/><path class="cls-2" d="M0,96.5a46.3,46.3,0,0,1-13.64-2.13,46.77,46.77,0,0,0-13.64-2.12,46.71,46.71,0,0,0-13.64,2.12A46.36,46.36,0,0,1-54.56,96.5,46.3,46.3,0,0,1-68.2,94.37a46.77,46.77,0,0,0-13.64-2.12,46.71,46.71,0,0,0-13.64,2.12,46.43,46.43,0,0,1-13.64,2.13"/><path class="cls-2" d="M0,100.8a46.71,46.71,0,0,1-13.64-2.12,46.36,46.36,0,0,0-13.64-2.13,46.3,46.3,0,0,0-13.64,2.13,46.77,46.77,0,0,1-13.64,2.12A46.71,46.71,0,0,1-68.2,98.68a46.36,46.36,0,0,0-13.64-2.13,46.3,46.3,0,0,0-13.64,2.13,46.83,46.83,0,0,1-13.64,2.12"/><path class="cls-2" d="M0,105.1A46.71,46.71,0,0,1-13.64,103a46.36,46.36,0,0,0-13.64-2.13A46.3,46.3,0,0,0-40.92,103a46.77,46.77,0,0,1-13.64,2.12A46.71,46.71,0,0,1-68.2,103a46.36,46.36,0,0,0-13.64-2.13A46.3,46.3,0,0,0-95.48,103a46.83,46.83,0,0,1-13.64,2.12"/><path class="cls-2" d="M218.25,83.6a46.3,46.3,0,0,1-13.64-2.13,44.74,44.74,0,0,0-27.28,0,44.74,44.74,0,0,1-27.28,0,44.74,44.74,0,0,0-27.28,0,46.44,46.44,0,0,1-13.65,2.13"/><path class="cls-2" d="M218.25,87.9a46.3,46.3,0,0,1-13.64-2.13,44.94,44.94,0,0,0-27.28,0,44.74,44.74,0,0,1-27.28,0,44.94,44.94,0,0,0-27.28,0,46.44,46.44,0,0,1-13.65,2.13"/><path class="cls-2" d="M218.25,92.2a46.71,46.71,0,0,1-13.64-2.12,44.74,44.74,0,0,0-27.28,0,44.94,44.94,0,0,1-27.28,0,44.74,44.74,0,0,0-27.28,0,46.85,46.85,0,0,1-13.65,2.12"/><path class="cls-2" d="M218.25,70.7a46.64,46.64,0,0,1-13.64-2.13,44.74,44.74,0,0,0-27.28,0,44.74,44.74,0,0,1-27.28,0,44.74,44.74,0,0,0-27.28,0,46.79,46.79,0,0,1-13.65,2.13"/><path class="cls-2" d="M218.25,75a46.3,46.3,0,0,1-13.64-2.13,44.74,44.74,0,0,0-27.28,0,44.74,44.74,0,0,1-27.28,0,44.74,44.74,0,0,0-27.28,0A46.44,46.44,0,0,1,109.12,75"/><path class="cls-2" d="M218.25,79.3a46.3,46.3,0,0,1-13.64-2.13,44.74,44.74,0,0,0-27.28,0,44.74,44.74,0,0,1-27.28,0,44.74,44.74,0,0,0-27.28,0,46.44,46.44,0,0,1-13.65,2.13"/><rect class="cls-3" y="64.51" width="109.13" height="25.8"/><path class="cls-2" d="M109.12,83.6a46.36,46.36,0,0,1-13.64-2.13,44.74,44.74,0,0,0-27.28,0,44.74,44.74,0,0,1-27.28,0,46.7,46.7,0,0,0-13.64-2.13,46.7,46.7,0,0,0-13.64,2.13A46.36,46.36,0,0,1,0,83.6"/><path class="cls-2" d="M109.12,87.9a46.36,46.36,0,0,1-13.64-2.13,44.94,44.94,0,0,0-27.28,0,44.74,44.74,0,0,1-27.28,0,46.77,46.77,0,0,0-13.64-2.12,46.77,46.77,0,0,0-13.64,2.12A46.36,46.36,0,0,1,0,87.9"/><path class="cls-2" d="M109.12,92.2a46.77,46.77,0,0,1-13.64-2.12,44.74,44.74,0,0,0-27.28,0A46.71,46.71,0,0,1,54.56,92.2a46.77,46.77,0,0,1-13.64-2.12A46.36,46.36,0,0,0,27.28,88a46.36,46.36,0,0,0-13.64,2.13A46.77,46.77,0,0,1,0,92.2"/><path class="cls-2" d="M109.12,70.7a46.7,46.7,0,0,1-13.64-2.13,44.74,44.74,0,0,0-27.28,0A46.64,46.64,0,0,1,54.56,70.7a46.7,46.7,0,0,1-13.64-2.13,46.7,46.7,0,0,0-13.64-2.13,46.7,46.7,0,0,0-13.64,2.13A46.7,46.7,0,0,1,0,70.7"/><path class="cls-2" d="M109.12,75a46.36,46.36,0,0,1-13.64-2.13,44.74,44.74,0,0,0-27.28,0,44.74,44.74,0,0,1-27.28,0,46.7,46.7,0,0,0-13.64-2.13,46.7,46.7,0,0,0-13.64,2.13A46.36,46.36,0,0,1,0,75"/><path class="cls-2" d="M109.12,79.3a46.36,46.36,0,0,1-13.64-2.13,44.74,44.74,0,0,0-27.28,0,44.74,44.74,0,0,1-27.28,0A46.7,46.7,0,0,0,27.28,75a46.7,46.7,0,0,0-13.64,2.13A46.36,46.36,0,0,1,0,79.3"/><path class="cls-2" d="M0,83.6a46.3,46.3,0,0,1-13.64-2.13,46.7,46.7,0,0,0-13.64-2.13,46.64,46.64,0,0,0-13.64,2.13A46.36,46.36,0,0,1-54.56,83.6,46.3,46.3,0,0,1-68.2,81.47a46.7,46.7,0,0,0-13.64-2.13,46.64,46.64,0,0,0-13.64,2.13,46.43,46.43,0,0,1-13.64,2.13"/><path class="cls-2" d="M0,87.9a46.3,46.3,0,0,1-13.64-2.13,46.77,46.77,0,0,0-13.64-2.12,46.71,46.71,0,0,0-13.64,2.12A46.36,46.36,0,0,1-54.56,87.9,46.3,46.3,0,0,1-68.2,85.77a46.77,46.77,0,0,0-13.64-2.12,46.71,46.71,0,0,0-13.64,2.12,46.43,46.43,0,0,1-13.64,2.13"/><path class="cls-2" d="M0,92.2a46.71,46.71,0,0,1-13.64-2.12A46.36,46.36,0,0,0-27.28,88a46.3,46.3,0,0,0-13.64,2.13A46.77,46.77,0,0,1-54.56,92.2,46.71,46.71,0,0,1-68.2,90.08,46.36,46.36,0,0,0-81.84,88a46.3,46.3,0,0,0-13.64,2.13,46.83,46.83,0,0,1-13.64,2.12"/><path class="cls-2" d="M0,70.7a46.64,46.64,0,0,1-13.64-2.13,46.7,46.7,0,0,0-13.64-2.13,46.64,46.64,0,0,0-13.64,2.13A46.7,46.7,0,0,1-54.56,70.7,46.64,46.64,0,0,1-68.2,68.57a46.7,46.7,0,0,0-13.64-2.13,46.64,46.64,0,0,0-13.64,2.13,46.77,46.77,0,0,1-13.64,2.13"/><path class="cls-2" d="M0,75a46.3,46.3,0,0,1-13.64-2.13,46.7,46.7,0,0,0-13.64-2.13,46.64,46.64,0,0,0-13.64,2.13A46.36,46.36,0,0,1-54.56,75,46.3,46.3,0,0,1-68.2,72.87a46.7,46.7,0,0,0-13.64-2.13,46.64,46.64,0,0,0-13.64,2.13A46.43,46.43,0,0,1-109.12,75"/><path class="cls-2" d="M0,79.3a46.3,46.3,0,0,1-13.64-2.13A46.7,46.7,0,0,0-27.28,75a46.64,46.64,0,0,0-13.64,2.13A46.36,46.36,0,0,1-54.56,79.3,46.3,46.3,0,0,1-68.2,77.17,46.7,46.7,0,0,0-81.84,75a46.64,46.64,0,0,0-13.64,2.13,46.43,46.43,0,0,1-13.64,2.13"/><path class="cls-2" d="M218.25,57.8a46.64,46.64,0,0,1-13.64-2.13,44.74,44.74,0,0,0-27.28,0,44.74,44.74,0,0,1-27.28,0,44.74,44.74,0,0,0-27.28,0,46.79,46.79,0,0,1-13.65,2.13"/><path class="cls-2" d="M218.25,62.1A46.64,46.64,0,0,1,204.61,60a44.74,44.74,0,0,0-27.28,0,44.74,44.74,0,0,1-27.28,0,44.74,44.74,0,0,0-27.28,0,46.79,46.79,0,0,1-13.65,2.13"/><path class="cls-2" d="M218.25,66.4a46.64,46.64,0,0,1-13.64-2.13,44.74,44.74,0,0,0-27.28,0,44.74,44.74,0,0,1-27.28,0,44.74,44.74,0,0,0-27.28,0,46.79,46.79,0,0,1-13.65,2.13"/><path class="cls-2" d="M218.25,44.9a46.64,46.64,0,0,1-13.64-2.13,44.74,44.74,0,0,0-27.28,0,46.7,46.7,0,0,1-13.64,2.13,46.64,46.64,0,0,1-13.64-2.13,44.74,44.74,0,0,0-27.28,0,46.79,46.79,0,0,1-13.65,2.13"/><path class="cls-2" d="M218.25,49.2a46.64,46.64,0,0,1-13.64-2.13,44.74,44.74,0,0,0-27.28,0,46.7,46.7,0,0,1-13.64,2.13,46.64,46.64,0,0,1-13.64-2.13,44.74,44.74,0,0,0-27.28,0,46.79,46.79,0,0,1-13.65,2.13"/><path class="cls-2" d="M218.25,53.5a46.64,46.64,0,0,1-13.64-2.13,44.74,44.74,0,0,0-27.28,0,44.74,44.74,0,0,1-27.28,0,44.74,44.74,0,0,0-27.28,0,46.79,46.79,0,0,1-13.65,2.13"/><rect class="cls-3" y="38.71" width="109.13" height="25.8"/><path class="cls-2" d="M109.12,57.8a46.7,46.7,0,0,1-13.64-2.13,44.74,44.74,0,0,0-27.28,0A46.64,46.64,0,0,1,54.56,57.8a46.7,46.7,0,0,1-13.64-2.13,46.7,46.7,0,0,0-13.64-2.13,46.7,46.7,0,0,0-13.64,2.13A46.7,46.7,0,0,1,0,57.8"/><path class="cls-2" d="M109.12,62.1A46.7,46.7,0,0,1,95.48,60,44.74,44.74,0,0,0,68.2,60,46.64,46.64,0,0,1,54.56,62.1,46.7,46.7,0,0,1,40.92,60a46.7,46.7,0,0,0-13.64-2.13A46.7,46.7,0,0,0,13.64,60,46.7,46.7,0,0,1,0,62.1"/><path class="cls-2" d="M109.12,66.4a46.7,46.7,0,0,1-13.64-2.13,44.74,44.74,0,0,0-27.28,0A46.64,46.64,0,0,1,54.56,66.4a46.7,46.7,0,0,1-13.64-2.13,46.7,46.7,0,0,0-13.64-2.13,46.7,46.7,0,0,0-13.64,2.13A46.7,46.7,0,0,1,0,66.4"/><path class="cls-2" d="M109.12,44.9a46.7,46.7,0,0,1-13.64-2.13,44.74,44.74,0,0,0-27.28,0A46.64,46.64,0,0,1,54.56,44.9a46.7,46.7,0,0,1-13.64-2.13,46.36,46.36,0,0,0-13.64-2.13,46.36,46.36,0,0,0-13.64,2.13A46.7,46.7,0,0,1,0,44.9"/><path class="cls-2" d="M109.12,49.2a46.7,46.7,0,0,1-13.64-2.13,44.74,44.74,0,0,0-27.28,0A46.64,46.64,0,0,1,54.56,49.2a46.7,46.7,0,0,1-13.64-2.13,46.7,46.7,0,0,0-13.64-2.13,46.7,46.7,0,0,0-13.64,2.13A46.7,46.7,0,0,1,0,49.2"/><path class="cls-2" d="M109.12,53.5a46.7,46.7,0,0,1-13.64-2.13,44.74,44.74,0,0,0-27.28,0A46.64,46.64,0,0,1,54.56,53.5a46.7,46.7,0,0,1-13.64-2.13,46.7,46.7,0,0,0-13.64-2.13,46.7,46.7,0,0,0-13.64,2.13A46.7,46.7,0,0,1,0,53.5"/><path class="cls-2" d="M0,57.8a46.64,46.64,0,0,1-13.64-2.13,46.7,46.7,0,0,0-13.64-2.13,46.64,46.64,0,0,0-13.64,2.13A46.7,46.7,0,0,1-54.56,57.8,46.64,46.64,0,0,1-68.2,55.67a46.7,46.7,0,0,0-13.64-2.13,46.64,46.64,0,0,0-13.64,2.13,46.77,46.77,0,0,1-13.64,2.13"/><path class="cls-2" d="M0,62.1A46.64,46.64,0,0,1-13.64,60a46.7,46.7,0,0,0-13.64-2.13A46.64,46.64,0,0,0-40.92,60,46.7,46.7,0,0,1-54.56,62.1,46.64,46.64,0,0,1-68.2,60a46.7,46.7,0,0,0-13.64-2.13A46.64,46.64,0,0,0-95.48,60a46.77,46.77,0,0,1-13.64,2.13"/><path class="cls-2" d="M0,66.4a46.64,46.64,0,0,1-13.64-2.13,46.7,46.7,0,0,0-13.64-2.13,46.64,46.64,0,0,0-13.64,2.13A46.7,46.7,0,0,1-54.56,66.4,46.64,46.64,0,0,1-68.2,64.27a46.7,46.7,0,0,0-13.64-2.13,46.64,46.64,0,0,0-13.64,2.13,46.77,46.77,0,0,1-13.64,2.13"/><path class="cls-2" d="M0,44.9a46.64,46.64,0,0,1-13.64-2.13,46.36,46.36,0,0,0-13.64-2.13,46.3,46.3,0,0,0-13.64,2.13A46.7,46.7,0,0,1-54.56,44.9,46.64,46.64,0,0,1-68.2,42.77a46.36,46.36,0,0,0-13.64-2.13,46.3,46.3,0,0,0-13.64,2.13,46.77,46.77,0,0,1-13.64,2.13"/><path class="cls-2" d="M0,49.2a46.64,46.64,0,0,1-13.64-2.13,46.7,46.7,0,0,0-13.64-2.13,46.64,46.64,0,0,0-13.64,2.13A46.7,46.7,0,0,1-54.56,49.2,46.64,46.64,0,0,1-68.2,47.07a46.7,46.7,0,0,0-13.64-2.13,46.64,46.64,0,0,0-13.64,2.13,46.77,46.77,0,0,1-13.64,2.13"/><path class="cls-2" d="M0,53.5a46.64,46.64,0,0,1-13.64-2.13,46.7,46.7,0,0,0-13.64-2.13,46.64,46.64,0,0,0-13.64,2.13A46.7,46.7,0,0,1-54.56,53.5,46.64,46.64,0,0,1-68.2,51.37a46.7,46.7,0,0,0-13.64-2.13,46.64,46.64,0,0,0-13.64,2.13,46.77,46.77,0,0,1-13.64,2.13"/><path class="cls-2" d="M218.25,32a46.71,46.71,0,0,1-13.64-2.12,44.74,44.74,0,0,0-27.28,0A46.77,46.77,0,0,1,163.69,32a46.71,46.71,0,0,1-13.64-2.12,44.74,44.74,0,0,0-27.28,0A46.85,46.85,0,0,1,109.12,32"/><path class="cls-2" d="M218.25,36.29a46.71,46.71,0,0,1-13.64-2.12,44.74,44.74,0,0,0-27.28,0,46.77,46.77,0,0,1-13.64,2.12,46.71,46.71,0,0,1-13.64-2.12,44.74,44.74,0,0,0-27.28,0,46.85,46.85,0,0,1-13.65,2.12"/><path class="cls-2" d="M218.25,40.6a46.64,46.64,0,0,1-13.64-2.13,44.74,44.74,0,0,0-27.28,0,46.7,46.7,0,0,1-13.64,2.13,46.64,46.64,0,0,1-13.64-2.13,44.74,44.74,0,0,0-27.28,0,46.79,46.79,0,0,1-13.65,2.13"/><path class="cls-2" d="M218.25,19.09A46.3,46.3,0,0,1,204.61,17a44.94,44.94,0,0,0-27.28,0,46.36,46.36,0,0,1-13.64,2.13A46.3,46.3,0,0,1,150.05,17a44.94,44.94,0,0,0-27.28,0,46.44,46.44,0,0,1-13.65,2.13"/><path class="cls-2" d="M218.25,23.39a46.3,46.3,0,0,1-13.64-2.13,44.94,44.94,0,0,0-27.28,0,46.36,46.36,0,0,1-13.64,2.13,46.3,46.3,0,0,1-13.64-2.13,44.94,44.94,0,0,0-27.28,0,46.44,46.44,0,0,1-13.65,2.13"/><path class="cls-2" d="M218.25,27.69a46.71,46.71,0,0,1-13.64-2.12,44.74,44.74,0,0,0-27.28,0,46.77,46.77,0,0,1-13.64,2.12,46.71,46.71,0,0,1-13.64-2.12,44.74,44.74,0,0,0-27.28,0,46.85,46.85,0,0,1-13.65,2.12"/><rect class="cls-3" y="12.9" width="109.13" height="25.8"/><path class="cls-2" d="M109.12,32a46.77,46.77,0,0,1-13.64-2.12,44.74,44.74,0,0,0-27.28,0A46.71,46.71,0,0,1,54.56,32a46.77,46.77,0,0,1-13.64-2.12,46.36,46.36,0,0,0-13.64-2.13,46.36,46.36,0,0,0-13.64,2.13A46.77,46.77,0,0,1,0,32"/><path class="cls-2" d="M109.12,36.29a46.77,46.77,0,0,1-13.64-2.12,44.74,44.74,0,0,0-27.28,0,46.71,46.71,0,0,1-13.64,2.12,46.77,46.77,0,0,1-13.64-2.12A46.36,46.36,0,0,0,27.28,32a46.36,46.36,0,0,0-13.64,2.13A46.77,46.77,0,0,1,0,36.29"/><path class="cls-2" d="M109.12,40.6a46.7,46.7,0,0,1-13.64-2.13,44.74,44.74,0,0,0-27.28,0A46.64,46.64,0,0,1,54.56,40.6a46.7,46.7,0,0,1-13.64-2.13,46.36,46.36,0,0,0-13.64-2.13,46.36,46.36,0,0,0-13.64,2.13A46.7,46.7,0,0,1,0,40.6"/><path class="cls-2" d="M109.12,19.09A46.36,46.36,0,0,1,95.48,17,44.94,44.94,0,0,0,68.2,17a46.3,46.3,0,0,1-13.64,2.13A46.36,46.36,0,0,1,40.92,17a46.77,46.77,0,0,0-13.64-2.12A46.77,46.77,0,0,0,13.64,17,46.36,46.36,0,0,1,0,19.09"/><path class="cls-2" d="M109.12,23.39a46.36,46.36,0,0,1-13.64-2.13,44.94,44.94,0,0,0-27.28,0,46.3,46.3,0,0,1-13.64,2.13,46.36,46.36,0,0,1-13.64-2.13,46.77,46.77,0,0,0-13.64-2.12,46.77,46.77,0,0,0-13.64,2.12A46.36,46.36,0,0,1,0,23.39"/><path class="cls-2" d="M109.12,27.69a46.77,46.77,0,0,1-13.64-2.12,44.74,44.74,0,0,0-27.28,0,46.71,46.71,0,0,1-13.64,2.12,46.77,46.77,0,0,1-13.64-2.12,46.36,46.36,0,0,0-13.64-2.13,46.36,46.36,0,0,0-13.64,2.13A46.77,46.77,0,0,1,0,27.69"/><path class="cls-2" d="M0,32a46.71,46.71,0,0,1-13.64-2.12,46.36,46.36,0,0,0-13.64-2.13,46.3,46.3,0,0,0-13.64,2.13A46.77,46.77,0,0,1-54.56,32,46.71,46.71,0,0,1-68.2,29.87a46.36,46.36,0,0,0-13.64-2.13,46.3,46.3,0,0,0-13.64,2.13A46.83,46.83,0,0,1-109.12,32"/><path class="cls-2" d="M0,36.29a46.71,46.71,0,0,1-13.64-2.12A46.36,46.36,0,0,0-27.28,32a46.3,46.3,0,0,0-13.64,2.13,46.77,46.77,0,0,1-13.64,2.12A46.71,46.71,0,0,1-68.2,34.17,46.36,46.36,0,0,0-81.84,32a46.3,46.3,0,0,0-13.64,2.13,46.83,46.83,0,0,1-13.64,2.12"/><path class="cls-2" d="M0,40.6a46.64,46.64,0,0,1-13.64-2.13,46.36,46.36,0,0,0-13.64-2.13,46.3,46.3,0,0,0-13.64,2.13A46.7,46.7,0,0,1-54.56,40.6,46.64,46.64,0,0,1-68.2,38.47a46.36,46.36,0,0,0-13.64-2.13,46.3,46.3,0,0,0-13.64,2.13,46.77,46.77,0,0,1-13.64,2.13"/><path class="cls-2" d="M0,19.09A46.3,46.3,0,0,1-13.64,17a46.77,46.77,0,0,0-13.64-2.12A46.71,46.71,0,0,0-40.92,17a46.36,46.36,0,0,1-13.64,2.13A46.3,46.3,0,0,1-68.2,17a46.77,46.77,0,0,0-13.64-2.12A46.71,46.71,0,0,0-95.48,17a46.43,46.43,0,0,1-13.64,2.13"/><path class="cls-2" d="M0,23.39a46.3,46.3,0,0,1-13.64-2.13,46.77,46.77,0,0,0-13.64-2.12,46.71,46.71,0,0,0-13.64,2.12,46.36,46.36,0,0,1-13.64,2.13A46.3,46.3,0,0,1-68.2,21.26a46.77,46.77,0,0,0-13.64-2.12,46.71,46.71,0,0,0-13.64,2.12,46.43,46.43,0,0,1-13.64,2.13"/><path class="cls-2" d="M0,27.69a46.71,46.71,0,0,1-13.64-2.12,46.36,46.36,0,0,0-13.64-2.13,46.3,46.3,0,0,0-13.64,2.13,46.77,46.77,0,0,1-13.64,2.12A46.71,46.71,0,0,1-68.2,25.57a46.36,46.36,0,0,0-13.64-2.13,46.3,46.3,0,0,0-13.64,2.13,46.83,46.83,0,0,1-13.64,2.12"/><path class="cls-2" d="M218.25,6.19a46.64,46.64,0,0,1-13.64-2.13,44.74,44.74,0,0,0-27.28,0,46.36,46.36,0,0,1-13.64,2.13,46.64,46.64,0,0,1-13.64-2.13,44.74,44.74,0,0,0-27.28,0,46.79,46.79,0,0,1-13.65,2.13"/><path class="cls-2" d="M218.25,10.49a46.3,46.3,0,0,1-13.64-2.13,44.94,44.94,0,0,0-27.28,0,46.36,46.36,0,0,1-13.64,2.13,46.3,46.3,0,0,1-13.64-2.13,44.94,44.94,0,0,0-27.28,0,46.44,46.44,0,0,1-13.65,2.13"/><path class="cls-2" d="M218.25,14.79a46.3,46.3,0,0,1-13.64-2.13,44.94,44.94,0,0,0-27.28,0,46.36,46.36,0,0,1-13.64,2.13,46.3,46.3,0,0,1-13.64-2.13,44.94,44.94,0,0,0-27.28,0,46.44,46.44,0,0,1-13.65,2.13"/><path class="cls-2" d="M218.25,1.89A46.64,46.64,0,0,1,204.61-.24a44.74,44.74,0,0,0-27.28,0,46.7,46.7,0,0,1-13.64,2.13A46.64,46.64,0,0,1,150.05-.24a44.74,44.74,0,0,0-27.28,0,46.79,46.79,0,0,1-13.65,2.13"/><rect class="cls-3" y="-12.9" width="109.13" height="25.8"/><path class="cls-2" d="M109.12,6.19A46.7,46.7,0,0,1,95.48,4.06a44.74,44.74,0,0,0-27.28,0A46.3,46.3,0,0,1,54.56,6.19,46.7,46.7,0,0,1,40.92,4.06,46.7,46.7,0,0,0,27.28,1.93,46.7,46.7,0,0,0,13.64,4.06,46.7,46.7,0,0,1,0,6.19"/><path class="cls-2" d="M109.12,10.49A46.36,46.36,0,0,1,95.48,8.36a44.94,44.94,0,0,0-27.28,0,46.3,46.3,0,0,1-13.64,2.13A46.36,46.36,0,0,1,40.92,8.36,46.77,46.77,0,0,0,27.28,6.24,46.77,46.77,0,0,0,13.64,8.36,46.36,46.36,0,0,1,0,10.49"/><path class="cls-2" d="M109.12,14.79a46.36,46.36,0,0,1-13.64-2.13,44.94,44.94,0,0,0-27.28,0,46.3,46.3,0,0,1-13.64,2.13,46.36,46.36,0,0,1-13.64-2.13,46.77,46.77,0,0,0-13.64-2.12,46.77,46.77,0,0,0-13.64,2.12A46.36,46.36,0,0,1,0,14.79"/><path class="cls-2" d="M109.12,1.89A46.7,46.7,0,0,1,95.48-.24a44.74,44.74,0,0,0-27.28,0A46.64,46.64,0,0,1,54.56,1.89,46.7,46.7,0,0,1,40.92-.24,46.7,46.7,0,0,0,27.28-2.37,46.7,46.7,0,0,0,13.64-.24,46.7,46.7,0,0,1,0,1.89"/><path class="cls-2" d="M0,6.19A46.64,46.64,0,0,1-13.64,4.06,46.7,46.7,0,0,0-27.28,1.93,46.64,46.64,0,0,0-40.92,4.06,46.36,46.36,0,0,1-54.56,6.19,46.64,46.64,0,0,1-68.2,4.06,46.7,46.7,0,0,0-81.84,1.93,46.64,46.64,0,0,0-95.48,4.06a46.77,46.77,0,0,1-13.64,2.13"/><path class="cls-2" d="M0,10.49A46.3,46.3,0,0,1-13.64,8.36,46.77,46.77,0,0,0-27.28,6.24,46.71,46.71,0,0,0-40.92,8.36a46.36,46.36,0,0,1-13.64,2.13A46.3,46.3,0,0,1-68.2,8.36,46.77,46.77,0,0,0-81.84,6.24,46.71,46.71,0,0,0-95.48,8.36a46.43,46.43,0,0,1-13.64,2.13"/><path class="cls-2" d="M0,14.79a46.3,46.3,0,0,1-13.64-2.13,46.77,46.77,0,0,0-13.64-2.12,46.71,46.71,0,0,0-13.64,2.12,46.36,46.36,0,0,1-13.64,2.13A46.3,46.3,0,0,1-68.2,12.66a46.77,46.77,0,0,0-13.64-2.12,46.71,46.71,0,0,0-13.64,2.12,46.43,46.43,0,0,1-13.64,2.13"/><path class="cls-2" d="M0,1.89A46.64,46.64,0,0,1-13.64-.24,46.7,46.7,0,0,0-27.28-2.37,46.64,46.64,0,0,0-40.92-.24,46.7,46.7,0,0,1-54.56,1.89,46.64,46.64,0,0,1-68.2-.24,46.7,46.7,0,0,0-81.84-2.37,46.64,46.64,0,0,0-95.48-.24a46.77,46.77,0,0,1-13.64,2.13"/></pattern><clipPath id="clip-path" transform="translate(-2.07 1.29)"><polygon class="cls-1" points="102 19.84 54.45 54.39 72.61 110.29 131.39 110.29 149.55 54.39 102 19.84"/></clipPath></defs><title>tya-to</title><g id="レイヤー_3" data-name="レイヤー 3"><path class="cls-4" d="M100,138.7l-.35-.94c1.55-.58,5.53-2.6,5.37-4.94l1-.06C106.23,136.32,100.23,138.6,100,138.7Z" transform="translate(-2.07 1.29)"/><path class="cls-4" d="M119,138.7c-.26-.1-6.26-2.38-6-5.94l1,.06c-.16,2.34,3.82,4.36,5.37,4.94Z" transform="translate(-2.07 1.29)"/><path class="cls-4" d="M79.84,116.07h57.57c0,10.25-12.89,18.55-28.78,18.55S79.84,126.32,79.84,116.07Z" transform="translate(-2.07 1.29)"/><polygon class="cls-4" points="106.43 25.13 58.88 59.68 77.04 115.58 135.82 115.58 153.98 59.68 106.43 25.13"/><path class="cls-5" d="M73.71,112.42h57.58c0,10.25-12.89,18.55-28.79,18.55S73.71,122.67,73.71,112.42Z" transform="translate(-2.07 1.29)"/><path class="cls-6" d="M92.8,136.73a.5.5,0,0,1-.18-1c1.55-.58,5.53-2.6,5.37-4.94a.5.5,0,0,1,.47-.53.5.5,0,0,1,.53.47c.24,3.56-5.76,5.84-6,5.94A.47.47,0,0,1,92.8,136.73Z" transform="translate(-2.07 1.29)"/><path class="cls-6" d="M112.2,136.73a.47.47,0,0,1-.17,0c-.26-.1-6.26-2.38-6-5.94a.5.5,0,0,1,1,.06c-.16,2.34,3.82,4.36,5.37,4.94a.5.5,0,0,1-.18,1Z" transform="translate(-2.07 1.29)"/></g><g id="レイヤー_2" data-name="レイヤー 2"><polygon class="cls-7" points="100.43 31.13 69.93 60.13 81.93 96.13 123.93 103.13 130.93 60.13 100.43 31.13"/><polygon class="cls-8" points="100.43 31.13 69.93 60.13 81.93 96.13 123.93 103.13 130.93 60.13 100.43 31.13"/></g><g id="レイヤー_1" data-name="レイヤー 1"><path class="cls-4" d="M79.86,11.52a6.14,6.14,0,0,1-1-.08L78,11.32c-.09,1.14-.14,2.22-.14,3.26,0,.27,0,.61,0,1s0,.74,0,1,0,.7,0,1l1.85,0a.53.53,0,0,1,.41.17.57.57,0,0,1,.17.42.6.6,0,0,1-.17.43.54.54,0,0,1-.41.18h-1l-1,0a9.12,9.12,0,0,0-1.16.1A7.87,7.87,0,0,1,75.4,19a.57.57,0,0,1-.42-.17.6.6,0,0,1-.16-.43A.58.58,0,0,1,75,18a.54.54,0,0,1,.42-.18,10.8,10.8,0,0,0,1.26-.12,9,9,0,0,0,0-1.09c0-.27,0-.59,0-1s0-.72,0-1c0-.91,0-2,.16-3.39l-.76,0-.76,0a.57.57,0,0,1-.42-.17.58.58,0,0,1-.17-.44.54.54,0,0,1,.55-.6c.31,0,.91,0,1.77,0a21,21,0,0,1,2.93.25.62.62,0,0,1,.32,1.07A.64.64,0,0,1,79.86,11.52Z" transform="translate(-2.07 1.29)"/><path class="cls-4" d="M83.11,14.22,83,17.13c0,.31,0,.76,0,1.36,0,.39-.23.58-.57.58a.52.52,0,0,1-.58-.59c0-.48,0-1.19.07-2.13s.06-1.66.06-2.13c0-.62,0-1.33,0-2.12s0-1.5,0-2.12a.58.58,0,1,1,1.16,0c0,.62,0,1.32,0,2.12S83.11,13.6,83.11,14.22Z" transform="translate(-2.07 1.29)"/><path class="cls-4" d="M86.39,14.22l-.08,2.91c0,.31,0,.76,0,1.36,0,.39-.23.58-.57.58a.52.52,0,0,1-.58-.59c0-.48,0-1.19.07-2.13s.06-1.66.06-2.13c0-.62,0-1.33,0-2.12s0-1.5,0-2.12a.58.58,0,1,1,1.15,0c0,.62,0,1.32,0,2.12S86.39,13.6,86.39,14.22Z" transform="translate(-2.07 1.29)"/><path class="cls-4" d="M93,15.4c0,.28,0,.7,0,1.27s0,1,0,1.26a3.13,3.13,0,0,0,0,.39c0,.18,0,.31,0,.4a.57.57,0,0,1-.17.41.58.58,0,0,1-.42.16c-.3,0-.49-.19-.57-.56a3.54,3.54,0,0,1-1.69.38,2.19,2.19,0,0,1-1.27-.34,1.51,1.51,0,0,1-.66-1.09A18.29,18.29,0,0,1,88,14.91a11.62,11.62,0,0,1,.17-1.82.53.53,0,0,1,.56-.51.57.57,0,0,1,.42.16.5.5,0,0,1,.17.41,7.92,7.92,0,0,1-.08.86,6.66,6.66,0,0,0-.09.9,16.18,16.18,0,0,0,.07,1.68,5.37,5.37,0,0,0,.19,1.12,2.39,2.39,0,0,0,.38.16,1.24,1.24,0,0,0,.37.06,6,6,0,0,0,1.66-.26V15.35a19.77,19.77,0,0,1,.11-2.2.53.53,0,0,1,.57-.54.61.61,0,0,1,.42.16.49.49,0,0,1,.16.41Z" transform="translate(-2.07 1.29)"/><path class="cls-4" d="M98.39,14.31a.46.46,0,0,1-.45-.22,1.88,1.88,0,0,1-.15-.63c-.3.07-.75.21-1.36.41s-.94.56-1,.93a2.25,2.25,0,0,0,.35.09,5.66,5.66,0,0,1,2,.66,2,2,0,0,1,1,1.78A1.57,1.57,0,0,1,98,18.77a3.36,3.36,0,0,1-1.73.4,4.24,4.24,0,0,1-1.47-.25c-.6-.22-.9-.53-.9-.92a.57.57,0,0,1,.18-.41.6.6,0,0,1,.42-.17.77.77,0,0,1,.47.28,1.42,1.42,0,0,0,.63.22,3.71,3.71,0,0,0,.67.07,2.84,2.84,0,0,0,.86-.12c.37-.11.55-.29.55-.54,0-.53-.37-.89-1.11-1.07l-.61-.14a3.26,3.26,0,0,1-1.11-.4,1.12,1.12,0,0,1-.48-1A1.79,1.79,0,0,1,95.49,13a7.36,7.36,0,0,1,1.12-.38,9.27,9.27,0,0,0,1.11-.37,1.27,1.27,0,0,1,.52-.11.57.57,0,0,1,.42.16.63.63,0,0,1,.16.43,2.33,2.33,0,0,0,.07.5,2.33,2.33,0,0,1,.07.5.59.59,0,0,1-.16.43A.54.54,0,0,1,98.39,14.31Z" transform="translate(-2.07 1.29)"/><path class="cls-4" d="M104.2,13.83h-.58l-.8.08.11,3.47v.55c0,.86-.19,1.29-.61,1.29a.56.56,0,0,1-.41-.16.46.46,0,0,1-.17-.38c0-.15,0-.37,0-.66s0-.52,0-.67l-.12-3.42-1.3-.1a.54.54,0,0,1-.52-.58.57.57,0,0,1,.16-.43.51.51,0,0,1,.4-.17l1.23.1c0-.2,0-.47,0-.8s0-.58,0-.73a.53.53,0,0,1,.17-.4.58.58,0,0,1,.42-.16c.35,0,.55.28.61.86,0,.14,0,.32,0,.52v.7l.84-.09a3.2,3.2,0,0,1,.79.06.51.51,0,0,1,.36.55.56.56,0,0,1-.57.59Z" transform="translate(-2.07 1.29)"/><path class="cls-4" d="M110.49,14.49c0,.49-.22.73-.59.73s-.5-.19-.5-.58c0-.07,0-.21,0-.41l0-.49a3.2,3.2,0,0,0-1.48.52,2.85,2.85,0,0,0-.87,1.15l0,3.21a.52.52,0,0,1-.58.59c-.35,0-.52-.19-.52-.59V14.51c0-.13,0-.32,0-.58s0-.45,0-.58c0-.4.17-.59.51-.59s.58.32.58,1a3.54,3.54,0,0,1,2.5-1.08.78.78,0,0,1,.71.35,2,2,0,0,1,.23,1.08Z" transform="translate(-2.07 1.29)"/><path class="cls-4" d="M116.27,19.21a.91.91,0,0,1-.4-.26,2.51,2.51,0,0,1-.4-.43,6,6,0,0,1-1,.46,2,2,0,0,1-.71.16,2.42,2.42,0,0,1-2-.78,3.48,3.48,0,0,1-.59-2.22,3.33,3.33,0,0,1,1-2.43,3.12,3.12,0,0,1,2.32-1,3,3,0,0,1,1.15.27c.53.22.79.48.79.79a.43.43,0,0,1-.11.28,4,4,0,0,0-.09.73c0,.34,0,.78,0,1.31a4.53,4.53,0,0,0,.1,1.15,8.92,8.92,0,0,0,.37,1c0,.07.07.17.13.31l0,.1a.52.52,0,0,1-.17.39A.54.54,0,0,1,116.27,19.21Zm-1.22-4.07c0-.17,0-.35,0-.55s.06-.41.1-.63a2.79,2.79,0,0,0-.37-.17,1,1,0,0,0-.25,0,2.06,2.06,0,0,0-1.57.74,2.52,2.52,0,0,0-.66,1.71,2.55,2.55,0,0,0,.34,1.44,1.18,1.18,0,0,0,1,.48,2.13,2.13,0,0,0,1-.2,4,4,0,0,0,.59-.45A22.75,22.75,0,0,1,115.05,15.14Z" transform="translate(-2.07 1.29)"/><path class="cls-4" d="M121.76,13.83h-.58l-.8.08.11,3.47v.55c0,.86-.19,1.29-.61,1.29a.56.56,0,0,1-.41-.16.46.46,0,0,1-.17-.38c0-.15,0-.37,0-.66s0-.52,0-.67l-.12-3.42-1.3-.1a.54.54,0,0,1-.52-.58.61.61,0,0,1,.16-.43.51.51,0,0,1,.4-.17l1.24.1c0-.2,0-.47,0-.8s0-.58,0-.73a.53.53,0,0,1,.17-.4.58.58,0,0,1,.42-.16c.35,0,.56.28.61.86a4,4,0,0,1,0,.52v.7l.84-.09a3.2,3.2,0,0,1,.79.06.51.51,0,0,1,.36.55.56.56,0,0,1-.57.59Z" transform="translate(-2.07 1.29)"/><path class="cls-4" d="M126.23,19.09a3.32,3.32,0,0,1-2.15-.66,2.49,2.49,0,0,1-.89-2.05,4.3,4.3,0,0,1,.73-2.56,2.51,2.51,0,0,1,2.15-1.12,3.35,3.35,0,0,1,1.59.33,1.32,1.32,0,0,1,.75,1.24,1.36,1.36,0,0,1-.66,1.07,10.62,10.62,0,0,1-1.24.65l-2.24,1.06a2,2,0,0,0,.82.73,2.4,2.4,0,0,0,1.14.25,3.69,3.69,0,0,0,1-.15,1.53,1.53,0,0,0,.89-.51c.13-.21.27-.31.42-.31a.53.53,0,0,1,.37.15.5.5,0,0,1,.16.36c0,.44-.35.81-1.05,1.12A4.19,4.19,0,0,1,126.23,19.09Zm-.16-5.34a1.51,1.51,0,0,0-1.19.56,3.72,3.72,0,0,0-.71,1.66l1.8-.85a7.57,7.57,0,0,0,1.51-.9A2,2,0,0,0,126.07,13.75Z" transform="translate(-2.07 1.29)"/><path class="cls-4" d="M134.62,14.49c0,.49-.22.73-.58.73s-.51-.19-.51-.58c0-.07,0-.21,0-.41l0-.49a3.16,3.16,0,0,0-1.48.52,2.85,2.85,0,0,0-.87,1.15v3.21a.51.51,0,0,1-.58.59c-.34,0-.52-.19-.52-.59V14.51c0-.13,0-.32,0-.58s0-.45,0-.58c0-.4.18-.59.52-.59s.58.32.58,1a3.53,3.53,0,0,1,2.5-1.08.77.77,0,0,1,.7.35,2,2,0,0,1,.24,1.08A4,4,0,0,1,134.62,14.49Z" transform="translate(-2.07 1.29)"/><path class="cls-4" d="M18,38.55a2.17,2.17,0,0,0-.09.72c0,.12,0,.29,0,.52s0,.41,0,.52c0,.39,0,1-.11,1.75s-.1,1.35-.1,1.74,0,.75.07,1.34.06,1,.06,1.34a.56.56,0,0,1-.16.41.58.58,0,0,1-.8,0,.57.57,0,0,1-.17-.41c0-.3,0-.75-.06-1.34s-.06-1-.06-1.34,0-.57,0-.86a14.59,14.59,0,0,0-2.48.3l-2.46.48c0,.35,0,.85-.11,1.49s-.11,1.15-.11,1.51a.54.54,0,0,1-.16.4.5.5,0,0,1-.4.17.51.51,0,0,1-.4-.17.54.54,0,0,1-.16-.4c0-.42,0-1,.1-1.86s.1-1.44.1-1.85c0-.22,0-.54,0-1s0-.75,0-1,0-.78.06-1.4.06-1.08.06-1.39a.56.56,0,0,1,.16-.41.52.52,0,0,1,.4-.16.54.54,0,0,1,.4.16.56.56,0,0,1,.16.41c0,.32,0,.78-.06,1.41s-.06,1.09-.06,1.4l0,1.48,2.52-.47a15.21,15.21,0,0,1,2.53-.3c.05-.55.07-1.4.07-2.52a3.13,3.13,0,0,1,.14-.9c.13-.42.31-.63.55-.63a.57.57,0,0,1,.4.16.55.55,0,0,1,.17.41A.64.64,0,0,1,18,38.55Z" transform="translate(-2.07 1.29)"/><path class="cls-4" d="M23.45,41.81h-.58c-.09,0-.36,0-.8.09l.11,3.46v.56c0,.85-.19,1.28-.62,1.28a.61.61,0,0,1-.41-.15.5.5,0,0,1-.17-.38c0-.15,0-.37,0-.67s0-.52,0-.67l-.12-3.42c-.29,0-.72,0-1.3-.1a.53.53,0,0,1-.52-.58.63.63,0,0,1,.15-.43.57.57,0,0,1,.41-.17l1.23.1c0-.2,0-.47,0-.8s0-.57,0-.72a.52.52,0,0,1,.17-.41.56.56,0,0,1,.41-.16c.35,0,.56.29.62.86,0,.14,0,.32,0,.52l0,.34v.36l.83-.09a3.3,3.3,0,0,1,.8.06.51.51,0,0,1,.35.55.6.6,0,0,1-.16.43A.53.53,0,0,1,23.45,41.81Z" transform="translate(-2.07 1.29)"/><path class="cls-4" d="M32.63,47.29a.54.54,0,0,1-.57-.51c-.07-.43-.14-1-.21-1.82l-.2-1.81a3.66,3.66,0,0,0-.2-.79c-.13-.35-.27-.53-.43-.53a2.06,2.06,0,0,0-.81.37,4,4,0,0,0-.74.54q0,.55,0,1.11l.18,1.56a14.35,14.35,0,0,1,.11,1.53.57.57,0,0,1-.16.42.53.53,0,0,1-.41.17.54.54,0,0,1-.42-.17.61.61,0,0,1-.16-.42c0-.47-.05-1.17-.14-2.1s-.15-1.62-.15-2.09a2.16,2.16,0,0,0-.17-1,3.08,3.08,0,0,0-.83.61l-.69.78-.3.36c0,.24,0,.59-.07,1s-.06.8-.06,1a4,4,0,0,0,.05.49,2.77,2.77,0,0,1,.06.45.52.52,0,0,1-.18.41.6.6,0,0,1-.42.16q-.66,0-.66-1.5,0-.36.06-1.05c.05-.47.07-.82.07-1s0-.52-.06-.93,0-.73,0-.94c0-.89.2-1.33.59-1.33a.56.56,0,0,1,.42.2.6.6,0,0,1,.19.43,3,3,0,0,1,0,.35,2.64,2.64,0,0,0,0,.36v.61a3.5,3.5,0,0,1,.89-1.13,1.71,1.71,0,0,1,1-.51,1.28,1.28,0,0,1,1.27.92,2.13,2.13,0,0,1,.76-.65,2.38,2.38,0,0,1,1-.21,1.34,1.34,0,0,1,1.34,1,14.06,14.06,0,0,1,.24,1.65q.16,1,.42,3.36a.48.48,0,0,1-.16.4A.58.58,0,0,1,32.63,47.29Z" transform="translate(-2.07 1.29)"/><path class="cls-4" d="M36,42.2l-.09,2.91c0,.31,0,.76,0,1.36,0,.39-.23.59-.57.59s-.58-.2-.58-.6,0-1.18.07-2.13.06-1.66.06-2.13c0-.62,0-1.32,0-2.12s0-1.5,0-2.12a.58.58,0,1,1,1.15,0c0,.62,0,1.33,0,2.12S36,41.58,36,42.2Z" transform="translate(-2.07 1.29)"/><path class="cls-4" d="M39.8,39.56a2.09,2.09,0,0,1,.48-1.23,1.44,1.44,0,0,1,1.09-.69,1.28,1.28,0,0,1,1.05.47,1.66,1.66,0,0,1,.36,1.11,2.89,2.89,0,0,1-1.41,2.25A21.85,21.85,0,0,0,42.76,44a4.37,4.37,0,0,0,.17-.67c.07-.39.11-.64.14-.74.1-.32.26-.48.47-.48a.43.43,0,0,1,.38.26,1,1,0,0,1,.12.49,4.15,4.15,0,0,1-.61,2.2,6.86,6.86,0,0,1,1,1.83.48.48,0,0,1-.17.36.55.55,0,0,1-.38.15.55.55,0,0,1-.45-.3l-.67-1.17A3.68,3.68,0,0,1,40.1,47a2.8,2.8,0,0,1-1.87-.67,2.27,2.27,0,0,1-.81-1.79,3,3,0,0,1,.86-2.06A10.44,10.44,0,0,1,40.1,41.1,4.34,4.34,0,0,1,39.8,39.56Zm.74,2.49a10.21,10.21,0,0,0-1.37,1,2.11,2.11,0,0,0-.71,1.49A1.28,1.28,0,0,0,39,45.63,1.85,1.85,0,0,0,40.1,46a2.64,2.64,0,0,0,2-1C41.85,44.55,41.32,43.57,40.54,42.05Zm.45-1.6a1.67,1.67,0,0,0,.75-1.23.72.72,0,0,0-.09-.4.31.31,0,0,0-.28-.13c-.07,0-.17.12-.32.37a1.36,1.36,0,0,0-.21.5A3.12,3.12,0,0,0,41,40.45Z" transform="translate(-2.07 1.29)"/><path class="cls-4" d="M51.3,40.23a.6.6,0,0,1-.56-.44,1,1,0,0,0-.31-.46,1.79,1.79,0,0,0-.61-.06c-.56,0-1.19.43-1.88,1.3a5.38,5.38,0,0,0-1.41,3.31,1.86,1.86,0,0,0,.49,1.3,1.52,1.52,0,0,0,1.2.56,2.62,2.62,0,0,0,1.21-.31,7.42,7.42,0,0,0,1-.69A1,1,0,0,1,51,44.5a.52.52,0,0,1,.42.19.61.61,0,0,1,.17.42.58.58,0,0,1-.22.46A4.72,4.72,0,0,1,48.22,47a2.66,2.66,0,0,1-2-.94,3.08,3.08,0,0,1-.81-2.13A6.58,6.58,0,0,1,47,39.81a3.78,3.78,0,0,1,2.8-1.74l.52,0a2,2,0,0,1,.4.09.63.63,0,0,1,.54-.3c.27,0,.44.18.51.53a6.47,6.47,0,0,1,.09,1.17.68.68,0,0,1-.13.42A.51.51,0,0,1,51.3,40.23Z" transform="translate(-2.07 1.29)"/><path class="cls-4" d="M56.83,42.29a.49.49,0,0,1-.45-.21,2,2,0,0,1-.15-.64c-.3.08-.75.21-1.36.41s-.94.56-.95.93l.35.09a5.59,5.59,0,0,1,2,.66,2,2,0,0,1,1,1.79,1.59,1.59,0,0,1-.83,1.44,3.43,3.43,0,0,1-1.73.4,4.29,4.29,0,0,1-1.47-.26c-.6-.22-.9-.53-.9-.92a.54.54,0,0,1,.19-.41.61.61,0,0,1,.42-.17.76.76,0,0,1,.46.28,1.42,1.42,0,0,0,.64.22,3.53,3.53,0,0,0,.66.07,3.23,3.23,0,0,0,.87-.11q.54-.18.54-.54c0-.54-.37-.89-1.11-1.08l-.61-.14a3.06,3.06,0,0,1-1.11-.4,1.09,1.09,0,0,1-.47-1A1.79,1.79,0,0,1,53.93,41a9,9,0,0,1,1.13-.38,9.62,9.62,0,0,0,1.1-.37,1.31,1.31,0,0,1,.52-.11.57.57,0,0,1,.42.17.57.57,0,0,1,.16.42,2.33,2.33,0,0,0,.07.5,2.6,2.6,0,0,1,.08.5.58.58,0,0,1-.17.43A.53.53,0,0,1,56.83,42.29Z" transform="translate(-2.07 1.29)"/><path class="cls-4" d="M62.67,42.29a.49.49,0,0,1-.45-.21,2,2,0,0,1-.15-.64c-.29.08-.74.21-1.35.41s-.95.56-.95.93a2.14,2.14,0,0,0,.34.09,5.73,5.73,0,0,1,2,.66,2,2,0,0,1,1,1.79,1.58,1.58,0,0,1-.82,1.44,3.5,3.5,0,0,1-1.74.4,4.19,4.19,0,0,1-1.46-.26c-.61-.22-.91-.53-.91-.92a.58.58,0,0,1,.19-.41.61.61,0,0,1,.42-.17.8.8,0,0,1,.47.28,1.32,1.32,0,0,0,.63.22,3.53,3.53,0,0,0,.66.07,3.23,3.23,0,0,0,.87-.11q.54-.18.54-.54c0-.54-.37-.89-1.11-1.08l-.61-.14a3.06,3.06,0,0,1-1.11-.4,1.11,1.11,0,0,1-.47-1A1.79,1.79,0,0,1,59.77,41a9,9,0,0,1,1.13-.38,9.62,9.62,0,0,0,1.1-.37,1.36,1.36,0,0,1,.53-.11.56.56,0,0,1,.57.59,2.33,2.33,0,0,0,.07.5,2.6,2.6,0,0,1,.08.5.61.61,0,0,1-.16.43A.57.57,0,0,1,62.67,42.29Z" transform="translate(-2.07 1.29)"/><path class="cls-4" d="M143,43.37c-.11,0-.34,0-.71-.08,0,.59-.05,1.62-.05,3.1a.54.54,0,0,1-.15.39.5.5,0,0,1-.38.17.51.51,0,0,1-.39-.17.54.54,0,0,1-.15-.39V44.67c0-.58,0-1.39.1-2.43s.13-1.94.13-2.43V39a4.12,4.12,0,0,1,.07-.85c.09-.34.28-.49.58-.44a2.48,2.48,0,0,1,.53-.09c.23,0,.51,0,.85,0a3.17,3.17,0,0,1,2,.73,2.4,2.4,0,0,1,1,2,2.78,2.78,0,0,1-1.1,2.31A3.71,3.71,0,0,1,143,43.37Zm.3-4.66h-.46l-.35,0v1.08l-.12,2.33.64.08a2.73,2.73,0,0,0,1.66-.5,1.76,1.76,0,0,0,.74-1.47,1.36,1.36,0,0,0-.7-1.13A2.49,2.49,0,0,0,143.26,38.71Z" transform="translate(-2.07 1.29)"/><path class="cls-4" d="M152.51,47.17a.54.54,0,0,1-.55-.45,9.36,9.36,0,0,1-.24-1.36,12,12,0,0,1-.11-1.4c0-.1,0-.25,0-.46s0-.36,0-.46c0-.74-.18-1.1-.55-1.1a1.72,1.72,0,0,0-1.33.67,8.19,8.19,0,0,0-.82,1.32,9.54,9.54,0,0,1-.19,2.64.54.54,0,0,1-.51.36.6.6,0,0,1-.42-.16.52.52,0,0,1-.18-.4,1.38,1.38,0,0,1,.05-.26,5.25,5.25,0,0,0,.07-.85v-.87l0-4.31c0-.48,0-.81,0-1a3.45,3.45,0,0,0-.05-.57,2.51,2.51,0,0,1-.06-.55.55.55,0,0,1,.17-.41.57.57,0,0,1,.42-.16.53.53,0,0,1,.56.51,6.63,6.63,0,0,1,.09,1c0,.41,0,.84,0,1.28s0,.86,0,1.29V42a3.41,3.41,0,0,1,1-1,2.18,2.18,0,0,1,1.16-.32,1.42,1.42,0,0,1,1.34.63,3.42,3.42,0,0,1,.29,1.5l.05,1.12.11,1.22c.06.46.12.86.2,1.21a.55.55,0,0,1,0,.17.52.52,0,0,1-.18.4A.65.65,0,0,1,152.51,47.17Z" transform="translate(-2.07 1.29)"/><path class="cls-4" d="M156.73,47.15a2.26,2.26,0,0,1-1.69-.73,3.06,3.06,0,0,1-.83-2.17,3.74,3.74,0,0,1,.67-2.33,2.59,2.59,0,0,1,2.28-1.19,2,2,0,0,1,1.78,1.07,4.14,4.14,0,0,1,.46,2.09,3.82,3.82,0,0,1-.68,2.22A2.34,2.34,0,0,1,156.73,47.15Zm.35-5.23a1.47,1.47,0,0,0-1.34.82,3,3,0,0,0-.38,1.51,1.82,1.82,0,0,0,.46,1.32,1.21,1.21,0,0,0,.91.4,1.41,1.41,0,0,0,1.05-.45,1.9,1.9,0,0,0,.53-1.33C158.36,42.68,158,41.92,157.08,41.92Z" transform="translate(-2.07 1.29)"/><path class="cls-4" d="M164.77,41.81h-.58c-.09,0-.36,0-.8.09l.11,3.46v.56c0,.85-.19,1.28-.61,1.28a.59.59,0,0,1-.41-.15.47.47,0,0,1-.17-.38c0-.15,0-.37,0-.67s0-.52,0-.67l-.12-3.42c-.28,0-.71,0-1.3-.1a.54.54,0,0,1-.52-.58.59.59,0,0,1,.16-.43.54.54,0,0,1,.4-.17l1.24.1c0-.2,0-.47,0-.8s0-.57,0-.72a.55.55,0,0,1,.17-.41.58.58,0,0,1,.42-.16c.35,0,.55.29.61.86a4,4,0,0,1,0,.52v.7l.84-.09a3.2,3.2,0,0,1,.79.06.51.51,0,0,1,.36.55.6.6,0,0,1-.16.43A.56.56,0,0,1,164.77,41.81Z" transform="translate(-2.07 1.29)"/><path class="cls-4" d="M168.7,47.15a2.29,2.29,0,0,1-1.7-.73,3.15,3.15,0,0,1-.83-2.17,3.8,3.8,0,0,1,.67-2.33,2.61,2.61,0,0,1,2.28-1.19,1.93,1.93,0,0,1,1.78,1.07,4,4,0,0,1,.46,2.09,3.82,3.82,0,0,1-.68,2.22A2.34,2.34,0,0,1,168.7,47.15Zm.35-5.23a1.45,1.45,0,0,0-1.34.82,2.9,2.9,0,0,0-.38,1.51,1.78,1.78,0,0,0,.46,1.32,1.21,1.21,0,0,0,.91.4,1.44,1.44,0,0,0,1.05-.45,1.89,1.89,0,0,0,.52-1.33C170.33,42.68,169.92,41.92,169.05,41.92Z" transform="translate(-2.07 1.29)"/><path class="cls-4" d="M176.77,42.29a.5.5,0,0,1-.46-.21,2.85,2.85,0,0,1-.15-.64c-.29.08-.74.21-1.35.41s-.95.56-.95.93a2.25,2.25,0,0,0,.35.09,5.74,5.74,0,0,1,2,.66,2,2,0,0,1,.95,1.79,1.58,1.58,0,0,1-.82,1.44,3.5,3.5,0,0,1-1.74.4,4.19,4.19,0,0,1-1.46-.26c-.6-.22-.9-.53-.9-.92a.57.57,0,0,1,.18-.41.61.61,0,0,1,.42-.17.77.77,0,0,1,.47.28,1.32,1.32,0,0,0,.63.22,3.53,3.53,0,0,0,.66.07,3.23,3.23,0,0,0,.87-.11c.36-.12.55-.3.55-.54,0-.54-.38-.89-1.12-1.08l-.61-.14a2.92,2.92,0,0,1-1.1-.4,1.1,1.1,0,0,1-.48-1A1.79,1.79,0,0,1,173.87,41a8.16,8.16,0,0,1,1.12-.38,9.27,9.27,0,0,0,1.11-.37,1.27,1.27,0,0,1,.52-.11.55.55,0,0,1,.41.17.57.57,0,0,1,.16.42,2.49,2.49,0,0,0,.08.5,2.41,2.41,0,0,1,.07.5.57.57,0,0,1-.16.43A.56.56,0,0,1,176.77,42.29Z" transform="translate(-2.07 1.29)"/><path class="cls-4" d="M183.56,47.17a.54.54,0,0,1-.55-.45,9.36,9.36,0,0,1-.24-1.36,12,12,0,0,1-.11-1.4c0-.1,0-.25,0-.46s0-.36,0-.46c0-.74-.18-1.1-.55-1.1a1.72,1.72,0,0,0-1.33.67,8.19,8.19,0,0,0-.82,1.32,9.54,9.54,0,0,1-.19,2.64.54.54,0,0,1-.51.36.6.6,0,0,1-.42-.16.52.52,0,0,1-.18-.4,1.38,1.38,0,0,1,.05-.26,4.62,4.62,0,0,0,.06-.85l0-.87,0-4.31c0-.48,0-.81,0-1a3.45,3.45,0,0,0,0-.57,2.51,2.51,0,0,1-.06-.55.55.55,0,0,1,.17-.41.57.57,0,0,1,.42-.16.53.53,0,0,1,.56.51,6.63,6.63,0,0,1,.09,1c0,.41,0,.84,0,1.28s0,.86,0,1.29V42a3.41,3.41,0,0,1,1-1,2.18,2.18,0,0,1,1.16-.32,1.39,1.39,0,0,1,1.33.63,3.39,3.39,0,0,1,.3,1.5l0,1.12.12,1.22c.06.46.12.86.2,1.21a.52.52,0,0,1,0,.17.51.51,0,0,1-.17.4A.65.65,0,0,1,183.56,47.17Z" transform="translate(-2.07 1.29)"/><path class="cls-4" d="M187.78,47.15a2.25,2.25,0,0,1-1.69-.73,3.06,3.06,0,0,1-.83-2.17,3.8,3.8,0,0,1,.66-2.33,2.61,2.61,0,0,1,2.29-1.19A1.92,1.92,0,0,1,190,41.8a4.14,4.14,0,0,1,.47,2.09,3.82,3.82,0,0,1-.68,2.22A2.34,2.34,0,0,1,187.78,47.15Zm.35-5.23a1.47,1.47,0,0,0-1.34.82,3,3,0,0,0-.38,1.51,1.78,1.78,0,0,0,.46,1.32,1.21,1.21,0,0,0,.91.4,1.41,1.41,0,0,0,1.05-.45,1.9,1.9,0,0,0,.53-1.33C189.41,42.68,189,41.92,188.13,41.92Z" transform="translate(-2.07 1.29)"/><path class="cls-4" d="M194.38,47a4.73,4.73,0,0,1-1.28-.19l0,2.8a.55.55,0,0,1-.16.42.58.58,0,0,1-.82,0,.55.55,0,0,1-.16-.42V44.94c0-.85,0-1.63-.08-2.34l-.09-1.19a1.51,1.51,0,0,1,.15-.7.55.55,0,0,1,.51-.34.49.49,0,0,1,.38.16.51.51,0,0,1,.16.39s0,.1,0,.2,0,.23,0,.33a4.88,4.88,0,0,1,1-.52,2.74,2.74,0,0,1,.9-.17,1.85,1.85,0,0,1,1.76,1.06,4.93,4.93,0,0,1,.44,2.24,3.15,3.15,0,0,1-.68,2.08A2.37,2.37,0,0,1,194.38,47Zm.41-5.08a2,2,0,0,0-1,.24,4,4,0,0,0-.79.62c.05.89.08,1.82.08,2.8a3.57,3.57,0,0,0,1.27.24,1.28,1.28,0,0,0,1.12-.54,2.06,2.06,0,0,0,.34-1.23,3.84,3.84,0,0,0-.26-1.6A.85.85,0,0,0,194.79,41.93Z" transform="translate(-2.07 1.29)"/><path class="cls-4" d="M142.26,118.25c-.36,0-.67-.46-.94-1.38-.1-.36-.23-1-.38-1.85-.4,0-.92.15-1.56.29l-1.56.33c-.2.51-.53,1.25-1,2.24a.56.56,0,0,1-.51.33.6.6,0,0,1-.41-.17.55.55,0,0,1-.19-.42,10.79,10.79,0,0,1,.89-2.14.6.6,0,0,1-.1-.35c0-.32.19-.52.57-.61.45-.84,1-1.8,1.69-2.89.92-1.48,1.5-2.22,1.73-2.22s.52.22.63.65l.37,2,.87,4.07.34.92a2.61,2.61,0,0,1,.17.64.57.57,0,0,1-.19.42A.6.6,0,0,1,142.26,118.25Zm-2.07-6.7-1.68,2.7c.48-.12,1.19-.27,2.15-.44Z" transform="translate(-2.07 1.29)"/><path class="cls-4" d="M149.92,112.9c0,.57-.07,1.15-.07,1.72a18,18,0,0,0,.18,2.95.66.66,0,0,1,0,.13.5.5,0,0,1-.16.39.55.55,0,0,1-.38.15c-.24,0-.42-.17-.53-.52a3.37,3.37,0,0,1-.88.46,2.9,2.9,0,0,1-3-.65,2.9,2.9,0,0,1-.82-2.12,3.69,3.69,0,0,1,.83-2.51,2.77,2.77,0,0,1,2.16-.94,2.17,2.17,0,0,1,1,.21l.55.41c0-1.65.12-2.76.19-3.33,0-.34.23-.52.53-.52s.54.19.54.57Q150.16,110.11,149.92,112.9Zm-2.6.15a1.85,1.85,0,0,0-1.48.58,2.74,2.74,0,0,0-.49,1.76,1.78,1.78,0,0,0,.54,1.3,1.71,1.71,0,0,0,1.25.54,1.8,1.8,0,0,0,.84-.18,4.72,4.72,0,0,0,.65-.48,1.49,1.49,0,0,0,.17-.18l0-1V114a1.68,1.68,0,0,0-.59-.71A1.62,1.62,0,0,0,147.32,113.05Z" transform="translate(-2.07 1.29)"/><path class="cls-4" d="M153.77,118.42a2.26,2.26,0,0,1-1.69-.73,3.06,3.06,0,0,1-.83-2.17,3.8,3.8,0,0,1,.66-2.33A2.61,2.61,0,0,1,154.2,112a1.91,1.91,0,0,1,1.77,1.07,4.13,4.13,0,0,1,.47,2.08,3.83,3.83,0,0,1-.68,2.23A2.34,2.34,0,0,1,153.77,118.42Zm.35-5.23a1.47,1.47,0,0,0-1.34.82,3,3,0,0,0-.38,1.51,1.8,1.8,0,0,0,.46,1.32,1.24,1.24,0,0,0,.91.39,1.4,1.4,0,0,0,1-.44,1.9,1.9,0,0,0,.53-1.33C155.4,114,155,113.19,154.12,113.19Z" transform="translate(-2.07 1.29)"/><path class="cls-4" d="M160.62,118.32A3.78,3.78,0,0,1,159,118a.55.55,0,0,1-.45.28.49.49,0,0,1-.38-.16.5.5,0,0,1-.16-.39c0-.1,0-.25,0-.45s0-.35,0-.45q0-.61,0-1.86t0-1.86v-1.62c0-.79,0-1.34,0-1.63a1.46,1.46,0,0,1,.14-.63.6.6,0,0,1,.54-.36c.29,0,.44.17.44.51a1.29,1.29,0,0,1,0,.24,1.52,1.52,0,0,0,0,.24l0,1.29v1.49a4.88,4.88,0,0,1,1-.52,2.57,2.57,0,0,1,.86-.17,2.5,2.5,0,0,1,2,1,3.43,3.43,0,0,1,.74,2.23,3.24,3.24,0,0,1-.86,2.27A2.82,2.82,0,0,1,160.62,118.32Zm.22-5.29a2.07,2.07,0,0,0-1,.27,7.83,7.83,0,0,0-.84.58l0,1v1.88l.79.32a2.55,2.55,0,0,0,.81.12,1.82,1.82,0,0,0,1.4-.6,2.15,2.15,0,0,0,.54-1.49,2.39,2.39,0,0,0-.44-1.46A1.52,1.52,0,0,0,160.84,113Z" transform="translate(-2.07 1.29)"/><path class="cls-4" d="M167.74,118.34a3.3,3.3,0,0,1-2.14-.66,2.5,2.5,0,0,1-.9-2.05,4.3,4.3,0,0,1,.74-2.56,2.49,2.49,0,0,1,2.14-1.12,3.35,3.35,0,0,1,1.59.33,1.29,1.29,0,0,1,.09,2.31,8.61,8.61,0,0,1-1.24.65l-2.24,1.06a2.15,2.15,0,0,0,.82.74,2.58,2.58,0,0,0,1.14.24,3.63,3.63,0,0,0,.95-.15,1.5,1.5,0,0,0,.89-.51.54.54,0,0,1,.43-.31.55.55,0,0,1,.53.51c0,.44-.35.81-1,1.12A4.23,4.23,0,0,1,167.74,118.34Zm-.16-5.34a1.52,1.52,0,0,0-1.19.56,3.84,3.84,0,0,0-.71,1.66l1.8-.85a7.12,7.12,0,0,0,1.51-.9A2,2,0,0,0,167.58,113Z" transform="translate(-2.07 1.29)"/><path class="cls-4" d="M182.43,110.17c-.52.63-.93,1.15-1.21,1.56l-.73,1.08a10.08,10.08,0,0,1-.8,1l1.29,1.88a21.82,21.82,0,0,0,1.36,1.83.61.61,0,0,1,.16.41.62.62,0,0,1-.6.6.61.61,0,0,1-.42-.18,6.14,6.14,0,0,1-.9-1.11l-.79-1.21-.92-1.32-2,2.34-1.08,1.2a.6.6,0,0,1-.43.2.58.58,0,0,1-.42-.18.61.61,0,0,1-.18-.43.62.62,0,0,1,.15-.4l1.06-1.18,2.19-2.55c-.43-.57-.88-1.15-1.37-1.73l-.68-.92a5.47,5.47,0,0,0-.76-.84.62.62,0,0,1-.25-.47.63.63,0,0,1,.17-.43.56.56,0,0,1,.43-.19c.33,0,.75.35,1.27,1.06.16.24.4.58.73,1s.87,1.07,1.27,1.6L180.3,111c.86-1.21,1.43-1.81,1.68-1.81a.6.6,0,0,1,.45,1Z" transform="translate(-2.07 1.29)"/><path class="cls-4" d="M189.34,118a4.58,4.58,0,0,1-2.61.62,4.2,4.2,0,0,1-1-.13,2.72,2.72,0,0,1-1-.41h-.06a.54.54,0,0,1-.42-.18.57.57,0,0,1-.17-.43c0-.41,0-1,0-1.84s.06-1.43.06-1.84,0-1.14,0-2,0-1.59,0-2a.77.77,0,0,1,.25-.5.67.67,0,0,1,.49-.26,4,4,0,0,1,.94.39c.6.29.95.45,1,.48a7.32,7.32,0,0,1,2.84,1.75,4.26,4.26,0,0,1,1.38,3,4.08,4.08,0,0,1-.48,1.92A3.84,3.84,0,0,1,189.34,118Zm-1.23-6.2a25.28,25.28,0,0,0-2.76-1.35l0,1.69v1.68l-.09,3.2a.49.49,0,0,1,.12.08,2.31,2.31,0,0,0,1.3.34,3.52,3.52,0,0,0,1.95-.41,2.72,2.72,0,0,0,.91-1,2.94,2.94,0,0,0,.33-1.36A3.38,3.38,0,0,0,188.11,111.83Z" transform="translate(-2.07 1.29)"/><path class="cls-4" d="M9.3,118a4.52,4.52,0,0,1-2.6.62,4.13,4.13,0,0,1-1-.13,2.87,2.87,0,0,1-1-.41H4.66a.58.58,0,0,1-.42-.18.59.59,0,0,1-.17-.42c0-.41,0-1,.06-1.85s0-1.43,0-1.84,0-1.14,0-2,0-1.59,0-2a.74.74,0,0,1,.25-.5.67.67,0,0,1,.49-.26,4.17,4.17,0,0,1,.94.39l1,.49a7.25,7.25,0,0,1,2.84,1.74,4.28,4.28,0,0,1,1.37,3,4.14,4.14,0,0,1-.47,1.93A3.83,3.83,0,0,1,9.3,118Zm-1.23-6.2a22.35,22.35,0,0,0-2.76-1.34l0,1.68,0,1.68-.09,3.2.12.08a2.29,2.29,0,0,0,1.3.35,3.63,3.63,0,0,0,2-.41,2.76,2.76,0,0,0,.9-1,2.9,2.9,0,0,0,.34-1.37A3.37,3.37,0,0,0,8.07,111.83Z" transform="translate(-2.07 1.29)"/><path class="cls-4" d="M16.57,113.74c0,.49-.23.74-.59.74s-.5-.2-.5-.58c0-.08,0-.22,0-.41l0-.5a3.16,3.16,0,0,0-1.48.52,2.85,2.85,0,0,0-.87,1.15v3.21c0,.4-.19.6-.58.6s-.51-.2-.51-.6v-4.11c0-.13,0-.32,0-.58s0-.45,0-.58c0-.39.17-.59.51-.59s.58.32.58,1a3.53,3.53,0,0,1,2.5-1.08.8.8,0,0,1,.71.36,2,2,0,0,1,.23,1.07Z" transform="translate(-2.07 1.29)"/><path class="cls-4" d="M20,118.34a3.3,3.3,0,0,1-2.14-.66,2.5,2.5,0,0,1-.9-2.05,4.25,4.25,0,0,1,.74-2.55A2.5,2.5,0,0,1,19.88,112a3.35,3.35,0,0,1,1.59.33,1.29,1.29,0,0,1,.09,2.31,8.61,8.61,0,0,1-1.24.65l-2.24,1.06a2.15,2.15,0,0,0,.82.74,2.58,2.58,0,0,0,1.14.24,3.63,3.63,0,0,0,.95-.15,1.5,1.5,0,0,0,.89-.51.54.54,0,0,1,.43-.31.57.57,0,0,1,.53.52q0,.65-1.05,1.11A4.23,4.23,0,0,1,20,118.34ZM19.88,113a1.51,1.51,0,0,0-1.19.55,3.83,3.83,0,0,0-.71,1.67l1.8-.86a7.12,7.12,0,0,0,1.51-.9A2,2,0,0,0,19.88,113Z" transform="translate(-2.07 1.29)"/><path class="cls-4" d="M28,118.46c-.08,0-.21-.09-.41-.26a2.85,2.85,0,0,1-.39-.43,6.84,6.84,0,0,1-1,.46,2.05,2.05,0,0,1-.72.16,2.42,2.42,0,0,1-2-.77,3.47,3.47,0,0,1-.59-2.23,3.37,3.37,0,0,1,1-2.43,3.13,3.13,0,0,1,2.33-1,2.9,2.9,0,0,1,1.14.26c.53.22.8.48.8.79a.38.38,0,0,1-.12.28,4,4,0,0,0-.09.73c0,.34,0,.78,0,1.31a5,5,0,0,0,.1,1.15,8.28,8.28,0,0,0,.37,1c0,.07.07.17.14.31l0,.1a.5.5,0,0,1-.16.39A.55.55,0,0,1,28,118.46Zm-1.22-4.07c0-.17,0-.35,0-.55a5.12,5.12,0,0,1,.1-.63,2.63,2.63,0,0,0-.38-.16.69.69,0,0,0-.24-.06,2,2,0,0,0-1.57.74,2.52,2.52,0,0,0-.66,1.71,2.47,2.47,0,0,0,.34,1.44,1.18,1.18,0,0,0,1,.48,2,2,0,0,0,.95-.2,3.24,3.24,0,0,0,.6-.45A20.15,20.15,0,0,1,26.77,114.39Z" transform="translate(-2.07 1.29)"/><path class="cls-4" d="M36.52,118.56a.53.53,0,0,1-.56-.51c-.07-.43-.14-1-.21-1.82l-.2-1.81a3.52,3.52,0,0,0-.2-.79c-.13-.36-.27-.53-.43-.53a2,2,0,0,0-.81.37,3.6,3.6,0,0,0-.74.54c0,.37,0,.74,0,1.1l.18,1.57a14.35,14.35,0,0,1,.11,1.53.61.61,0,0,1-.16.42.57.57,0,0,1-.42.17.56.56,0,0,1-.57-.59c0-.47,0-1.17-.14-2.1s-.15-1.62-.15-2.09a2.28,2.28,0,0,0-.17-1,2.94,2.94,0,0,0-.83.61l-.7.77a2.42,2.42,0,0,1-.3.37c0,.24,0,.58-.06,1s-.06.8-.06,1a2.68,2.68,0,0,0,.05.5,2.77,2.77,0,0,1,.06.45.54.54,0,0,1-.18.41.6.6,0,0,1-.42.16q-.66,0-.66-1.5,0-.36.06-1.05c0-.47.07-.82.07-1s0-.52-.06-.93-.05-.73-.05-.94c0-.89.19-1.33.59-1.33a.58.58,0,0,1,.42.2.6.6,0,0,1,.19.43,3,3,0,0,1,0,.35,2.87,2.87,0,0,0,0,.36l0,.61a3.4,3.4,0,0,1,.89-1.13,1.71,1.71,0,0,1,1-.51,1.28,1.28,0,0,1,1.27.91,2.21,2.21,0,0,1,.76-.64,2.38,2.38,0,0,1,1-.21,1.35,1.35,0,0,1,1.34,1,13.66,13.66,0,0,1,.24,1.65q.16,1,.42,3.36a.48.48,0,0,1-.16.4A.6.6,0,0,1,36.52,118.56Z" transform="translate(-2.07 1.29)"/><path class="cls-4" d="M45,112.83c-.3,1.27-.7,2.71-1.19,4.32a4.3,4.3,0,0,1-.55,1.09.63.63,0,0,1-.56.31q-.63,0-1-1.59c-.08-.34-.16-.79-.24-1.37l-.2-1.31-.48,1.12-.89,2.42a.7.7,0,0,1-.22.34.59.59,0,0,1-.56.35c-.3,0-.59-.57-.86-1.74q-.21-.92-.42-2.46l-.15-.88a6.39,6.39,0,0,1-.07-.89.53.53,0,0,1,.17-.4.61.61,0,0,1,.42-.17.53.53,0,0,1,.55.49,7.13,7.13,0,0,1,.12.86l.09.86.35,2.63c.43-1.21.88-2.59,1.35-4.16.12-.44.35-.65.67-.65s.52.24.63.72.22,1.16.38,2.11.29,1.76.41,2.31l.43-1.6.76-3.19a.45.45,0,0,1,.5-.36.63.63,0,0,1,.43.17.52.52,0,0,1,.18.4A2.48,2.48,0,0,1,45,112.83Z" transform="translate(-2.07 1.29)"/><path class="cls-4" d="M48.42,118.34a3.32,3.32,0,0,1-2.15-.66,2.5,2.5,0,0,1-.9-2.05,4.25,4.25,0,0,1,.74-2.55A2.52,2.52,0,0,1,48.26,112a3.31,3.31,0,0,1,1.58.33,1.31,1.31,0,0,1,.76,1.24,1.35,1.35,0,0,1-.66,1.07,9.23,9.23,0,0,1-1.24.65l-2.24,1.06a2.15,2.15,0,0,0,.82.74,2.52,2.52,0,0,0,1.14.24,3.63,3.63,0,0,0,.94-.15,1.47,1.47,0,0,0,.89-.51c.14-.21.28-.31.43-.31a.5.5,0,0,1,.37.16.46.46,0,0,1,.16.36q0,.65-1.05,1.11A4.22,4.22,0,0,1,48.42,118.34ZM48.26,113a1.48,1.48,0,0,0-1.19.55,3.61,3.61,0,0,0-.71,1.67l1.8-.86a7.39,7.39,0,0,0,1.51-.9A2,2,0,0,0,48.26,113Z" transform="translate(-2.07 1.29)"/><path class="cls-4" d="M56.36,118.46a.91.91,0,0,1-.4-.26,2.51,2.51,0,0,1-.4-.43,6,6,0,0,1-1,.46,2,2,0,0,1-.71.16,2.44,2.44,0,0,1-2-.77,3.54,3.54,0,0,1-.59-2.23,3.37,3.37,0,0,1,1-2.43,3.13,3.13,0,0,1,2.33-1,3,3,0,0,1,1.15.26c.53.22.79.48.79.79a.41.41,0,0,1-.11.28,4.89,4.89,0,0,0-.1.73c0,.34,0,.78,0,1.31a4.48,4.48,0,0,0,.1,1.15,8.28,8.28,0,0,0,.37,1c0,.07.07.17.13.31l0,.1a.51.51,0,0,1-.17.39A.55.55,0,0,1,56.36,118.46Zm-1.22-4.07c0-.17,0-.35,0-.55s.06-.41.1-.63a2.58,2.58,0,0,0-.37-.16.79.79,0,0,0-.25-.06,2,2,0,0,0-1.57.74,2.52,2.52,0,0,0-.66,1.71,2.55,2.55,0,0,0,.34,1.44,1.18,1.18,0,0,0,1,.48,2,2,0,0,0,1-.2,2.94,2.94,0,0,0,.59-.45A20.15,20.15,0,0,1,55.14,114.39Z" transform="translate(-2.07 1.29)"/><path class="cls-4" d="M60.16,117.77a.49.49,0,0,1-.54.54.66.66,0,0,1-.62-.51l-.89-2.37-1-2.69a1.12,1.12,0,0,1-.05-.27.54.54,0,0,1,.18-.41.57.57,0,0,1,.42-.17.52.52,0,0,1,.5.35l1.49,4.1c.29-.63.66-1.53,1.11-2.72.1-.31.27-.75.5-1.32a.56.56,0,0,1,.51-.38.61.61,0,0,1,.42.17.52.52,0,0,1,.19.41,20.18,20.18,0,0,1-1,2.5Z" transform="translate(-2.07 1.29)"/><path class="cls-4" d="M65.56,118.34a3.3,3.3,0,0,1-2.14-.66,2.5,2.5,0,0,1-.9-2.05,4.25,4.25,0,0,1,.74-2.55A2.5,2.5,0,0,1,65.4,112a3.35,3.35,0,0,1,1.59.33,1.31,1.31,0,0,1,.76,1.24,1.34,1.34,0,0,1-.67,1.07,8.06,8.06,0,0,1-1.24.65L63.6,116.3a2.22,2.22,0,0,0,.82.74,2.58,2.58,0,0,0,1.14.24,3.63,3.63,0,0,0,1-.15,1.5,1.5,0,0,0,.89-.51.54.54,0,0,1,.43-.31.55.55,0,0,1,.53.52q0,.65-1,1.11A4.23,4.23,0,0,1,65.56,118.34ZM65.4,113a1.51,1.51,0,0,0-1.19.55,3.83,3.83,0,0,0-.71,1.67l1.8-.86a7.53,7.53,0,0,0,1.52-.9A2,2,0,0,0,65.4,113Z" transform="translate(-2.07 1.29)"/><path class="cls-4" d="M73.49,113.74c0,.49-.22.74-.59.74s-.5-.2-.5-.58c0-.08,0-.22,0-.41V113a3.2,3.2,0,0,0-1.49.52,2.92,2.92,0,0,0-.86,1.15v3.21a.52.52,0,0,1-.58.6c-.35,0-.52-.2-.52-.6v-4.11c0-.13,0-.32,0-.58s0-.45,0-.58c0-.39.17-.59.52-.59s.57.32.58,1a3.52,3.52,0,0,1,2.49-1.08.78.78,0,0,1,.71.36,1.9,1.9,0,0,1,.24,1.07C73.5,113.54,73.49,113.67,73.49,113.74Z" transform="translate(-2.07 1.29)"/><circle class="cls-9" cx="93.03" cy="127.34" r="2.31"/><circle class="cls-9" cx="107.89" cy="127.28" r="2.37"/><polygon class="cls-10" points="100.43 21.13 52.88 55.68 71.04 111.58 129.82 111.58 147.98 55.68 100.43 21.13"/><path class="cls-6" d="M102.5,21.08l46.38,33.69-17.72,54.52H73.84L56.12,54.77,102.5,21.08m0-1.24L55,54.39l18.16,55.9h58.78l18.16-55.9L102.5,19.84Z" transform="translate(-2.07 1.29)"/><g class="cls-11"><ellipse class="cls-5" cx="68.22" cy="110.08" rx="15.66" ry="16.17"/><ellipse class="cls-5" cx="138.47" cy="111.58" rx="15.66" ry="16.17"/><ellipse class="cls-5" cx="147.98" cy="53.58" rx="15.66" ry="16.17"/><ellipse class="cls-5" cx="100.43" cy="16.17" rx="15.66" ry="16.17"/><ellipse class="cls-5" cx="50.92" cy="54.2" rx="15.66" ry="16.17"/></g><polygon class="cls-5" points="100.43 30.63 69.93 59.63 81.93 95.63 123.93 102.63 130.93 59.63 100.43 30.63"/><path class="cls-6" d="M102.5,21.08l46.38,33.69-17.72,54.52H73.84L56.12,54.77,102.5,21.08m0-1.24L55,54.39l18.16,55.9h58.78l18.16-55.9L102.5,19.84Z" transform="translate(-2.07 1.29)"/><path class="cls-6" d="M102.5,29.19l37.75,27.43L125.83,101H79.17L64.75,56.62,102.5,29.19m0-.3-38,27.63L79,101.25h47l14.53-44.73-38-27.63Z" transform="translate(-2.07 1.29)"/><path class="cls-6" d="M102.5,36.43l30.14,21.9L121.13,93.76H83.87L72.36,58.33l30.14-21.9m0-.31L72.07,58.23,83.69,94h37.62l11.62-35.78L102.5,36.12Z" transform="translate(-2.07 1.29)"/><path class="cls-6" d="M102.5,45.11l21,15.27-8,24.7h-26l-8-24.7,21-15.27m0-.31L81.2,60.28l8.13,25h26.34l8.13-25L102.5,44.8Z" transform="translate(-2.07 1.29)"/><path class="cls-6" d="M102.5,53.84l11.9,8.64-4.55,14H95.15l-4.55-14,11.9-8.64m0-.93L89.72,62.2l4.88,15h15.8l4.88-15L102.5,52.91Z" transform="translate(-2.07 1.29)"/><path class="cls-12" d="M102.5,65.84" transform="translate(-2.07 1.29)"/><polygon class="cls-6" points="71.51 111.15 71.3 111.01 100.32 67.06 100.53 67.2 71.51 111.15"/><rect class="cls-6" x="116.93" y="61.45" width="0.25" height="52.67" transform="translate(-31.09 80.63) rotate(-33.56)"/><rect class="cls-6" x="101.83" y="60.06" width="48.34" height="0.25" transform="translate(-12.66 32.48) rotate(-13.55)"/><rect class="cls-6" x="100.3" y="21.65" width="0.25" height="45.48"/><rect class="cls-6" x="78.78" y="35.89" width="0.25" height="48.54" transform="translate(-0.13 124.08) rotate(-76.46)"/><path class="cls-6" d="M77.86,9.52a6.14,6.14,0,0,1-1-.08L76,9.32c-.09,1.14-.14,2.22-.14,3.26,0,.27,0,.61,0,1s0,.74,0,1,0,.7,0,1l1.85,0a.53.53,0,0,1,.41.17.57.57,0,0,1,.17.42.6.6,0,0,1-.17.43.54.54,0,0,1-.41.18h-1l-1,0a9.12,9.12,0,0,0-1.16.1A7.87,7.87,0,0,1,73.4,17a.57.57,0,0,1-.42-.17.6.6,0,0,1-.16-.43A.58.58,0,0,1,73,16a.54.54,0,0,1,.42-.18,10.8,10.8,0,0,0,1.26-.12,9,9,0,0,0,0-1.09c0-.27,0-.59,0-1s0-.72,0-1c0-.91,0-2,.16-3.39L74,9.3l-.76,0a.57.57,0,0,1-.42-.17.58.58,0,0,1-.17-.44.54.54,0,0,1,.55-.6c.31,0,.91,0,1.77,0a21,21,0,0,1,2.93.25.62.62,0,0,1,.32,1.07A.64.64,0,0,1,77.86,9.52Z" transform="translate(-2.07 1.29)"/><path class="cls-6" d="M81.11,12.22,81,15.13c0,.31,0,.76,0,1.36,0,.39-.23.58-.57.58a.52.52,0,0,1-.58-.59c0-.48,0-1.19.07-2.13s.06-1.66.06-2.13c0-.62,0-1.33,0-2.12S80,8.6,80,8a.58.58,0,1,1,1.16,0c0,.62,0,1.32,0,2.12S81.11,11.6,81.11,12.22Z" transform="translate(-2.07 1.29)"/><path class="cls-6" d="M84.39,12.22l-.08,2.91c0,.31,0,.76,0,1.36,0,.39-.23.58-.57.58a.52.52,0,0,1-.58-.59c0-.48,0-1.19.07-2.13s.06-1.66.06-2.13c0-.62,0-1.33,0-2.12s0-1.5,0-2.12a.58.58,0,1,1,1.15,0c0,.62,0,1.32,0,2.12S84.39,11.6,84.39,12.22Z" transform="translate(-2.07 1.29)"/><path class="cls-6" d="M91,13.4c0,.28,0,.7,0,1.27s0,1,0,1.26a3.13,3.13,0,0,0,0,.39c0,.18,0,.31,0,.4a.57.57,0,0,1-.17.41.58.58,0,0,1-.42.16c-.3,0-.49-.19-.57-.56a3.54,3.54,0,0,1-1.69.38,2.19,2.19,0,0,1-1.27-.34,1.51,1.51,0,0,1-.66-1.09A18.29,18.29,0,0,1,86,12.91a11.62,11.62,0,0,1,.17-1.82.53.53,0,0,1,.56-.51.57.57,0,0,1,.42.16.5.5,0,0,1,.17.41,7.92,7.92,0,0,1-.08.86,6.66,6.66,0,0,0-.09.9,16.18,16.18,0,0,0,.07,1.68,5.37,5.37,0,0,0,.19,1.12,2.39,2.39,0,0,0,.38.16,1.24,1.24,0,0,0,.37.06,6,6,0,0,0,1.66-.26V13.35a19.77,19.77,0,0,1,.11-2.2.53.53,0,0,1,.57-.54.61.61,0,0,1,.42.16.49.49,0,0,1,.16.41Z" transform="translate(-2.07 1.29)"/><path class="cls-6" d="M96.39,12.31a.46.46,0,0,1-.45-.22,1.88,1.88,0,0,1-.15-.63c-.3.07-.75.21-1.36.41s-.94.56-1,.93a2.25,2.25,0,0,0,.35.09,5.66,5.66,0,0,1,2,.66,2,2,0,0,1,1,1.78A1.57,1.57,0,0,1,96,16.77a3.36,3.36,0,0,1-1.73.4,4.24,4.24,0,0,1-1.47-.25c-.6-.22-.9-.53-.9-.92a.57.57,0,0,1,.18-.41.6.6,0,0,1,.42-.17.77.77,0,0,1,.47.28,1.42,1.42,0,0,0,.63.22,3.71,3.71,0,0,0,.67.07,2.84,2.84,0,0,0,.86-.12c.37-.11.55-.29.55-.54,0-.53-.37-.89-1.11-1.07l-.61-.14a3.26,3.26,0,0,1-1.11-.4,1.12,1.12,0,0,1-.48-1A1.79,1.79,0,0,1,93.49,11a7.36,7.36,0,0,1,1.12-.38,9.27,9.27,0,0,0,1.11-.37,1.27,1.27,0,0,1,.52-.11.57.57,0,0,1,.42.16.63.63,0,0,1,.16.43,2.33,2.33,0,0,0,.07.5,2.33,2.33,0,0,1,.07.5.59.59,0,0,1-.16.43A.54.54,0,0,1,96.39,12.31Z" transform="translate(-2.07 1.29)"/><path class="cls-6" d="M102.2,11.83h-.58l-.8.08.11,3.47v.55c0,.86-.19,1.29-.61,1.29a.56.56,0,0,1-.41-.16.46.46,0,0,1-.17-.38c0-.15,0-.37,0-.66s0-.52,0-.67l-.12-3.42-1.3-.1a.54.54,0,0,1-.52-.58A.57.57,0,0,1,98,10.8a.51.51,0,0,1,.4-.17l1.23.1c0-.2,0-.47,0-.8s0-.58,0-.73a.53.53,0,0,1,.17-.4.58.58,0,0,1,.42-.16c.35,0,.55.28.61.86,0,.14,0,.32,0,.52v.7l.84-.09a3.2,3.2,0,0,1,.79.06.51.51,0,0,1,.36.55.56.56,0,0,1-.57.59Z" transform="translate(-2.07 1.29)"/><path class="cls-6" d="M108.49,12.49c0,.49-.22.73-.59.73s-.5-.19-.5-.58c0-.07,0-.21,0-.41l0-.49a3.2,3.2,0,0,0-1.48.52,2.85,2.85,0,0,0-.87,1.15l0,3.21a.52.52,0,0,1-.58.59c-.35,0-.52-.19-.52-.59V12.51c0-.13,0-.32,0-.58s0-.45,0-.58c0-.4.17-.59.51-.59s.58.32.58,1a3.54,3.54,0,0,1,2.5-1.08.78.78,0,0,1,.71.35,2,2,0,0,1,.23,1.08Z" transform="translate(-2.07 1.29)"/><path class="cls-6" d="M114.27,17.21a.91.91,0,0,1-.4-.26,2.51,2.51,0,0,1-.4-.43,6,6,0,0,1-1,.46,2,2,0,0,1-.71.16,2.42,2.42,0,0,1-2-.78,3.48,3.48,0,0,1-.59-2.22,3.33,3.33,0,0,1,1-2.43,3.12,3.12,0,0,1,2.32-1,3,3,0,0,1,1.15.27c.53.22.79.48.79.79a.43.43,0,0,1-.11.28,4,4,0,0,0-.09.73c0,.34,0,.78,0,1.31a4.53,4.53,0,0,0,.1,1.15,8.92,8.92,0,0,0,.37,1c0,.07.07.17.13.31l0,.1a.52.52,0,0,1-.17.39A.54.54,0,0,1,114.27,17.21Zm-1.22-4.07c0-.17,0-.35,0-.55s.06-.41.1-.63a2.79,2.79,0,0,0-.37-.17,1,1,0,0,0-.25,0,2.06,2.06,0,0,0-1.57.74,2.52,2.52,0,0,0-.66,1.71,2.55,2.55,0,0,0,.34,1.44,1.18,1.18,0,0,0,1,.48,2.13,2.13,0,0,0,1-.2,4,4,0,0,0,.59-.45A22.75,22.75,0,0,1,113.05,13.14Z" transform="translate(-2.07 1.29)"/><path class="cls-6" d="M119.76,11.83h-.58l-.8.08.11,3.47v.55c0,.86-.19,1.29-.61,1.29a.56.56,0,0,1-.41-.16.46.46,0,0,1-.17-.38c0-.15,0-.37,0-.66s0-.52,0-.67l-.12-3.42-1.3-.1a.54.54,0,0,1-.52-.58.61.61,0,0,1,.16-.43.51.51,0,0,1,.4-.17l1.24.1c0-.2,0-.47,0-.8s0-.58,0-.73a.53.53,0,0,1,.17-.4.58.58,0,0,1,.42-.16c.35,0,.56.28.61.86a4,4,0,0,1,0,.52v.7l.84-.09a3.2,3.2,0,0,1,.79.06.51.51,0,0,1,.36.55.56.56,0,0,1-.57.59Z" transform="translate(-2.07 1.29)"/><path class="cls-6" d="M124.23,17.09a3.32,3.32,0,0,1-2.15-.66,2.49,2.49,0,0,1-.89-2,4.3,4.3,0,0,1,.73-2.56,2.51,2.51,0,0,1,2.15-1.12,3.35,3.35,0,0,1,1.59.33,1.32,1.32,0,0,1,.75,1.24,1.36,1.36,0,0,1-.66,1.07,10.62,10.62,0,0,1-1.24.65l-2.24,1.06a2,2,0,0,0,.82.73,2.4,2.4,0,0,0,1.14.25,3.69,3.69,0,0,0,1-.15,1.53,1.53,0,0,0,.89-.51c.13-.21.27-.31.42-.31a.53.53,0,0,1,.37.15.5.5,0,0,1,.16.36c0,.44-.35.81-1,1.12A4.19,4.19,0,0,1,124.23,17.09Zm-.16-5.34a1.51,1.51,0,0,0-1.19.56,3.72,3.72,0,0,0-.71,1.66l1.8-.85a7.57,7.57,0,0,0,1.51-.9A2,2,0,0,0,124.07,11.75Z" transform="translate(-2.07 1.29)"/><path class="cls-6" d="M132.62,12.49c0,.49-.22.73-.58.73s-.51-.19-.51-.58c0-.07,0-.21,0-.41l0-.49a3.16,3.16,0,0,0-1.48.52,2.85,2.85,0,0,0-.87,1.15v3.21a.51.51,0,0,1-.58.59c-.34,0-.52-.19-.52-.59V12.51c0-.13,0-.32,0-.58s0-.45,0-.58c0-.4.18-.59.52-.59s.58.32.58,1a3.53,3.53,0,0,1,2.5-1.08.77.77,0,0,1,.7.35,2,2,0,0,1,.24,1.08A4,4,0,0,1,132.62,12.49Z" transform="translate(-2.07 1.29)"/><path class="cls-6" d="M16,36.55a2.17,2.17,0,0,0-.09.72c0,.12,0,.29,0,.52s0,.41,0,.52c0,.39,0,1-.11,1.75s-.1,1.35-.1,1.74,0,.75.07,1.34.06,1,.06,1.34a.56.56,0,0,1-.16.41.58.58,0,0,1-.8,0,.57.57,0,0,1-.17-.41c0-.3,0-.75-.06-1.34s-.06-1-.06-1.34,0-.57,0-.86a14.59,14.59,0,0,0-2.48.3l-2.46.48c0,.35,0,.85-.11,1.49s-.11,1.15-.11,1.51a.54.54,0,0,1-.16.4.5.5,0,0,1-.4.17.51.51,0,0,1-.4-.17.54.54,0,0,1-.16-.4c0-.42,0-1,.1-1.86s.1-1.44.1-1.85c0-.22,0-.54,0-1s0-.75,0-1,0-.78.06-1.4.06-1.08.06-1.39a.56.56,0,0,1,.16-.41.52.52,0,0,1,.4-.16.54.54,0,0,1,.4.16.56.56,0,0,1,.16.41c0,.32,0,.78-.06,1.41s-.06,1.09-.06,1.4l0,1.48,2.52-.47a15.21,15.21,0,0,1,2.53-.3c.05-.55.07-1.4.07-2.52a3.13,3.13,0,0,1,.14-.9c.13-.42.31-.63.55-.63a.57.57,0,0,1,.4.16.55.55,0,0,1,.17.41A.64.64,0,0,1,16,36.55Z" transform="translate(-2.07 1.29)"/><path class="cls-6" d="M21.45,39.81h-.58c-.09,0-.36,0-.8.09l.11,3.46v.56c0,.85-.19,1.28-.62,1.28a.61.61,0,0,1-.41-.15.5.5,0,0,1-.17-.38c0-.15,0-.37,0-.67s0-.52,0-.67l-.12-3.42c-.29,0-.72,0-1.3-.1a.53.53,0,0,1-.52-.58.63.63,0,0,1,.15-.43.57.57,0,0,1,.41-.17l1.23.1c0-.2,0-.47,0-.8s0-.57,0-.72a.52.52,0,0,1,.17-.41.56.56,0,0,1,.41-.16c.35,0,.56.29.62.86,0,.14,0,.32,0,.52l0,.34v.36l.83-.09a3.3,3.3,0,0,1,.8.06.51.51,0,0,1,.35.55.6.6,0,0,1-.16.43A.53.53,0,0,1,21.45,39.81Z" transform="translate(-2.07 1.29)"/><path class="cls-6" d="M30.63,45.29a.54.54,0,0,1-.57-.51c-.07-.43-.14-1-.21-1.82l-.2-1.81a3.66,3.66,0,0,0-.2-.79c-.13-.35-.27-.53-.43-.53a2.06,2.06,0,0,0-.81.37,4,4,0,0,0-.74.54q0,.55,0,1.11l.18,1.56a14.35,14.35,0,0,1,.11,1.53.57.57,0,0,1-.16.42.53.53,0,0,1-.41.17.54.54,0,0,1-.42-.17.61.61,0,0,1-.16-.42c0-.47-.05-1.17-.14-2.1s-.15-1.62-.15-2.09a2.16,2.16,0,0,0-.17-1,3.08,3.08,0,0,0-.83.61l-.69.78-.3.36c0,.24,0,.59-.07,1s-.06.8-.06,1a4,4,0,0,0,.05.49,2.77,2.77,0,0,1,.06.45.52.52,0,0,1-.18.41.6.6,0,0,1-.42.16q-.66,0-.66-1.5,0-.36.06-1.05c.05-.47.07-.82.07-1s0-.52-.06-.93,0-.73,0-.94c0-.89.2-1.33.59-1.33a.56.56,0,0,1,.42.2.6.6,0,0,1,.19.43,3,3,0,0,1,0,.35,2.64,2.64,0,0,0,0,.36v.61a3.5,3.5,0,0,1,.89-1.13,1.71,1.71,0,0,1,1-.51,1.28,1.28,0,0,1,1.27.92,2.13,2.13,0,0,1,.76-.65,2.38,2.38,0,0,1,1-.21,1.34,1.34,0,0,1,1.34,1,14.06,14.06,0,0,1,.24,1.65q.16,1,.42,3.36a.48.48,0,0,1-.16.4A.58.58,0,0,1,30.63,45.29Z" transform="translate(-2.07 1.29)"/><path class="cls-6" d="M34,40.2l-.09,2.91c0,.31,0,.76,0,1.36,0,.39-.23.59-.57.59s-.58-.2-.58-.6,0-1.18.07-2.13.06-1.66.06-2.13c0-.62,0-1.32,0-2.12s0-1.5,0-2.12a.58.58,0,1,1,1.15,0c0,.62,0,1.33,0,2.12S34,39.58,34,40.2Z" transform="translate(-2.07 1.29)"/><path class="cls-6" d="M37.8,37.56a2.09,2.09,0,0,1,.48-1.23,1.44,1.44,0,0,1,1.09-.69,1.28,1.28,0,0,1,1.05.47,1.66,1.66,0,0,1,.36,1.11,2.89,2.89,0,0,1-1.41,2.25A21.85,21.85,0,0,0,40.76,42a4.37,4.37,0,0,0,.17-.67c.07-.39.11-.64.14-.74.1-.32.26-.48.47-.48a.43.43,0,0,1,.38.26,1,1,0,0,1,.12.49,4.15,4.15,0,0,1-.61,2.2,6.86,6.86,0,0,1,1,1.83.48.48,0,0,1-.17.36.55.55,0,0,1-.38.15.55.55,0,0,1-.45-.3l-.67-1.17A3.68,3.68,0,0,1,38.1,45a2.8,2.8,0,0,1-1.87-.67,2.27,2.27,0,0,1-.81-1.79,3,3,0,0,1,.86-2.06A10.44,10.44,0,0,1,38.1,39.1,4.34,4.34,0,0,1,37.8,37.56Zm.74,2.49a10.21,10.21,0,0,0-1.37,1,2.11,2.11,0,0,0-.71,1.49A1.28,1.28,0,0,0,37,43.63,1.85,1.85,0,0,0,38.1,44a2.64,2.64,0,0,0,2-1C39.85,42.55,39.32,41.57,38.54,40.05Zm.45-1.6a1.67,1.67,0,0,0,.75-1.23.72.72,0,0,0-.09-.4.31.31,0,0,0-.28-.13c-.07,0-.17.12-.32.37a1.36,1.36,0,0,0-.21.5A3.12,3.12,0,0,0,39,38.45Z" transform="translate(-2.07 1.29)"/><path class="cls-6" d="M49.3,38.23a.6.6,0,0,1-.56-.44,1,1,0,0,0-.31-.46,1.79,1.79,0,0,0-.61-.06c-.56,0-1.19.43-1.88,1.3a5.38,5.38,0,0,0-1.41,3.31,1.86,1.86,0,0,0,.49,1.3,1.52,1.52,0,0,0,1.2.56,2.62,2.62,0,0,0,1.21-.31,7.42,7.42,0,0,0,1-.69A1,1,0,0,1,49,42.5a.52.52,0,0,1,.42.19.61.61,0,0,1,.17.42.58.58,0,0,1-.22.46A4.72,4.72,0,0,1,46.22,45a2.66,2.66,0,0,1-2-.94,3.08,3.08,0,0,1-.81-2.13A6.58,6.58,0,0,1,45,37.81a3.78,3.78,0,0,1,2.8-1.74l.52,0a2,2,0,0,1,.4.09.63.63,0,0,1,.54-.3c.27,0,.44.18.51.53a6.47,6.47,0,0,1,.09,1.17.68.68,0,0,1-.13.42A.51.51,0,0,1,49.3,38.23Z" transform="translate(-2.07 1.29)"/><path class="cls-6" d="M54.83,40.29a.49.49,0,0,1-.45-.21,2,2,0,0,1-.15-.64c-.3.08-.75.21-1.36.41s-.94.56-.95.93l.35.09a5.59,5.59,0,0,1,2,.66,2,2,0,0,1,1,1.79,1.59,1.59,0,0,1-.83,1.44,3.43,3.43,0,0,1-1.73.4,4.29,4.29,0,0,1-1.47-.26c-.6-.22-.9-.53-.9-.92a.54.54,0,0,1,.19-.41.61.61,0,0,1,.42-.17.76.76,0,0,1,.46.28,1.42,1.42,0,0,0,.64.22,3.53,3.53,0,0,0,.66.07,3.23,3.23,0,0,0,.87-.11q.54-.18.54-.54c0-.54-.37-.89-1.11-1.08l-.61-.14a3.06,3.06,0,0,1-1.11-.4,1.09,1.09,0,0,1-.47-1A1.79,1.79,0,0,1,51.93,39a9,9,0,0,1,1.13-.38,9.62,9.62,0,0,0,1.1-.37,1.31,1.31,0,0,1,.52-.11.57.57,0,0,1,.42.17.57.57,0,0,1,.16.42,2.33,2.33,0,0,0,.07.5,2.6,2.6,0,0,1,.08.5.58.58,0,0,1-.17.43A.53.53,0,0,1,54.83,40.29Z" transform="translate(-2.07 1.29)"/><path class="cls-6" d="M60.67,40.29a.49.49,0,0,1-.45-.21,2,2,0,0,1-.15-.64c-.29.08-.74.21-1.35.41s-.95.56-.95.93a2.14,2.14,0,0,0,.34.09,5.73,5.73,0,0,1,2,.66,2,2,0,0,1,1,1.79,1.58,1.58,0,0,1-.82,1.44,3.5,3.5,0,0,1-1.74.4,4.19,4.19,0,0,1-1.46-.26c-.61-.22-.91-.53-.91-.92a.58.58,0,0,1,.19-.41.61.61,0,0,1,.42-.17.8.8,0,0,1,.47.28,1.32,1.32,0,0,0,.63.22,3.53,3.53,0,0,0,.66.07,3.23,3.23,0,0,0,.87-.11q.54-.18.54-.54c0-.54-.37-.89-1.11-1.08l-.61-.14a3.06,3.06,0,0,1-1.11-.4,1.11,1.11,0,0,1-.47-1A1.79,1.79,0,0,1,57.77,39a9,9,0,0,1,1.13-.38,9.62,9.62,0,0,0,1.1-.37,1.36,1.36,0,0,1,.53-.11.56.56,0,0,1,.57.59,2.33,2.33,0,0,0,.07.5,2.6,2.6,0,0,1,.08.5.61.61,0,0,1-.16.43A.57.57,0,0,1,60.67,40.29Z" transform="translate(-2.07 1.29)"/><path class="cls-6" d="M141,41.37c-.11,0-.34,0-.71-.08,0,.59-.05,1.62-.05,3.1a.54.54,0,0,1-.15.39.5.5,0,0,1-.38.17.51.51,0,0,1-.39-.17.54.54,0,0,1-.15-.39V42.67c0-.58,0-1.39.1-2.43s.13-1.94.13-2.43V37a4.12,4.12,0,0,1,.07-.85c.09-.34.28-.49.58-.44a2.48,2.48,0,0,1,.53-.09c.23,0,.51,0,.85,0a3.17,3.17,0,0,1,2,.73,2.4,2.4,0,0,1,1,2,2.78,2.78,0,0,1-1.1,2.31A3.71,3.71,0,0,1,141,41.37Zm.3-4.66h-.46l-.35,0v1.08l-.12,2.33.64.08a2.73,2.73,0,0,0,1.66-.5,1.76,1.76,0,0,0,.74-1.47,1.36,1.36,0,0,0-.7-1.13A2.49,2.49,0,0,0,141.26,36.71Z" transform="translate(-2.07 1.29)"/><path class="cls-6" d="M150.51,45.17a.54.54,0,0,1-.55-.45,9.36,9.36,0,0,1-.24-1.36,12,12,0,0,1-.11-1.4c0-.1,0-.25,0-.46s0-.36,0-.46c0-.74-.18-1.1-.55-1.1a1.72,1.72,0,0,0-1.33.67,8.19,8.19,0,0,0-.82,1.32,9.54,9.54,0,0,1-.19,2.64.54.54,0,0,1-.51.36.6.6,0,0,1-.42-.16.52.52,0,0,1-.18-.4,1.38,1.38,0,0,1,.05-.26,5.25,5.25,0,0,0,.07-.85v-.87l0-4.31c0-.48,0-.81,0-1a3.45,3.45,0,0,0-.05-.57,2.51,2.51,0,0,1-.06-.55.55.55,0,0,1,.17-.41.57.57,0,0,1,.42-.16.53.53,0,0,1,.56.51,6.63,6.63,0,0,1,.09,1c0,.41,0,.84,0,1.28s0,.86,0,1.29V40a3.41,3.41,0,0,1,1-1,2.18,2.18,0,0,1,1.16-.32,1.42,1.42,0,0,1,1.34.63,3.42,3.42,0,0,1,.29,1.5l.05,1.12.11,1.22c.06.46.12.86.2,1.21a.55.55,0,0,1,0,.17.52.52,0,0,1-.18.4A.65.65,0,0,1,150.51,45.17Z" transform="translate(-2.07 1.29)"/><path class="cls-6" d="M154.73,45.15a2.26,2.26,0,0,1-1.69-.73,3.06,3.06,0,0,1-.83-2.17,3.74,3.74,0,0,1,.67-2.33,2.59,2.59,0,0,1,2.28-1.19,2,2,0,0,1,1.78,1.07,4.14,4.14,0,0,1,.46,2.09,3.82,3.82,0,0,1-.68,2.22A2.34,2.34,0,0,1,154.73,45.15Zm.35-5.23a1.47,1.47,0,0,0-1.34.82,3,3,0,0,0-.38,1.51,1.82,1.82,0,0,0,.46,1.32,1.21,1.21,0,0,0,.91.4,1.41,1.41,0,0,0,1.05-.45,1.9,1.9,0,0,0,.53-1.33C156.36,40.68,156,39.92,155.08,39.92Z" transform="translate(-2.07 1.29)"/><path class="cls-6" d="M162.77,39.81h-.58c-.09,0-.36,0-.8.09l.11,3.46v.56c0,.85-.19,1.28-.61,1.28a.59.59,0,0,1-.41-.15.47.47,0,0,1-.17-.38c0-.15,0-.37,0-.67s0-.52,0-.67l-.12-3.42c-.28,0-.71,0-1.3-.1a.54.54,0,0,1-.52-.58.59.59,0,0,1,.16-.43.54.54,0,0,1,.4-.17l1.24.1c0-.2,0-.47,0-.8s0-.57,0-.72a.55.55,0,0,1,.17-.41.58.58,0,0,1,.42-.16c.35,0,.55.29.61.86a4,4,0,0,1,0,.52v.7l.84-.09a3.2,3.2,0,0,1,.79.06.51.51,0,0,1,.36.55.6.6,0,0,1-.16.43A.56.56,0,0,1,162.77,39.81Z" transform="translate(-2.07 1.29)"/><path class="cls-6" d="M166.7,45.15a2.29,2.29,0,0,1-1.7-.73,3.15,3.15,0,0,1-.83-2.17,3.8,3.8,0,0,1,.67-2.33,2.61,2.61,0,0,1,2.28-1.19,1.93,1.93,0,0,1,1.78,1.07,4,4,0,0,1,.46,2.09,3.82,3.82,0,0,1-.68,2.22A2.34,2.34,0,0,1,166.7,45.15Zm.35-5.23a1.45,1.45,0,0,0-1.34.82,2.9,2.9,0,0,0-.38,1.51,1.78,1.78,0,0,0,.46,1.32,1.21,1.21,0,0,0,.91.4,1.44,1.44,0,0,0,1.05-.45,1.89,1.89,0,0,0,.52-1.33C168.33,40.68,167.92,39.92,167.05,39.92Z" transform="translate(-2.07 1.29)"/><path class="cls-6" d="M174.77,40.29a.5.5,0,0,1-.46-.21,2.85,2.85,0,0,1-.15-.64c-.29.08-.74.21-1.35.41s-.95.56-.95.93a2.25,2.25,0,0,0,.35.09,5.74,5.74,0,0,1,2,.66,2,2,0,0,1,.95,1.79,1.58,1.58,0,0,1-.82,1.44,3.5,3.5,0,0,1-1.74.4,4.19,4.19,0,0,1-1.46-.26c-.6-.22-.9-.53-.9-.92a.57.57,0,0,1,.18-.41.61.61,0,0,1,.42-.17.77.77,0,0,1,.47.28,1.32,1.32,0,0,0,.63.22,3.53,3.53,0,0,0,.66.07,3.23,3.23,0,0,0,.87-.11c.36-.12.55-.3.55-.54,0-.54-.38-.89-1.12-1.08l-.61-.14a2.92,2.92,0,0,1-1.1-.4,1.1,1.1,0,0,1-.48-1A1.79,1.79,0,0,1,171.87,39a8.16,8.16,0,0,1,1.12-.38,9.27,9.27,0,0,0,1.11-.37,1.27,1.27,0,0,1,.52-.11.55.55,0,0,1,.41.17.57.57,0,0,1,.16.42,2.49,2.49,0,0,0,.08.5,2.41,2.41,0,0,1,.07.5.57.57,0,0,1-.16.43A.56.56,0,0,1,174.77,40.29Z" transform="translate(-2.07 1.29)"/><path class="cls-6" d="M181.56,45.17a.54.54,0,0,1-.55-.45,9.36,9.36,0,0,1-.24-1.36,12,12,0,0,1-.11-1.4c0-.1,0-.25,0-.46s0-.36,0-.46c0-.74-.18-1.1-.55-1.1a1.72,1.72,0,0,0-1.33.67,8.19,8.19,0,0,0-.82,1.32,9.54,9.54,0,0,1-.19,2.64.54.54,0,0,1-.51.36.6.6,0,0,1-.42-.16.52.52,0,0,1-.18-.4,1.38,1.38,0,0,1,.05-.26,4.62,4.62,0,0,0,.06-.85l0-.87,0-4.31c0-.48,0-.81,0-1a3.45,3.45,0,0,0,0-.57,2.51,2.51,0,0,1-.06-.55.55.55,0,0,1,.17-.41.57.57,0,0,1,.42-.16.53.53,0,0,1,.56.51,6.63,6.63,0,0,1,.09,1c0,.41,0,.84,0,1.28s0,.86,0,1.29V40a3.41,3.41,0,0,1,1-1,2.18,2.18,0,0,1,1.16-.32,1.39,1.39,0,0,1,1.33.63,3.39,3.39,0,0,1,.3,1.5l0,1.12.12,1.22c.06.46.12.86.2,1.21a.52.52,0,0,1,0,.17.51.51,0,0,1-.17.4A.65.65,0,0,1,181.56,45.17Z" transform="translate(-2.07 1.29)"/><path class="cls-6" d="M185.78,45.15a2.25,2.25,0,0,1-1.69-.73,3.06,3.06,0,0,1-.83-2.17,3.8,3.8,0,0,1,.66-2.33,2.61,2.61,0,0,1,2.29-1.19A1.92,1.92,0,0,1,188,39.8a4.14,4.14,0,0,1,.47,2.09,3.82,3.82,0,0,1-.68,2.22A2.34,2.34,0,0,1,185.78,45.15Zm.35-5.23a1.47,1.47,0,0,0-1.34.82,3,3,0,0,0-.38,1.51,1.78,1.78,0,0,0,.46,1.32,1.21,1.21,0,0,0,.91.4,1.41,1.41,0,0,0,1.05-.45,1.9,1.9,0,0,0,.53-1.33C187.41,40.68,187,39.92,186.13,39.92Z" transform="translate(-2.07 1.29)"/><path class="cls-6" d="M192.38,45a4.73,4.73,0,0,1-1.28-.19l0,2.8a.55.55,0,0,1-.16.42.58.58,0,0,1-.82,0,.55.55,0,0,1-.16-.42V42.94c0-.85,0-1.63-.08-2.34l-.09-1.19a1.51,1.51,0,0,1,.15-.7.55.55,0,0,1,.51-.34.49.49,0,0,1,.38.16.51.51,0,0,1,.16.39s0,.1,0,.2,0,.23,0,.33a4.88,4.88,0,0,1,1-.52,2.74,2.74,0,0,1,.9-.17,1.85,1.85,0,0,1,1.76,1.06,4.93,4.93,0,0,1,.44,2.24,3.15,3.15,0,0,1-.68,2.08A2.37,2.37,0,0,1,192.38,45Zm.41-5.08a2,2,0,0,0-1,.24,4,4,0,0,0-.79.62c.05.89.08,1.82.08,2.8a3.57,3.57,0,0,0,1.27.24,1.28,1.28,0,0,0,1.12-.54,2.06,2.06,0,0,0,.34-1.23,3.84,3.84,0,0,0-.26-1.6A.85.85,0,0,0,192.79,39.93Z" transform="translate(-2.07 1.29)"/><path class="cls-6" d="M140.26,116.25c-.36,0-.67-.46-.94-1.38-.1-.36-.23-1-.38-1.85-.4,0-.92.15-1.56.29l-1.56.33c-.2.51-.53,1.25-1,2.24a.56.56,0,0,1-.51.33.6.6,0,0,1-.41-.17.55.55,0,0,1-.19-.42,10.79,10.79,0,0,1,.89-2.14.6.6,0,0,1-.1-.35c0-.32.19-.52.57-.61.45-.84,1-1.8,1.69-2.89.92-1.48,1.5-2.22,1.73-2.22s.52.22.63.65l.37,2,.87,4.07.34.92a2.61,2.61,0,0,1,.17.64.57.57,0,0,1-.19.42A.6.6,0,0,1,140.26,116.25Zm-2.07-6.7-1.68,2.7c.48-.12,1.19-.27,2.15-.44Z" transform="translate(-2.07 1.29)"/><path class="cls-6" d="M147.92,110.9c0,.57-.07,1.15-.07,1.72a18,18,0,0,0,.18,2.95.66.66,0,0,1,0,.13.5.5,0,0,1-.16.39.55.55,0,0,1-.38.15c-.24,0-.42-.17-.53-.52a3.37,3.37,0,0,1-.88.46,2.9,2.9,0,0,1-3-.65,2.9,2.9,0,0,1-.82-2.12,3.69,3.69,0,0,1,.83-2.51,2.77,2.77,0,0,1,2.16-.94,2.17,2.17,0,0,1,1,.21l.55.41c0-1.65.12-2.76.19-3.33,0-.34.23-.52.53-.52s.54.19.54.57Q148.16,108.11,147.92,110.9Zm-2.6.15a1.85,1.85,0,0,0-1.48.58,2.74,2.74,0,0,0-.49,1.76,1.78,1.78,0,0,0,.54,1.3,1.71,1.71,0,0,0,1.25.54,1.8,1.8,0,0,0,.84-.18,4.72,4.72,0,0,0,.65-.48,1.49,1.49,0,0,0,.17-.18l0-1V112a1.68,1.68,0,0,0-.59-.71A1.62,1.62,0,0,0,145.32,111.05Z" transform="translate(-2.07 1.29)"/><path class="cls-6" d="M151.77,116.42a2.26,2.26,0,0,1-1.69-.73,3.06,3.06,0,0,1-.83-2.17,3.8,3.8,0,0,1,.66-2.33A2.61,2.61,0,0,1,152.2,110a1.91,1.91,0,0,1,1.77,1.07,4.13,4.13,0,0,1,.47,2.08,3.83,3.83,0,0,1-.68,2.23A2.34,2.34,0,0,1,151.77,116.42Zm.35-5.23a1.47,1.47,0,0,0-1.34.82,3,3,0,0,0-.38,1.51,1.8,1.8,0,0,0,.46,1.32,1.24,1.24,0,0,0,.91.39,1.4,1.4,0,0,0,1-.44,1.9,1.9,0,0,0,.53-1.33C153.4,112,153,111.19,152.12,111.19Z" transform="translate(-2.07 1.29)"/><path class="cls-6" d="M158.62,116.32A3.78,3.78,0,0,1,157,116a.55.55,0,0,1-.45.28.49.49,0,0,1-.38-.16.5.5,0,0,1-.16-.39c0-.1,0-.25,0-.45s0-.35,0-.45q0-.61,0-1.86t0-1.86v-1.62c0-.79,0-1.34,0-1.63a1.46,1.46,0,0,1,.14-.63.6.6,0,0,1,.54-.36c.29,0,.44.17.44.51a1.29,1.29,0,0,1,0,.24,1.52,1.52,0,0,0,0,.24l0,1.29v1.49a4.88,4.88,0,0,1,1-.52,2.57,2.57,0,0,1,.86-.17,2.5,2.5,0,0,1,2,1,3.43,3.43,0,0,1,.74,2.23,3.24,3.24,0,0,1-.86,2.27A2.82,2.82,0,0,1,158.62,116.32Zm.22-5.29a2.07,2.07,0,0,0-1,.27,7.83,7.83,0,0,0-.84.58l0,1v1.88l.79.32a2.55,2.55,0,0,0,.81.12,1.82,1.82,0,0,0,1.4-.6,2.15,2.15,0,0,0,.54-1.49,2.39,2.39,0,0,0-.44-1.46A1.52,1.52,0,0,0,158.84,111Z" transform="translate(-2.07 1.29)"/><path class="cls-6" d="M165.74,116.34a3.3,3.3,0,0,1-2.14-.66,2.5,2.5,0,0,1-.9-2.05,4.3,4.3,0,0,1,.74-2.56,2.49,2.49,0,0,1,2.14-1.12,3.35,3.35,0,0,1,1.59.33,1.29,1.29,0,0,1,.09,2.31,8.61,8.61,0,0,1-1.24.65l-2.24,1.06a2.15,2.15,0,0,0,.82.74,2.58,2.58,0,0,0,1.14.24,3.63,3.63,0,0,0,.95-.15,1.5,1.5,0,0,0,.89-.51.54.54,0,0,1,.43-.31.55.55,0,0,1,.53.51c0,.44-.35.81-1,1.12A4.23,4.23,0,0,1,165.74,116.34Zm-.16-5.34a1.52,1.52,0,0,0-1.19.56,3.84,3.84,0,0,0-.71,1.66l1.8-.85a7.12,7.12,0,0,0,1.51-.9A2,2,0,0,0,165.58,111Z" transform="translate(-2.07 1.29)"/><path class="cls-6" d="M180.43,108.17c-.52.63-.93,1.15-1.21,1.56l-.73,1.08a10.08,10.08,0,0,1-.8,1l1.29,1.88a21.82,21.82,0,0,0,1.36,1.83.61.61,0,0,1,.16.41.62.62,0,0,1-.6.6.61.61,0,0,1-.42-.18,6.14,6.14,0,0,1-.9-1.11l-.79-1.21-.92-1.32-2,2.34-1.08,1.2a.6.6,0,0,1-.43.2.58.58,0,0,1-.42-.18.61.61,0,0,1-.18-.43.62.62,0,0,1,.15-.4l1.06-1.18,2.19-2.55c-.43-.57-.88-1.15-1.37-1.73l-.68-.92a5.47,5.47,0,0,0-.76-.84.62.62,0,0,1-.25-.47.63.63,0,0,1,.17-.43.56.56,0,0,1,.43-.19c.33,0,.75.35,1.27,1.06.16.24.4.58.73,1s.87,1.07,1.27,1.6L178.3,109c.86-1.21,1.43-1.81,1.68-1.81a.6.6,0,0,1,.45,1Z" transform="translate(-2.07 1.29)"/><path class="cls-6" d="M187.34,116a4.58,4.58,0,0,1-2.61.62,4.2,4.2,0,0,1-1-.13,2.72,2.72,0,0,1-1-.41h-.06a.54.54,0,0,1-.42-.18.57.57,0,0,1-.17-.43c0-.41,0-1,0-1.84s.06-1.43.06-1.84,0-1.14,0-2,0-1.59,0-2a.77.77,0,0,1,.25-.5.67.67,0,0,1,.49-.26,4,4,0,0,1,.94.39c.6.29.95.45,1,.48a7.32,7.32,0,0,1,2.84,1.75,4.26,4.26,0,0,1,1.38,3,4.08,4.08,0,0,1-.48,1.92A3.84,3.84,0,0,1,187.34,116Zm-1.23-6.2a25.28,25.28,0,0,0-2.76-1.35l0,1.69v1.68l-.09,3.2a.49.49,0,0,1,.12.08,2.31,2.31,0,0,0,1.3.34,3.52,3.52,0,0,0,1.95-.41,2.72,2.72,0,0,0,.91-1,2.94,2.94,0,0,0,.33-1.36A3.38,3.38,0,0,0,186.11,109.83Z" transform="translate(-2.07 1.29)"/><path class="cls-6" d="M7.3,116a4.52,4.52,0,0,1-2.6.62,4.13,4.13,0,0,1-1-.13,2.87,2.87,0,0,1-1-.41H2.66a.58.58,0,0,1-.42-.18.59.59,0,0,1-.17-.42c0-.41,0-1,.06-1.85s.05-1.43.05-1.84,0-1.14,0-2,0-1.59,0-2a.74.74,0,0,1,.25-.5.67.67,0,0,1,.49-.26,4.17,4.17,0,0,1,.94.39l1,.49a7.25,7.25,0,0,1,2.84,1.74,4.28,4.28,0,0,1,1.37,3,4.14,4.14,0,0,1-.47,1.93A3.83,3.83,0,0,1,7.3,116Zm-1.23-6.2a22.35,22.35,0,0,0-2.76-1.34l0,1.68,0,1.68-.09,3.2.12.08a2.29,2.29,0,0,0,1.3.35,3.63,3.63,0,0,0,1.95-.41,2.76,2.76,0,0,0,.9-1,2.9,2.9,0,0,0,.34-1.37A3.37,3.37,0,0,0,6.07,109.83Z" transform="translate(-2.07 1.29)"/><path class="cls-6" d="M14.57,111.74c0,.49-.23.74-.59.74s-.5-.2-.5-.58c0-.08,0-.22,0-.41l0-.5a3.16,3.16,0,0,0-1.48.52,2.85,2.85,0,0,0-.87,1.15v3.21c0,.4-.19.6-.58.6s-.51-.2-.51-.6v-4.11c0-.13,0-.32,0-.58s0-.45,0-.58c0-.39.17-.59.51-.59s.58.32.58,1a3.53,3.53,0,0,1,2.5-1.08.8.8,0,0,1,.71.36,2,2,0,0,1,.23,1.07Z" transform="translate(-2.07 1.29)"/><path class="cls-6" d="M18,116.34a3.3,3.3,0,0,1-2.14-.66,2.5,2.5,0,0,1-.9-2.05,4.25,4.25,0,0,1,.74-2.55A2.5,2.5,0,0,1,17.88,110a3.35,3.35,0,0,1,1.59.33,1.29,1.29,0,0,1,.09,2.31,8.61,8.61,0,0,1-1.24.65l-2.24,1.06a2.15,2.15,0,0,0,.82.74,2.58,2.58,0,0,0,1.14.24,3.63,3.63,0,0,0,.95-.15,1.5,1.5,0,0,0,.89-.51.54.54,0,0,1,.43-.31.57.57,0,0,1,.53.52q0,.65-1.05,1.11A4.23,4.23,0,0,1,18,116.34ZM17.88,111a1.51,1.51,0,0,0-1.19.55,3.83,3.83,0,0,0-.71,1.67l1.8-.86a7.12,7.12,0,0,0,1.51-.9A2,2,0,0,0,17.88,111Z" transform="translate(-2.07 1.29)"/><path class="cls-6" d="M26,116.46c-.08,0-.21-.09-.41-.26a2.85,2.85,0,0,1-.39-.43,6.84,6.84,0,0,1-1,.46,2.05,2.05,0,0,1-.72.16,2.42,2.42,0,0,1-2-.77,3.47,3.47,0,0,1-.59-2.23,3.37,3.37,0,0,1,1-2.43,3.13,3.13,0,0,1,2.33-1,2.9,2.9,0,0,1,1.14.26c.53.22.8.48.8.79a.38.38,0,0,1-.12.28,4,4,0,0,0-.09.73c0,.34,0,.78,0,1.31a5,5,0,0,0,.1,1.15,8.28,8.28,0,0,0,.37,1c0,.07.07.17.14.31l0,.1a.5.5,0,0,1-.16.39A.55.55,0,0,1,26,116.46Zm-1.22-4.07c0-.17,0-.35,0-.55a5.12,5.12,0,0,1,.1-.63,2.63,2.63,0,0,0-.38-.16.69.69,0,0,0-.24-.06,2,2,0,0,0-1.57.74,2.52,2.52,0,0,0-.66,1.71,2.47,2.47,0,0,0,.34,1.44,1.18,1.18,0,0,0,1,.48,2,2,0,0,0,.95-.2,3.24,3.24,0,0,0,.6-.45A20.15,20.15,0,0,1,24.77,112.39Z" transform="translate(-2.07 1.29)"/><path class="cls-6" d="M34.52,116.56a.53.53,0,0,1-.56-.51c-.07-.43-.14-1-.21-1.82l-.2-1.81a3.52,3.52,0,0,0-.2-.79c-.13-.36-.27-.53-.43-.53a2,2,0,0,0-.81.37,3.6,3.6,0,0,0-.74.54c0,.37,0,.74,0,1.1l.18,1.57a14.35,14.35,0,0,1,.11,1.53.61.61,0,0,1-.16.42.57.57,0,0,1-.42.17.56.56,0,0,1-.57-.59c0-.47-.05-1.17-.14-2.1s-.15-1.62-.15-2.09a2.28,2.28,0,0,0-.17-1,2.94,2.94,0,0,0-.83.61l-.7.77a2.42,2.42,0,0,1-.3.37c0,.24,0,.58-.06,1s-.06.8-.06,1a2.68,2.68,0,0,0,.05.5,2.77,2.77,0,0,1,.06.45.54.54,0,0,1-.18.41.6.6,0,0,1-.42.16q-.66,0-.66-1.5,0-.36.06-1.05c0-.47.07-.82.07-1s0-.52-.06-.93-.05-.73-.05-.94c0-.89.19-1.33.59-1.33a.58.58,0,0,1,.42.2.6.6,0,0,1,.19.43,3,3,0,0,1,0,.35,2.87,2.87,0,0,0,0,.36l0,.61a3.4,3.4,0,0,1,.89-1.13,1.71,1.71,0,0,1,1-.51,1.28,1.28,0,0,1,1.27.91,2.21,2.21,0,0,1,.76-.64,2.38,2.38,0,0,1,1-.21,1.35,1.35,0,0,1,1.34,1,13.66,13.66,0,0,1,.24,1.65q.16,1,.42,3.36a.48.48,0,0,1-.16.4A.6.6,0,0,1,34.52,116.56Z" transform="translate(-2.07 1.29)"/><path class="cls-6" d="M43,110.83c-.3,1.27-.7,2.71-1.19,4.32a4.3,4.3,0,0,1-.55,1.09.63.63,0,0,1-.56.31q-.63,0-1-1.59c-.08-.34-.16-.79-.24-1.37l-.2-1.31-.48,1.12-.89,2.42a.7.7,0,0,1-.22.34.59.59,0,0,1-.56.35c-.3,0-.59-.57-.86-1.74q-.21-.92-.42-2.46l-.15-.88a6.39,6.39,0,0,1-.07-.89.53.53,0,0,1,.17-.4.61.61,0,0,1,.42-.17.53.53,0,0,1,.55.49,7.13,7.13,0,0,1,.12.86l.09.86.35,2.63c.43-1.21.88-2.59,1.35-4.16.12-.44.35-.65.67-.65s.52.24.63.72.22,1.16.38,2.11.29,1.76.41,2.31l.43-1.6.76-3.19a.45.45,0,0,1,.5-.36.63.63,0,0,1,.43.17.52.52,0,0,1,.18.4A2.48,2.48,0,0,1,43,110.83Z" transform="translate(-2.07 1.29)"/><path class="cls-6" d="M46.42,116.34a3.32,3.32,0,0,1-2.15-.66,2.5,2.5,0,0,1-.9-2.05,4.25,4.25,0,0,1,.74-2.55A2.52,2.52,0,0,1,46.26,110a3.31,3.31,0,0,1,1.58.33,1.31,1.31,0,0,1,.76,1.24,1.35,1.35,0,0,1-.66,1.07,9.23,9.23,0,0,1-1.24.65l-2.24,1.06a2.15,2.15,0,0,0,.82.74,2.52,2.52,0,0,0,1.14.24,3.63,3.63,0,0,0,.94-.15,1.47,1.47,0,0,0,.89-.51c.14-.21.28-.31.43-.31a.5.5,0,0,1,.37.16.46.46,0,0,1,.16.36q0,.65-1.05,1.11A4.22,4.22,0,0,1,46.42,116.34ZM46.26,111a1.48,1.48,0,0,0-1.19.55,3.61,3.61,0,0,0-.71,1.67l1.8-.86a7.39,7.39,0,0,0,1.51-.9A2,2,0,0,0,46.26,111Z" transform="translate(-2.07 1.29)"/><path class="cls-6" d="M54.36,116.46a.91.91,0,0,1-.4-.26,2.51,2.51,0,0,1-.4-.43,6,6,0,0,1-1,.46,2,2,0,0,1-.71.16,2.44,2.44,0,0,1-2-.77,3.54,3.54,0,0,1-.59-2.23,3.37,3.37,0,0,1,1-2.43,3.13,3.13,0,0,1,2.33-1,3,3,0,0,1,1.15.26c.53.22.79.48.79.79a.41.41,0,0,1-.11.28,4.89,4.89,0,0,0-.1.73c0,.34,0,.78,0,1.31a4.48,4.48,0,0,0,.1,1.15,8.28,8.28,0,0,0,.37,1c0,.07.07.17.13.31l0,.1a.51.51,0,0,1-.17.39A.55.55,0,0,1,54.36,116.46Zm-1.22-4.07c0-.17,0-.35,0-.55s.06-.41.1-.63a2.58,2.58,0,0,0-.37-.16.79.79,0,0,0-.25-.06,2,2,0,0,0-1.57.74,2.52,2.52,0,0,0-.66,1.71,2.55,2.55,0,0,0,.34,1.44,1.18,1.18,0,0,0,1,.48,2,2,0,0,0,1-.2,2.94,2.94,0,0,0,.59-.45A20.15,20.15,0,0,1,53.14,112.39Z" transform="translate(-2.07 1.29)"/><path class="cls-6" d="M58.16,115.77a.49.49,0,0,1-.54.54.66.66,0,0,1-.62-.51l-.89-2.37-1-2.69a1.12,1.12,0,0,1-.05-.27.54.54,0,0,1,.18-.41.57.57,0,0,1,.42-.17.52.52,0,0,1,.5.35l1.49,4.1c.29-.63.66-1.53,1.11-2.72.1-.31.27-.75.5-1.32a.56.56,0,0,1,.51-.38.61.61,0,0,1,.42.17.52.52,0,0,1,.19.41,20.18,20.18,0,0,1-1,2.5Z" transform="translate(-2.07 1.29)"/><path class="cls-6" d="M63.56,116.34a3.3,3.3,0,0,1-2.14-.66,2.5,2.5,0,0,1-.9-2.05,4.25,4.25,0,0,1,.74-2.55A2.5,2.5,0,0,1,63.4,110a3.35,3.35,0,0,1,1.59.33,1.31,1.31,0,0,1,.76,1.24,1.34,1.34,0,0,1-.67,1.07,8.06,8.06,0,0,1-1.24.65L61.6,114.3a2.22,2.22,0,0,0,.82.74,2.58,2.58,0,0,0,1.14.24,3.63,3.63,0,0,0,1-.15,1.5,1.5,0,0,0,.89-.51.54.54,0,0,1,.43-.31.55.55,0,0,1,.53.52q0,.65-1,1.11A4.23,4.23,0,0,1,63.56,116.34ZM63.4,111a1.51,1.51,0,0,0-1.19.55,3.83,3.83,0,0,0-.71,1.67l1.8-.86a7.53,7.53,0,0,0,1.52-.9A2,2,0,0,0,63.4,111Z" transform="translate(-2.07 1.29)"/><path class="cls-6" d="M71.49,111.74c0,.49-.22.74-.59.74s-.5-.2-.5-.58c0-.08,0-.22,0-.41V111a3.2,3.2,0,0,0-1.49.52,2.92,2.92,0,0,0-.86,1.15v3.21a.52.52,0,0,1-.58.6c-.35,0-.52-.2-.52-.6v-4.11c0-.13,0-.32,0-.58s0-.45,0-.58c0-.39.17-.59.52-.59s.57.32.58,1a3.52,3.52,0,0,1,2.49-1.08.78.78,0,0,1,.71.36,1.9,1.9,0,0,1,.24,1.07C71.5,111.54,71.49,111.67,71.49,111.74Z" transform="translate(-2.07 1.29)"/><circle class="cls-13" cx="69.93" cy="59.63" r="1.71"/><path class="cls-9" d="M72,57.13a1.21,1.21,0,1,1-1.21,1.21A1.21,1.21,0,0,1,72,57.13m0-.5a1.71,1.71,0,1,0,1.71,1.71A1.7,1.7,0,0,0,72,56.63Z" transform="translate(-2.07 1.29)"/><circle class="cls-13" cx="81.93" cy="95.63" r="1.71"/><path class="cls-9" d="M84,93.13a1.21,1.21,0,1,1-1.21,1.21A1.21,1.21,0,0,1,84,93.13m0-.5a1.71,1.71,0,1,0,1.71,1.71A1.7,1.7,0,0,0,84,92.63Z" transform="translate(-2.07 1.29)"/><circle class="cls-13" cx="123.93" cy="102.63" r="1.71"/><path class="cls-9" d="M126,100.13a1.21,1.21,0,1,1-1.21,1.21,1.21,1.21,0,0,1,1.21-1.21m0-.5a1.71,1.71,0,1,0,1.71,1.71A1.7,1.7,0,0,0,126,99.63Z" transform="translate(-2.07 1.29)"/><circle class="cls-13" cx="130.93" cy="59.63" r="1.71"/><path class="cls-9" d="M133,57.13a1.21,1.21,0,1,1-1.21,1.21A1.21,1.21,0,0,1,133,57.13m0-.5a1.71,1.71,0,1,0,1.71,1.71A1.7,1.7,0,0,0,133,56.63Z" transform="translate(-2.07 1.29)"/><circle class="cls-13" cx="100.43" cy="30.63" r="1.71"/><path class="cls-9" d="M102.5,28.13a1.21,1.21,0,1,1-1.21,1.21,1.21,1.21,0,0,1,1.21-1.21m0-.5a1.71,1.71,0,1,0,1.71,1.71,1.7,1.7,0,0,0-1.71-1.71Z" transform="translate(-2.07 1.29)"/></g></svg>